<svg width="20" height="20" viewBox="0 0 20 20" fill="none" xmlns="http://www.w3.org/2000/svg">
<mask id="path-1-inside-1_3383_61320" fill="white">
<path d="M17.4608 9.02344C18.0643 9.02344 18.3163 8.24805 17.826 7.89062L10.367 2.46484C10.2605 2.3868 10.1319 2.34473 9.99986 2.34473C9.86781 2.34473 9.73919 2.3868 9.63267 2.46484L2.17368 7.89062C1.68345 8.24609 1.9354 9.02344 2.54087 9.02344H3.74986V16.3281H2.34361C2.25767 16.3281 2.18736 16.3984 2.18736 16.4844V17.5C2.18736 17.5859 2.25767 17.6562 2.34361 17.6562H17.6561C17.742 17.6562 17.8124 17.5859 17.8124 17.5V16.4844C17.8124 16.3984 17.742 16.3281 17.6561 16.3281H16.2499V9.02344H17.4608ZM9.99986 3.8418L15.2948 7.69336H4.70493L9.99986 3.8418ZM5.15611 9.02344H7.44126V16.3281H5.15611V9.02344ZM8.84751 9.02344H11.1327V16.3281H8.84751V9.02344ZM14.8436 16.3281H12.5389V9.02344H14.8436V16.3281Z"/>
</mask>
<path d="M17.4608 9.02344C18.0643 9.02344 18.3163 8.24805 17.826 7.89062L10.367 2.46484C10.2605 2.3868 10.1319 2.34473 9.99986 2.34473C9.86781 2.34473 9.73919 2.3868 9.63267 2.46484L2.17368 7.89062C1.68345 8.24609 1.9354 9.02344 2.54087 9.02344H3.74986V16.3281H2.34361C2.25767 16.3281 2.18736 16.3984 2.18736 16.4844V17.5C2.18736 17.5859 2.25767 17.6562 2.34361 17.6562H17.6561C17.742 17.6562 17.8124 17.5859 17.8124 17.5V16.4844C17.8124 16.3984 17.742 16.3281 17.6561 16.3281H16.2499V9.02344H17.4608ZM9.99986 3.8418L15.2948 7.69336H4.70493L9.99986 3.8418ZM5.15611 9.02344H7.44126V16.3281H5.15611V9.02344ZM8.84751 9.02344H11.1327V16.3281H8.84751V9.02344ZM14.8436 16.3281H12.5389V9.02344H14.8436V16.3281Z" fill="#2E7BE6"/>
<path d="M17.826 7.89062L18.7097 6.67856L18.7084 6.6776L17.826 7.89062ZM10.367 2.46484L9.48053 3.67485L9.48467 3.67787L10.367 2.46484ZM9.99986 2.34473V0.844727V2.34473ZM9.63267 2.46484L10.515 3.67787L10.5192 3.67484L9.63267 2.46484ZM2.17368 7.89062L3.05422 9.10498L3.05606 9.10365L2.17368 7.89062ZM3.74986 9.02344H5.24986V7.52344H3.74986V9.02344ZM3.74986 16.3281V17.8281H5.24986V16.3281H3.74986ZM16.2499 16.3281H14.7499V17.8281H16.2499V16.3281ZM16.2499 9.02344V7.52344H14.7499V9.02344H16.2499ZM9.99986 3.8418L10.8822 2.62877L9.99986 1.98693L9.11749 2.62877L9.99986 3.8418ZM15.2948 7.69336V9.19336H19.9069L16.1771 6.48033L15.2948 7.69336ZM4.70493 7.69336L3.82257 6.48033L0.0928462 9.19336H4.70493V7.69336ZM5.15611 9.02344V7.52344H3.65611V9.02344H5.15611ZM7.44126 9.02344H8.94126V7.52344H7.44126V9.02344ZM7.44126 16.3281V17.8281H8.94126V16.3281H7.44126ZM5.15611 16.3281H3.65611V17.8281H5.15611V16.3281ZM8.84751 9.02344V7.52344H7.34751V9.02344H8.84751ZM11.1327 9.02344H12.6327V7.52344H11.1327V9.02344ZM11.1327 16.3281V17.8281H12.6327V16.3281H11.1327ZM8.84751 16.3281H7.34751V17.8281H8.84751V16.3281ZM14.8436 16.3281V17.8281H16.3436V16.3281H14.8436ZM12.5389 16.3281H11.0389V17.8281H12.5389V16.3281ZM12.5389 9.02344V7.52344H11.0389V9.02344H12.5389ZM14.8436 9.02344H16.3436V7.52344H14.8436V9.02344ZM17.4608 10.5234C19.5301 10.5234 20.3618 7.88304 18.7097 6.67857L16.9423 9.10268C16.2708 8.61306 16.5985 7.52344 17.4608 7.52344V10.5234ZM18.7084 6.6776L11.2494 1.25182L9.48467 3.67787L16.9437 9.10365L18.7084 6.6776ZM11.2536 1.25485C10.8899 0.988381 10.4507 0.844727 9.99986 0.844727V3.84473C9.81309 3.84473 9.63119 3.78522 9.48053 3.67484L11.2536 1.25485ZM9.99986 0.844727C9.54899 0.844727 9.10985 0.988381 8.74616 1.25485L10.5192 3.67484C10.3685 3.78522 10.1866 3.84473 9.99986 3.84473V0.844727ZM8.7503 1.25182L1.29131 6.6776L3.05606 9.10365L10.515 3.67787L8.7503 1.25182ZM1.29315 6.67627C-0.372777 7.88423 0.480034 10.5234 2.54087 10.5234V7.52344C3.39077 7.52344 3.73968 8.60795 3.05422 9.10498L1.29315 6.67627ZM2.54087 10.5234H3.74986V7.52344H2.54087V10.5234ZM2.24986 9.02344V16.3281H5.24986V9.02344H2.24986ZM3.74986 14.8281H2.34361V17.8281H3.74986V14.8281ZM2.34361 14.8281C1.42924 14.8281 0.687356 15.57 0.687356 16.4844H3.68736C3.68736 17.2269 3.0861 17.8281 2.34361 17.8281V14.8281ZM0.687356 16.4844V17.5H3.68736V16.4844H0.687356ZM0.687356 17.5C0.687356 18.4144 1.42924 19.1562 2.34361 19.1562V16.1562C3.0861 16.1562 3.68736 16.7575 3.68736 17.5H0.687356ZM2.34361 19.1562H17.6561V16.1562H2.34361V19.1562ZM17.6561 19.1562C18.5705 19.1562 19.3124 18.4144 19.3124 17.5H16.3124C16.3124 16.7575 16.9136 16.1562 17.6561 16.1562V19.1562ZM19.3124 17.5V16.4844H16.3124V17.5H19.3124ZM19.3124 16.4844C19.3124 15.57 18.5705 14.8281 17.6561 14.8281V17.8281C16.9136 17.8281 16.3124 17.2269 16.3124 16.4844H19.3124ZM17.6561 14.8281H16.2499V17.8281H17.6561V14.8281ZM17.7499 16.3281V9.02344H14.7499V16.3281H17.7499ZM16.2499 10.5234H17.4608V7.52344H16.2499V10.5234ZM9.11749 5.05482L14.4124 8.90639L16.1771 6.48033L10.8822 2.62877L9.11749 5.05482ZM15.2948 6.19336H4.70493V9.19336H15.2948V6.19336ZM5.5873 8.90639L10.8822 5.05482L9.11749 2.62877L3.82257 6.48033L5.5873 8.90639ZM5.15611 10.5234H7.44126V7.52344H5.15611V10.5234ZM5.94126 9.02344V16.3281H8.94126V9.02344H5.94126ZM7.44126 14.8281H5.15611V17.8281H7.44126V14.8281ZM6.65611 16.3281V9.02344H3.65611V16.3281H6.65611ZM8.84751 10.5234H11.1327V7.52344H8.84751V10.5234ZM9.63267 9.02344V16.3281H12.6327V9.02344H9.63267ZM11.1327 14.8281H8.84751V17.8281H11.1327V14.8281ZM10.3475 16.3281V9.02344H7.34751V16.3281H10.3475ZM14.8436 14.8281H12.5389V17.8281H14.8436V14.8281ZM14.0389 16.3281V9.02344H11.0389V16.3281H14.0389ZM12.5389 10.5234H14.8436V7.52344H12.5389V10.5234ZM13.3436 9.02344V16.3281H16.3436V9.02344H13.3436Z" fill="#2E7BE6" mask="url(#path-1-inside-1_3383_61320)"/>
</svg>
