<svg width="20" height="20" viewBox="0 0 20 20" fill="none" xmlns="http://www.w3.org/2000/svg">
<path d="M3.75 10.9052V16.2498C3.75 16.4156 3.81585 16.5746 3.93306 16.6918C4.05027 16.809 4.20924 16.8748 4.375 16.8748H15.625C15.7908 16.8748 15.9497 16.809 16.0669 16.6918C16.1842 16.5746 16.25 16.4156 16.25 16.2498V10.9053" stroke="#A0A4A8" stroke-width="2" stroke-linecap="round" stroke-linejoin="round"/>
<path d="M4.22144 3.12488H15.7786C15.9144 3.12488 16.0465 3.16912 16.1549 3.25091C16.2634 3.3327 16.3422 3.44758 16.3795 3.57818L17.5 7.49988H2.5L3.62049 3.57818C3.6578 3.44758 3.73664 3.3327 3.84507 3.25091C3.9535 3.16912 4.08562 3.12488 4.22144 3.12488Z" stroke="#A0A4A8" stroke-width="2" stroke-linecap="round" stroke-linejoin="round"/>
<path d="M7.5 7.5V8.75C7.5 9.41304 7.23661 10.0489 6.76777 10.5178C6.29893 10.9866 5.66304 11.25 5 11.25C4.33696 11.25 3.70107 10.9866 3.23223 10.5178C2.76339 10.0489 2.5 9.41304 2.5 8.75V7.5" stroke="#A0A4A8" stroke-width="2" stroke-linecap="round" stroke-linejoin="round"/>
<path d="M12.5001 7.5V8.75C12.5001 9.41304 12.2367 10.0489 11.7679 10.5178C11.299 10.9866 10.6632 11.25 10.0001 11.25C9.33708 11.25 8.7012 10.9866 8.23236 10.5178C7.76351 10.0489 7.50012 9.41304 7.50012 8.75V7.5" stroke="#A0A4A8" stroke-width="1.5" stroke-linecap="round" stroke-linejoin="round"/>
<path d="M17.5 7.5V8.75C17.5 9.41304 17.2366 10.0489 16.7678 10.5178C16.2989 10.9866 15.663 11.25 15 11.25C14.337 11.25 13.7011 10.9866 13.2322 10.5178C12.7634 10.0489 12.5 9.41304 12.5 8.75V7.5" stroke="#A0A4A8" stroke-width="2" stroke-linecap="round" stroke-linejoin="round"/>
</svg>