<svg width="20" height="20" viewBox="0 0 20 20" fill="none" xmlns="http://www.w3.org/2000/svg">
<path d="M17.6749 13.2417C17.1448 14.4955 16.3156 15.6002 15.2598 16.4595C14.2041 17.3187 12.9539 17.9063 11.6186 18.1707C10.2833 18.4352 8.90361 18.3685 7.60005 17.9766C6.29649 17.5846 5.10878 16.8793 4.14078 15.9223C3.17277 14.9653 2.45394 13.7857 2.04712 12.4867C1.64031 11.1877 1.5579 9.8088 1.80709 8.47059C2.05629 7.13238 2.62951 5.87559 3.47663 4.81009C4.32376 3.74459 5.419 2.90283 6.6666 2.3584" stroke="#A0A4A8" stroke-width="1.5" stroke-linecap="round" stroke-linejoin="round"/>
<path d="M18.3333 9.99984C18.3333 8.90549 18.1178 7.82185 17.699 6.81081C17.2802 5.79976 16.6664 4.8811 15.8926 4.10728C15.1187 3.33346 14.2001 2.71963 13.189 2.30084C12.178 1.88205 11.0943 1.6665 10 1.6665V9.99984H18.3333Z" stroke="#A0A4A8" stroke-width="1.5" stroke-linecap="round" stroke-linejoin="round"/>
</svg>
