<svg width="32" height="32" viewBox="0 0 32 32" fill="none" xmlns="http://www.w3.org/2000/svg">
<path opacity="0.2" d="M16 16L5.6077 22L5.60599 22.001C4.55345 20.1765 3.99958 18.1071 4 16.0007C4.00042 13.8944 4.55513 11.8252 5.6084 10.0011C6.66166 8.17698 8.1764 6.66215 10.0005 5.60877C11.8245 4.55539 13.8936 4.00055 16 4V16Z" fill="#9395A1"/>
<path d="M16 28C22.6274 28 28 22.6274 28 16C28 9.37258 22.6274 4 16 4C9.37258 4 4 9.37258 4 16C4 22.6274 9.37258 28 16 28Z" stroke="#9395A1" stroke-width="2" stroke-linecap="round" stroke-linejoin="round"/>
<path d="M16 16V4" stroke="#9395A1" stroke-width="2" stroke-linecap="round" stroke-linejoin="round"/>
<path d="M26.3923 10L5.60767 22" stroke="#9395A1" stroke-width="2" stroke-linecap="round" stroke-linejoin="round"/>
</svg>
