<svg width="16" height="10" viewBox="0 0 16 10" fill="none" xmlns="http://www.w3.org/2000/svg">
<path fill-rule="evenodd" clip-rule="evenodd" d="M14.4316 8.00431C12.6865 9.29218 10.1568 9.97695 7.97813 9.97695C4.92486 9.97695 2.17543 8.84825 0.095017 6.9697C-0.0682991 6.82213 0.0771932 6.62068 0.27367 6.73509C2.51823 8.0412 5.29419 8.82794 8.16134 8.82794C10.0954 8.82794 12.2214 8.42669 14.1779 7.59685C14.4726 7.47125 14.7201 7.79084 14.4316 8.00431ZM15.1574 7.17529C15.3808 7.4613 14.9091 8.63892 14.6985 9.16493C14.6347 9.3241 14.7715 9.38835 14.9157 9.26773C15.8517 8.48472 16.0938 6.84369 15.9023 6.60659C15.712 6.37156 14.0755 6.16928 13.0766 6.87063C12.9228 6.9784 12.9493 7.12762 13.1197 7.1069C13.6822 7.03975 14.9344 6.88928 15.1574 7.17529Z" fill="#FF9900"/>
<path fill-rule="evenodd" clip-rule="evenodd" d="M12.6311 5.06687L14.4474 0.443864C14.4856 0.350185 14.5051 0.284278 14.5051 0.245729C14.5051 0.179822 14.4665 0.146662 14.3894 0.146662H13.9272C13.8389 0.146662 13.7788 0.160755 13.7453 0.188113C13.7121 0.215885 13.6794 0.276403 13.6462 0.370081L12.5316 3.57298L11.3759 0.370081C11.3428 0.276403 11.31 0.215885 11.2769 0.188113C11.2437 0.160755 11.1832 0.146662 11.0949 0.146662H10.5996C10.5225 0.146662 10.4839 0.179822 10.4839 0.245729C10.4839 0.284278 10.503 0.350185 10.5415 0.443864L12.1349 4.3734L11.9782 4.79454C11.8845 5.05899 11.7801 5.24055 11.6644 5.33962C11.5488 5.43868 11.3863 5.48801 11.1774 5.48801C11.0837 5.48801 11.0095 5.48221 10.9548 5.47143C10.8997 5.46065 10.8582 5.45485 10.8309 5.45485C10.7484 5.45485 10.7069 5.50708 10.7069 5.61153V5.82625C10.7069 5.90335 10.7206 5.95972 10.7484 5.99537C10.7757 6.03101 10.8197 6.05754 10.8806 6.07371C11.0178 6.11184 11.1749 6.13174 11.3511 6.13174C11.6648 6.13174 11.9194 6.04925 12.1146 5.88386C12.3107 5.7193 12.4827 5.44656 12.6311 5.06687Z" fill="#232F3E"/>
<path fill-rule="evenodd" clip-rule="evenodd" d="M5.85053 1.28263C5.77053 1.01568 5.65654 0.788534 5.50773 0.601591C5.35934 0.414648 5.17779 0.271229 4.96307 0.172161C4.74877 0.0730939 4.50919 0.0237675 4.24473 0.0237675C3.99727 0.0237675 3.75478 0.0701923 3.51851 0.163871C3.28183 0.25755 3.05882 0.395166 2.8495 0.576721L2.80846 0.312265C2.79188 0.20242 2.72846 0.147291 2.6182 0.147291H2.25509C2.14525 0.147291 2.09012 0.20242 2.09012 0.312265V5.86833C2.09012 5.97858 2.14525 6.0333 2.25509 6.0333H2.74214C2.8524 6.0333 2.90711 5.97817 2.90711 5.86833V3.93672C3.26483 4.26128 3.69136 4.42377 4.1867 4.42377C4.45613 4.42377 4.7011 4.36988 4.92121 4.26294C5.14131 4.15558 5.32825 4.00553 5.48245 3.81278C5.63665 3.62045 5.75644 3.38667 5.84141 3.11102C5.9268 2.83579 5.96951 2.52739 5.96951 2.18625C5.97033 1.85092 5.93012 1.54957 5.85053 1.28263ZM3.99727 3.76304C3.62255 3.76304 3.25944 3.63123 2.90753 3.36677V1.06377C3.25406 0.810503 3.62297 0.684078 4.01385 0.684078C4.76245 0.684078 5.13675 1.1989 5.13675 2.2277C5.13634 3.25154 4.75665 3.76304 3.99727 3.76304Z" fill="#232F3E"/>
<path fill-rule="evenodd" clip-rule="evenodd" d="M9.57329 0.348267C9.32542 0.133967 8.94034 0.0266094 8.41765 0.0266094C8.15899 0.0266094 7.90034 0.0502364 7.64169 0.0966612C7.38262 0.143501 7.16542 0.205262 6.98925 0.282361C6.92335 0.310133 6.87899 0.338734 6.85703 0.368993C6.83506 0.399252 6.82387 0.453138 6.82387 0.529822V0.752413C6.82387 0.85148 6.85951 0.901221 6.93122 0.901221C6.95319 0.901221 6.97682 0.897076 7.00169 0.888786C7.02656 0.880495 7.04728 0.873863 7.06345 0.86806C7.48749 0.741635 7.89164 0.678216 8.27713 0.678216C8.60708 0.678216 8.83837 0.738734 8.9706 0.860185C9.10283 0.981221 9.16873 1.19013 9.16873 1.48733V2.032C8.78366 1.93832 8.43671 1.89189 8.12832 1.89189C7.64418 1.89189 7.2591 2.01169 6.97267 2.25086C6.68666 2.49003 6.54324 2.81086 6.54324 3.21252C6.54324 3.58723 6.65889 3.88526 6.89019 4.10827C7.12107 4.33127 7.43485 4.44236 7.83112 4.44236C8.0678 4.44236 8.30573 4.39552 8.54531 4.30226C8.7849 4.20899 9.00335 4.07635 9.20148 3.90599L9.24293 4.17832C9.25951 4.28278 9.32003 4.335 9.4249 4.335H9.77972C9.88956 4.335 9.94511 4.27987 9.94511 4.17003V1.34723C9.94469 0.895832 9.82075 0.562982 9.57329 0.348267ZM9.16873 3.40319C8.98718 3.54081 8.79734 3.64526 8.5992 3.71697C8.40107 3.78868 8.21122 3.82433 8.02967 3.82433C7.81495 3.82433 7.64998 3.76796 7.53433 3.65521C7.41868 3.54246 7.36107 3.38164 7.36107 3.17231C7.36107 2.69355 7.67195 2.45397 8.29371 2.45397C8.43671 2.45397 8.58386 2.46392 8.73516 2.48298C8.88645 2.50246 9.03112 2.52858 9.16873 2.56132V3.40319Z" fill="#232F3E"/>
</svg>
