<svg width="32" height="32" viewBox="0 0 32 32" fill="none" xmlns="http://www.w3.org/2000/svg">
<path d="M9.979 12.4646H3.979V6.4646" stroke="#EC8E00" stroke-width="2" stroke-linecap="round" stroke-linejoin="round"/>
<path d="M23.7782 8.22183C22.7568 7.20038 21.5442 6.39013 20.2096 5.83733C18.875 5.28452 17.4446 5 16.0001 5C14.5555 5 13.1251 5.28452 11.7905 5.83733C10.456 6.39013 9.24333 7.20038 8.22189 8.22183L3.97925 12.4645" stroke="#EC8E00" stroke-width="2" stroke-linecap="round" stroke-linejoin="round"/>
<path d="M22.021 19.5354H28.021V25.5354" stroke="#EC8E00" stroke-width="2" stroke-linecap="round" stroke-linejoin="round"/>
<path d="M8.22192 23.7783C9.24337 24.7997 10.456 25.61 11.7906 26.1628C13.1252 26.7156 14.5556 27.0001 16.0001 27.0001C17.4446 27.0001 18.875 26.7156 20.2096 26.1628C21.5442 25.61 22.7568 24.7997 23.7783 23.7783L28.0209 19.5356" stroke="#EC8E00" stroke-width="2" stroke-linecap="round" stroke-linejoin="round"/>
</svg>
