<svg width="20" height="20" viewBox="0 0 20 20" fill="none" xmlns="http://www.w3.org/2000/svg">
<path d="M4.39107 8.12501C4.39004 7.38377 4.53572 6.64965 4.81973 5.96497C5.10374 5.2803 5.52045 4.6586 6.04585 4.13573C6.57125 3.61285 7.19494 3.19914 7.88098 2.91843C8.56701 2.63772 9.30182 2.49557 10.0431 2.50017C13.136 2.52316 15.61 5.09402 15.61 8.19563V8.75001C15.61 11.5481 16.1954 13.1718 16.711 14.0592C16.7665 14.1541 16.7961 14.2619 16.7967 14.3718C16.7973 14.4816 16.7689 14.5897 16.7143 14.6852C16.6598 14.7806 16.5811 14.8599 16.4861 14.9152C16.3911 14.9705 16.2832 14.9997 16.1734 15H3.82706C3.71715 14.9997 3.60926 14.9705 3.51428 14.9152C3.41929 14.8599 3.34057 14.7805 3.28605 14.6851C3.23153 14.5897 3.20314 14.4815 3.20374 14.3716C3.20435 14.2617 3.23393 14.1539 3.2895 14.0591C3.80539 13.1716 4.39107 11.548 4.39107 8.75001L4.39107 8.12501Z" stroke="#282C44" stroke-width="1.875" stroke-linecap="round" stroke-linejoin="round"/>
<path d="M7.5 15V15.625C7.5 16.288 7.76339 16.9239 8.23223 17.3928C8.70107 17.8616 9.33696 18.125 10 18.125C10.663 18.125 11.2989 17.8616 11.7678 17.3928C12.2366 16.9239 12.5 16.288 12.5 15.625V15" stroke="#282C44" stroke-width="1.875" stroke-linecap="round" stroke-linejoin="round"/>
</svg>
