<svg width="32" height="32" viewBox="0 0 32 32" fill="none" xmlns="http://www.w3.org/2000/svg">
<path opacity="0.2" d="M16 20C20.4183 20 24 16.4183 24 12C24 7.58172 20.4183 4 16 4C11.5817 4 8 7.58172 8 12C8 16.4183 11.5817 20 16 20Z" fill="#9395A1"/>
<path d="M22 7H28" stroke="#9395A1" stroke-width="2" stroke-linecap="round" stroke-linejoin="round"/>
<path d="M25 4V10" stroke="#9395A1" stroke-width="2" stroke-linecap="round" stroke-linejoin="round"/>
<path d="M3.87363 26.9988C5.10308 24.8708 6.87089 23.1037 8.99948 21.8752C11.1281 20.6467 13.5425 20 16.0001 20C18.4578 20 20.8722 20.6468 23.0008 21.8754C25.1293 23.1039 26.8971 24.871 28.1265 26.9991" stroke="#9395A1" stroke-width="2" stroke-linecap="round" stroke-linejoin="round"/>
<path d="M23.5064 14.7728C22.9717 16.2167 22.0314 17.4754 20.7986 18.3979C19.5658 19.3203 18.0929 19.8672 16.5568 19.9728C15.0208 20.0784 13.4869 19.7383 12.1394 18.9933C10.792 18.2483 9.6883 17.1301 8.96095 15.773C8.23361 14.416 7.91354 12.8778 8.03921 11.3432C8.16488 9.80864 8.73093 8.34301 9.66938 7.12236C10.6078 5.90172 11.8787 4.97798 13.3294 4.46212C14.7801 3.94627 16.3489 3.86023 17.8473 4.21436" stroke="#9395A1" stroke-width="2" stroke-linecap="round" stroke-linejoin="round"/>
</svg>
