<svg width="96" height="51" viewBox="0 0 96 51" fill="none" xmlns="http://www.w3.org/2000/svg">
<g opacity="0.3">
<path d="M73.8614 8.30484L39.5642 1.04659C38.1132 0.739596 36.6749 1.67577 36.3679 3.12683L35.7163 7.31422L75.2895 15.6885L75.9411 11.5012C76.2481 10.0506 75.3125 8.61193 73.8614 8.30484Z" fill="white"/>
<path d="M59.4389 16.5765C59.0383 15.1339 57.5307 14.2812 56.0885 14.6811L49.5777 16.4886L34.2287 13.2402L32.5406 21.2161L21.9935 24.1435C20.5514 24.5436 19.6987 26.0512 20.0987 27.4934L26.0426 48.9124C26.4432 50.3545 27.9509 51.2078 29.393 50.8072L63.488 41.3455C64.93 40.9449 65.7828 39.4378 65.3828 37.9951L64.3625 34.3181L68.1864 35.1265C69.6375 35.4341 71.0757 34.4979 71.3827 33.0468L73.802 21.6146L60.0283 18.7L59.4389 16.5765ZM63.3764 27.4626L64.2196 23.4774C64.3463 22.8807 64.9379 22.4958 65.5345 22.6218L69.5197 23.4656C70.1169 23.5922 70.5018 24.1832 70.3758 24.7805L69.5326 28.7657C69.4059 29.3624 68.8144 29.7478 68.2177 29.6212L64.2325 28.778C63.6347 28.6509 63.2498 28.0592 63.3764 27.4626ZM22.5868 26.281L32.0222 23.6634L54.285 17.4854L56.6806 16.8198C56.7244 16.808 56.768 16.8024 56.8107 16.8024C57.0028 16.8024 57.2326 16.9285 57.2997 17.17L57.581 18.1829L58.4623 21.3584L23.3992 31.0886L22.2366 26.9006C22.1638 26.6378 22.3241 26.3538 22.5868 26.281ZM63.2447 38.5878C63.2896 38.7503 63.2425 38.8847 63.1949 38.9688C63.1478 39.0528 63.0571 39.1627 62.8946 39.2074L28.8002 48.6692C28.7571 48.681 28.7128 48.6871 28.6702 48.6871C28.478 48.6871 28.2483 48.5605 28.1811 48.319L24.7142 35.8256L59.7773 26.0949L61.9158 33.8003L63.2447 38.5878Z" fill="white"/>
<path d="M34.3086 39.4427C34.145 38.8544 33.5309 38.5071 32.9427 38.6701L28.9609 39.7755C28.3732 39.9386 28.0253 40.5532 28.1889 41.1415L29.2937 45.1227C29.4573 45.711 30.0714 46.0583 30.6597 45.8947L34.6414 44.7899C35.2297 44.6268 35.5771 44.0122 35.414 43.4239L34.3086 39.4427Z" fill="white"/>
</g>
</svg>
