<?xml version="1.0" encoding="UTF-8"?>
<svg width="20px" height="20px" viewBox="0 0 20 20" version="1.1" xmlns="http://www.w3.org/2000/svg" xmlns:xlink="http://www.w3.org/1999/xlink">
    <title>eye_close</title>
    <g id="Page-1" stroke="none" stroke-width="1" fill="none" fill-rule="evenodd">
        <g id="eye_close">
            <rect id="Rectangle" x="0" y="0" width="20" height="20"></rect>
            <path d="M5.06237309,4.12181823 L6.15065487,5.21103246 C5.31660919,5.71706549 4.52429814,6.38145286 3.77599187,7.17964222 C3.12541655,7.87358574 2.55655037,8.61963599 2.0750155,9.36523459 L2.02233416,9.44730953 L2.02233416,9.44730953 L1.97188875,9.52688578 L1.79258788,9.81866169 L1.686,9.999 L1.79258961,10.1813472 L1.97189062,10.4731264 L2.07501745,10.6347794 C2.55655255,11.3803862 3.12541899,12.1264446 3.77599456,12.8203956 C5.6000474,14.7660627 7.68556603,15.9167 9.99967,15.9167 C11.7919918,15.9167 13.4471842,15.2264549 14.9499721,14.0111867 L16.0154972,15.0782816 C14.2363469,16.5561223 12.2278113,17.4167 9.99967,17.4167 C7.20961022,17.4167 4.76388123,16.0673248 2.68168594,13.8463044 C2.08450988,13.2093131 1.5526616,12.5361691 1.08665512,11.8567383 L0.814956364,11.4485644 L0.594863442,11.0991289 L0.545735626,11.0184892 L0.545735626,11.0184892 L0.498972898,10.9406881 L0.335642088,10.6593798 L0.300756715,10.5969042 L0.300756715,10.5969042 L0.268257197,10.5377201 L0.162186882,10.3354087 C0.0566145435,10.1242629 0.0566150654,9.87573381 0.162188291,9.66458843 L0.185109814,9.61932574 L0.185109814,9.61932574 L0.210431036,9.57046961 L0.335643686,9.34062039 L0.372911485,9.27492933 L0.372911485,9.27492933 L0.412558216,9.20609773 L0.594865244,8.90087562 L0.814958311,8.55144354 C1.34253759,7.73455073 1.9650771,6.91810957 2.68168863,6.15372778 C3.42874932,5.35686705 4.22260645,4.67220926 5.06237309,4.12181823 Z M9.99967,2.58337 C12.6995917,2.58337 15.0822923,3.85000083 17.1283478,5.95540065 C17.8502742,6.69826598 18.4854246,7.50230548 19.0332009,8.32146314 C19.1850179,8.54849389 19.3199596,8.76100999 19.437994,8.95564271 L19.5503914,9.14418953 L19.7413432,9.48252196 L19.8340784,9.65857361 C19.9245336,9.83549024 19.9403943,10.0394653 19.8814602,10.2259616 L19.8371227,10.3354055 L19.7310535,10.537717 L19.5867556,10.7939009 L19.4044504,11.0991261 L19.1843594,11.4485618 C18.6567849,12.2654632 18.03425,13.0819129 17.3176425,13.8463028 L17.116008,14.05537 L16.0566147,12.9952563 C16.1124268,12.9377081 16.1679992,12.8794185 16.223331,12.8203972 C16.8739025,12.1264465 17.4427644,11.3803884 17.924295,10.6347819 L17.9769759,10.5527061 L17.9769759,10.5527061 L18.0274208,10.473129 L18.20672,10.18135 L18.312,9.999 L18.2512416,9.89396386 L18.0402693,9.54687774 L17.7863008,9.15527369 C17.286278,8.40752777 16.7066556,7.67378153 16.0526355,7.00079205 C14.264434,5.16072502 12.2377863,4.08337 9.99967,4.08337 C9.16246156,4.08337 8.35517244,4.23397338 7.57935961,4.51834106 L6.42724371,3.36716684 C7.54643959,2.85936615 8.7378405,2.58337 9.99967,2.58337 Z M8.21945847,7.28070519 L9.32471574,8.38504378 C8.69347956,8.64930272 8.25,9.27286245 8.25,10 C8.25,10.9664904 9.03350748,11.75 10,11.75 C10.7267525,11.75 11.350046,11.3069752 11.6145429,10.6762631 L12.7192923,11.7805371 C12.1386261,12.6655448 11.1375612,13.25 10,13.25 C8.20507943,13.25 6.75,11.7949166 6.75,10 C6.75,8.86243251 7.33445117,7.86136922 8.21945847,7.28070519 Z M10,6.75 C11.7949166,6.75 13.25,8.20507943 13.25,10 L13.244008,10.18337 L9.81457016,6.75520123 C9.87594057,6.75174924 9.93776601,6.75 10,6.75 Z" id="Combined-Shape" fill="#CACCCF" fill-rule="nonzero"></path>
            <polygon id="Line-4" fill="#CACCCF" fill-rule="nonzero" points="1.43933983 2.5 2.5 1.43933983 18.5606602 17.5 17.5 18.5606602"></polygon>
        </g>
    </g>
</svg>