<svg width="80" height="120" viewBox="0 0 80 120" fill="none" xmlns="http://www.w3.org/2000/svg">
<rect width="80" height="120" fill="white"/>
<g clip-path="url(#clip0)">
<path d="M25.9202 49.5085C25.5133 49.5085 25.1839 49.838 25.1839 50.2449V65.3072C25.1839 66.3277 24.7964 67.2965 24.0988 68.0393C23.4012 68.7756 22.4582 69.2148 21.4506 69.2794C20.2686 69.3505 19.1965 68.9952 18.4343 68.2718C18.0661 67.9231 17.7819 67.5032 17.5882 67.0123C17.375 66.4892 17.2717 65.9014 17.2781 65.262C17.2781 65.249 17.2781 65.2361 17.2781 65.2232L17.2329 64.1252C17.2394 63.3049 17.0973 62.5363 16.8131 61.8387C16.5354 61.1605 16.1349 60.5663 15.6117 60.069C15.0756 59.5652 14.4427 59.1841 13.7257 58.9386C13.0152 58.6932 12.2466 58.5963 11.4521 58.6415C10.0635 58.7255 8.77814 59.3262 7.82221 60.3402C6.85337 61.3543 6.32373 62.6848 6.32373 64.08V79.1423C6.32373 79.5492 6.65314 79.8786 7.06005 79.8786C7.46697 79.8786 7.79637 79.5492 7.79637 79.1423V64.08C7.79637 63.0595 8.18391 62.0906 8.88148 61.3478C9.57905 60.6115 10.5221 60.1723 11.5297 60.1077C12.731 60.0367 13.8161 60.4048 14.5912 61.1347C15.3598 61.8645 15.7603 62.898 15.7538 64.1252C15.7538 64.1381 15.7538 64.151 15.7538 64.1639L15.799 65.262C15.7926 66.0887 15.9347 66.8638 16.2189 67.5614C16.4966 68.246 16.8971 68.8467 17.4202 69.3376C18.4795 70.3387 19.9392 70.8425 21.5346 70.7456C22.9233 70.6617 24.2086 70.061 25.1645 69.0469C26.1269 68.0329 26.6566 66.7023 26.6566 65.3007V50.2449C26.6566 49.838 26.3271 49.5085 25.9202 49.5085Z" fill="url(#paint0_linear)"/>
<path d="M39.2082 59.9248H39.1759C38.7819 59.9248 38.459 60.2477 38.459 60.6417V65.2922C38.459 66.3644 38.0585 67.372 37.3416 68.1148C36.6505 68.8317 35.7204 69.258 34.7257 69.3161C33.5243 69.3872 32.4392 69.0255 31.6642 68.2892C30.8891 67.5528 30.4822 66.5194 30.4886 65.2987C30.4886 65.2922 30.4757 61.7914 30.4693 60.6353C30.4693 60.2413 30.1463 59.9183 29.7523 59.9183C29.3583 59.9183 29.0354 60.2413 29.0354 60.6353V65.2987C29.0289 66.1189 29.171 66.8876 29.4552 67.5851C29.7329 68.2633 30.1334 68.8575 30.6566 69.3549C31.1927 69.8587 31.8256 70.2398 32.5426 70.4852C33.1368 70.6854 33.7698 70.7888 34.4286 70.7888C34.5578 70.7888 34.687 70.7823 34.8161 70.7759C36.2888 70.6854 37.6387 70.0202 38.6076 68.8963C39.4601 67.9081 39.9316 66.6163 39.9316 65.2664V60.6288C39.9316 60.2477 39.6087 59.9248 39.2082 59.9248Z" fill="url(#paint1_linear)"/>
<path d="M72.3876 49.4421C71.9807 49.4421 71.6513 49.7715 71.6513 50.1785V65.3054C71.6513 66.3259 71.2637 67.2947 70.5661 68.0375C69.8686 68.7738 68.9256 69.213 67.918 69.2776C66.736 69.3487 65.6638 68.9934 64.9016 68.27C64.5335 67.9212 64.2493 67.5014 64.0555 67.0105C63.8424 66.4873 63.739 65.8996 63.7455 65.2601C63.7455 65.2472 63.7455 65.2343 63.7455 65.2278L63.7067 63.9813C63.6034 61.0037 61.1877 58.6655 58.2101 58.6655C55.155 58.6655 52.6748 61.1458 52.6748 64.2009C52.6748 67.256 55.155 69.7362 58.2101 69.7362C58.6235 69.7362 58.9658 69.4003 58.9658 68.9805C58.9658 68.5607 58.63 68.2248 58.2101 68.2248C55.9883 68.2248 54.1862 66.4163 54.1862 64.2009C54.1862 61.9854 55.9947 60.1769 58.2101 60.1769C60.2899 60.1769 62.0468 61.7981 62.2212 63.865V63.8715C62.2276 63.9619 62.2276 64.0459 62.2276 64.1298C62.2276 64.1427 62.2276 64.1557 62.2276 64.1686L62.2728 65.2666C62.2664 66.0934 62.4085 66.8684 62.6927 67.566C62.9704 68.2506 63.3709 68.8513 63.894 69.3422C64.8693 70.2658 66.1805 70.7632 67.6273 70.7632C67.7565 70.7632 67.8857 70.7567 68.0148 70.7503C69.4035 70.6663 70.6889 70.0656 71.6448 69.0516C72.6072 68.0375 73.1368 66.707 73.1368 65.3054V50.1785C73.1239 49.7715 72.7945 49.4421 72.3876 49.4421Z" fill="url(#paint2_linear)"/>
<path d="M51.4024 61.6043C51.2733 61.8498 51.0343 61.9919 50.7565 61.9919H50.7436C50.5046 61.9919 50.2786 61.8756 50.1365 61.6754C50.0008 61.4752 49.8394 61.2878 49.665 61.1264C48.8899 60.3901 47.8048 60.0284 46.6034 60.0994C45.6087 60.1575 44.6787 60.5838 43.9875 61.3008C43.6904 61.6108 43.5354 61.8369 43.5354 62.2179V69.8589C43.5354 70.2077 43.2512 70.4983 42.896 70.4983C42.5407 70.4983 42.2565 70.2141 42.2565 69.8589C42.2565 69.8589 42.2242 64.4204 42.2565 62.1275C42.2565 61.9854 42.263 61.8627 42.263 61.7464C42.2953 61.346 42.4245 60.7065 42.8766 60.2609C43.2706 59.8669 43.7615 59.5504 44.1038 59.3502C44.8337 58.9303 45.6604 58.6784 46.5065 58.6268C47.301 58.5815 48.0696 58.6784 48.7801 58.9174C49.497 59.1629 50.1365 59.5439 50.6661 60.0542C50.918 60.2932 51.1441 60.558 51.3379 60.8422C51.5058 61.0682 51.5252 61.3654 51.4024 61.6043Z" fill="url(#paint3_linear)"/>
<path d="M12.3691 77.6357C12.6921 77.6357 12.8729 77.8295 12.8729 78.0943C12.8729 78.2687 12.7696 78.4108 12.6339 78.456C12.7954 78.4948 12.9246 78.6498 12.9246 78.8565C12.9246 79.1342 12.7244 79.328 12.4143 79.328H11.7749V77.6357H12.3691ZM12.3175 78.3398C12.466 78.3398 12.55 78.2558 12.55 78.1266C12.55 77.9974 12.466 77.9135 12.311 77.9135H12.0849V78.3333H12.3175V78.3398ZM12.3498 79.0567C12.5048 79.0567 12.6016 78.9727 12.6016 78.8371C12.6016 78.7015 12.5177 78.611 12.3562 78.611H12.0914V79.0567H12.3498Z" fill="#0D67BF"/>
<path d="M13.2285 77.6354H13.6096L13.9778 78.3071L14.3459 77.6354H14.7076L14.1263 78.6171V79.3276H13.8034V78.6171L13.2285 77.6354Z" fill="#0D67BF"/>
<path d="M16.2897 78.6947V79.3341H15.9668V77.6418H16.5869C16.9163 77.6418 17.1294 77.8614 17.1294 78.1715C17.1294 78.4815 16.9098 78.7011 16.5869 78.7011H16.2897V78.6947ZM16.5481 78.4105C16.7096 78.4105 16.8065 78.3136 16.8065 78.1715C16.8065 78.0229 16.7096 77.926 16.5481 77.926H16.2962V78.4105H16.5481Z" fill="#0D67BF"/>
<path d="M17.6079 79.3341V77.6418H17.9373V79.3341H17.6079Z" fill="#0D67BF"/>
<path d="M19.623 79.3341L18.8737 78.1327V79.3341H18.5508V77.6418H18.9512L19.6423 78.7657V77.6418H19.9653V79.3341H19.623Z" fill="#0D67BF"/>
<path d="M20.5723 79.3341V77.6418H21.6057V77.9519H20.8888V78.3394H21.5347V78.6365H20.8888V79.0305H21.6057V79.3406H20.5723V79.3341Z" fill="#0D67BF"/>
<path d="M22.9678 79.3341V77.6418H23.2907V79.0176H24.027V79.3341H22.9678Z" fill="#0D67BF"/>
<path d="M25.5135 78.9466H24.8417L24.7061 79.3341H24.3638L24.9967 77.6418H25.3714L26.0043 79.3341H25.6556L25.5135 78.9466ZM24.9515 78.643H25.4101L25.1841 78.0035L24.9515 78.643Z" fill="#0D67BF"/>
<path d="M27.0439 77.6354C27.3669 77.6354 27.5477 77.8291 27.5477 78.094C27.5477 78.2684 27.4444 78.4105 27.3087 78.4557C27.4702 78.4944 27.5994 78.6494 27.5994 78.8561C27.5994 79.1339 27.3992 79.3276 27.0891 79.3276H26.4497V77.6354H27.0439ZM26.9923 78.3394C27.1408 78.3394 27.2248 78.2554 27.2248 78.1263C27.2248 77.9971 27.1408 77.9131 26.9858 77.9131H26.7597V78.3329H26.9923V78.3394ZM27.0246 79.0563C27.1796 79.0563 27.2765 78.9724 27.2765 78.8367C27.2765 78.7011 27.1925 78.6107 27.031 78.6107H26.7662V79.0563H27.0246Z" fill="#0D67BF"/>
<path d="M28.9302 78.1328C28.9108 78.0424 28.8398 77.8938 28.6266 77.8938C28.4716 77.8938 28.3683 77.9971 28.3683 78.1069C28.3683 78.1974 28.4264 78.2749 28.5491 78.3007L28.7816 78.3459C29.0852 78.4041 29.2467 78.6043 29.2467 78.8433C29.2467 79.1016 29.0335 79.3664 28.6525 79.3664C28.2133 79.3664 28.0195 79.0758 27.9937 78.8368L28.2908 78.7528C28.3037 78.9208 28.4199 79.0693 28.6525 79.0693C28.8269 79.0693 28.9237 78.9789 28.9237 78.8626C28.9237 78.7658 28.8527 78.6883 28.7235 78.6624L28.491 78.6172C28.2262 78.5591 28.0582 78.3847 28.0582 78.1328C28.0582 77.8292 28.3231 77.6031 28.6331 77.6031C29.0335 77.6031 29.1886 77.8486 29.2273 78.0424L28.9302 78.1328Z" fill="#0D67BF"/>
</g>
<defs>
<linearGradient id="paint0_linear" x1="13.6957" y1="64.6836" x2="105.967" y2="65.0331" gradientUnits="userSpaceOnUse">
<stop stop-color="#2E7BE6"/>
<stop offset="0.5327" stop-color="#4CF0C7"/>
<stop offset="0.5831" stop-color="#66EEB1"/>
<stop offset="0.6714" stop-color="#8DEC90"/>
<stop offset="0.7588" stop-color="#ABEA76"/>
<stop offset="0.8439" stop-color="#C1E864"/>
<stop offset="0.9255" stop-color="#CFE759"/>
<stop offset="1" stop-color="#D3E755"/>
</linearGradient>
<linearGradient id="paint1_linear" x1="13.6954" y1="65.2761" x2="105.966" y2="65.6256" gradientUnits="userSpaceOnUse">
<stop stop-color="#2E7BE6"/>
<stop offset="0.5327" stop-color="#4CF0C7"/>
<stop offset="0.5831" stop-color="#66EEB1"/>
<stop offset="0.6714" stop-color="#8DEC90"/>
<stop offset="0.7588" stop-color="#ABEA76"/>
<stop offset="0.8439" stop-color="#C1E864"/>
<stop offset="0.9255" stop-color="#CFE759"/>
<stop offset="1" stop-color="#D3E755"/>
</linearGradient>
<linearGradient id="paint2_linear" x1="13.7154" y1="59.8869" x2="105.986" y2="60.2364" gradientUnits="userSpaceOnUse">
<stop stop-color="#2E7BE6"/>
<stop offset="0.5327" stop-color="#4CF0C7"/>
<stop offset="0.5831" stop-color="#66EEB1"/>
<stop offset="0.6714" stop-color="#8DEC90"/>
<stop offset="0.7588" stop-color="#ABEA76"/>
<stop offset="0.8439" stop-color="#C1E864"/>
<stop offset="0.9255" stop-color="#CFE759"/>
<stop offset="1" stop-color="#D3E755"/>
</linearGradient>
<linearGradient id="paint3_linear" x1="13.6982" y1="64.443" x2="105.969" y2="64.7926" gradientUnits="userSpaceOnUse">
<stop stop-color="#2E7BE6"/>
<stop offset="0.5327" stop-color="#4CF0C7"/>
<stop offset="0.5831" stop-color="#66EEB1"/>
<stop offset="0.6714" stop-color="#8DEC90"/>
<stop offset="0.7588" stop-color="#ABEA76"/>
<stop offset="0.8439" stop-color="#C1E864"/>
<stop offset="0.9255" stop-color="#CFE759"/>
<stop offset="1" stop-color="#D3E755"/>
</linearGradient>
<clipPath id="clip0">
<rect width="67.6364" height="31" fill="white" transform="translate(6 49)"/>
</clipPath>
</defs>
</svg>
