<svg width="37" height="37" viewBox="0 0 37 37" fill="none" xmlns="http://www.w3.org/2000/svg">
<path opacity="0.2" d="M3.40088 13.728H32.883L32.8838 27.2144C32.8838 27.5151 32.7644 27.8035 32.5517 28.0162C32.3391 28.2288 32.0507 28.3483 31.7499 28.3483H4.53564C4.2349 28.3483 3.94648 28.2288 3.73383 28.0162C3.52118 27.8035 3.40171 27.5151 3.40171 27.2144L3.40088 13.728Z" fill="#34CBB3"/>
<path d="M31.7501 7.9375H4.53578C3.90953 7.9375 3.40186 8.44518 3.40186 9.07143V27.2143C3.40186 27.8405 3.90953 28.3482 4.53578 28.3482H31.7501C32.3763 28.3482 32.884 27.8405 32.884 27.2143V9.07143C32.884 8.44518 32.3763 7.9375 31.7501 7.9375Z" stroke="#34CBB3" stroke-width="2.26786" stroke-linecap="round" stroke-linejoin="round"/>
<path d="M23.8118 23.8125H28.3475" stroke="#34CBB3" stroke-width="2.26786" stroke-linecap="round" stroke-linejoin="round"/>
<path d="M17.0082 23.8125H19.276" stroke="#34CBB3" stroke-width="2.26786" stroke-linecap="round" stroke-linejoin="round"/>
<path d="M3.40088 13.728H32.883" stroke="#34CBB3" stroke-width="2.26786" stroke-linecap="round" stroke-linejoin="round"/>
</svg>
