<svg width="24" height="24" viewBox="0 0 24 24" fill="none" xmlns="http://www.w3.org/2000/svg">
<rect opacity="0.1" width="24" height="24" rx="8" fill="#D261C7"/>
<path opacity="0.2" d="M6.51538 10.3574H17.4841L17.4844 15.375C17.4844 15.4869 17.44 15.5942 17.3609 15.6733C17.2818 15.7524 17.1745 15.7969 17.0626 15.7969H6.93756C6.82568 15.7969 6.71837 15.7524 6.63925 15.6733C6.56014 15.5942 6.51569 15.4869 6.51569 15.375L6.51538 10.3574Z" fill="#D261C7"/>
<path d="M17.0625 8.20312H6.9375C6.7045 8.20312 6.51562 8.392 6.51562 8.625V15.375C6.51562 15.608 6.7045 15.7969 6.9375 15.7969H17.0625C17.2955 15.7969 17.4844 15.608 17.4844 15.375V8.625C17.4844 8.392 17.2955 8.20312 17.0625 8.20312Z" stroke="#D261C7" stroke-width="1.125" stroke-linecap="round" stroke-linejoin="round"/>
<path d="M14.1091 14.1094H15.7966" stroke="#D261C7" stroke-width="1.125" stroke-linecap="round" stroke-linejoin="round"/>
<path d="M11.5779 14.1094H12.4216" stroke="#D261C7" stroke-width="1.125" stroke-linecap="round" stroke-linejoin="round"/>
<path d="M6.51538 10.3574H17.4841" stroke="#D261C7" stroke-width="1.125" stroke-linecap="round" stroke-linejoin="round"/>
</svg>
