<svg width="12" height="12" viewBox="0 0 12 12" fill="none" xmlns="http://www.w3.org/2000/svg">
<g opacity="0.5">
<path d="M4.5 10.1251H2.25C2.15054 10.1251 2.05516 10.0856 1.98484 10.0153C1.91451 9.94499 1.875 9.84961 1.875 9.75015V7.65548C1.875 7.60623 1.8847 7.55747 1.90355 7.51197C1.92239 7.46648 1.95001 7.42514 1.98484 7.39031L7.60984 1.76531C7.68016 1.69499 7.77554 1.65548 7.875 1.65548C7.97446 1.65548 8.06984 1.69499 8.14016 1.76531L10.2348 3.85998C10.3052 3.93031 10.3447 4.02569 10.3447 4.12515C10.3447 4.22461 10.3052 4.31999 10.2348 4.39031L4.5 10.1251Z" stroke="#24342B" stroke-width="0.75" stroke-linecap="round" stroke-linejoin="round"/>
<path d="M6.375 3L9 5.625" stroke="#24342B" stroke-width="0.75" stroke-linecap="round" stroke-linejoin="round"/>
</g>
</svg>
