<svg width="24" height="24" viewBox="0 0 24 24" fill="none" xmlns="http://www.w3.org/2000/svg">
<rect opacity="0.1" width="24" height="24" rx="8" fill="#D12600"/>
<path d="M5.52036 14.917H8.97821C9.23 14.917 9.43982 14.7155 9.43982 14.4554C9.43982 14.2036 9.23 13.9937 8.97821 13.9937H6.03232V12.4159H8.55857C8.81036 12.4159 9.02018 12.2145 9.02018 11.9627C9.02018 11.7025 8.81036 11.4927 8.55857 11.4927H6.03232V9.96518H8.93625C9.18803 9.96518 9.39786 9.76375 9.39786 9.50357C9.39786 9.25179 9.18803 9.04196 8.93625 9.04196H5.52036C5.22661 9.04196 5 9.26857 5 9.56232V14.3966C5 14.6904 5.22661 14.917 5.52036 14.917Z" fill="#D12600"/>
<path d="M10.6226 14.4554C10.6226 14.7407 10.8408 14.9589 11.1261 14.9589C11.4115 14.9589 11.6381 14.7407 11.6381 14.4554V10.9387L13.0649 13.0789C13.174 13.2468 13.3083 13.3475 13.4929 13.3475C13.6859 13.3475 13.8202 13.2468 13.9293 13.0789L15.3645 10.922V14.447C15.3645 14.7239 15.5995 14.9589 15.8765 14.9589C16.1702 14.9589 16.3968 14.7323 16.3968 14.447V9.52875C16.3968 9.24339 16.1702 9.00839 15.8765 9.00839H15.7674C15.5576 9.00839 15.4065 9.10071 15.2974 9.27696L13.5097 12.0718L11.7304 9.28536C11.6297 9.12589 11.4786 9.00839 11.252 9.00839H11.1429C10.8492 9.00839 10.6226 9.24339 10.6226 9.52875V14.4554Z" fill="#D12600"/>
<path d="M17.9677 14.447C17.9677 14.7323 18.1943 14.9589 18.488 14.9589C18.7734 14.9589 19 14.7323 19 14.447V9.51196C19 9.22661 18.7734 9 18.488 9C18.1943 9 17.9677 9.22661 17.9677 9.51196V14.447Z" fill="#D12600"/>
</svg>
