<svg width="32" height="32" viewBox="0 0 32 32" fill="none" xmlns="http://www.w3.org/2000/svg">
<rect x="0.5" y="0.5" width="31" height="31" rx="15.5" fill="white" stroke="#F3F4F4"/>
<path d="M7.69859 19.9437H12.3408C12.6789 19.9437 12.9606 19.6732 12.9606 19.3239C12.9606 18.9859 12.6789 18.7042 12.3408 18.7042H8.38592V16.5859H11.7775C12.1155 16.5859 12.3972 16.3155 12.3972 15.9775C12.3972 15.6282 12.1155 15.3465 11.7775 15.3465H8.38592V13.2958H12.2845C12.6225 13.2958 12.9042 13.0254 12.9042 12.6761C12.9042 12.338 12.6225 12.0563 12.2845 12.0563H7.69859C7.30423 12.0563 7 12.3606 7 12.7549V19.2451C7 19.6394 7.30423 19.9437 7.69859 19.9437Z" fill="#3483E4"/>
<path d="M14.5484 19.3239C14.5484 19.707 14.8414 20 15.2245 20C15.6076 20 15.9118 19.707 15.9118 19.3239V14.6028L17.8273 17.4761C17.9738 17.7014 18.154 17.8366 18.4019 17.8366C18.6611 17.8366 18.8414 17.7014 18.9879 17.4761L20.9146 14.5803V19.3127C20.9146 19.6845 21.2301 20 21.6019 20C21.9963 20 22.3005 19.6958 22.3005 19.3127V12.7099C22.3005 12.3268 21.9963 12.0113 21.6019 12.0113H21.4555C21.1738 12.0113 20.971 12.1352 20.8245 12.3718L18.4245 16.1239L16.0357 12.3831C15.9005 12.169 15.6977 12.0113 15.3935 12.0113H15.247C14.8526 12.0113 14.5484 12.3268 14.5484 12.7099V19.3239Z" fill="#3483E4"/>
<path d="M24.4094 19.3127C24.4094 19.6958 24.7136 20 25.108 20C25.4911 20 25.7953 19.6958 25.7953 19.3127V12.6873C25.7953 12.3042 25.4911 12 25.108 12C24.7136 12 24.4094 12.3042 24.4094 12.6873V19.3127Z" fill="#3483E4"/>
</svg>
