<svg width="16" height="16" viewBox="0 0 16 16" fill="none" xmlns="http://www.w3.org/2000/svg">
<path d="M1.28809 0.75H14.7124C14.8335 0.75 14.952 0.785171 15.0534 0.851238C15.1549 0.917305 15.235 1.01142 15.284 1.12215C15.333 1.23288 15.3487 1.35546 15.3293 1.47498C15.31 1.5945 15.2563 1.70583 15.1749 1.79542L10.0378 7.44621C9.93319 7.56125 9.87524 7.71115 9.87524 7.86663V12.2905C9.87524 12.3934 9.84984 12.4947 9.80129 12.5854C9.75274 12.6761 9.68254 12.7535 9.59693 12.8105L7.09693 14.4772C7.0028 14.54 6.89341 14.576 6.78042 14.5814C6.66743 14.5869 6.55507 14.5616 6.45533 14.5082C6.35559 14.4548 6.27221 14.3754 6.21408 14.2784C6.15594 14.1813 6.12524 14.0703 6.12524 13.9572V7.86663C6.12524 7.71115 6.06729 7.56125 5.9627 7.44621L0.825624 1.79542C0.744175 1.70583 0.690505 1.5945 0.671135 1.47498C0.651766 1.35546 0.667531 1.23288 0.716515 1.12215C0.765499 1.01142 0.845593 0.917305 0.947061 0.851238C1.04853 0.785171 1.167 0.75 1.28809 0.75V0.75Z" stroke="#2E7BE6" stroke-width="1.25" stroke-linecap="round" stroke-linejoin="round"/>
</svg>
