<svg width="32" height="32" viewBox="0 0 32 32" fill="none" xmlns="http://www.w3.org/2000/svg">
<rect x="0.5" y="0.5" width="31" height="31" rx="15.5" fill="white" stroke="#F3F4F4"/>
<path d="M22.1875 12.625H9.8125C9.50184 12.625 9.25 12.8768 9.25 13.1875V15.4375C9.25 15.7482 9.50184 16 9.8125 16H22.1875C22.4982 16 22.75 15.7482 22.75 15.4375V13.1875C22.75 12.8768 22.4982 12.625 22.1875 12.625Z" stroke="#3483E4" stroke-width="1.125" stroke-linecap="round" stroke-linejoin="round"/>
<path d="M21.625 16V21.0625C21.625 21.2117 21.5657 21.3548 21.4602 21.4602C21.3548 21.5657 21.2117 21.625 21.0625 21.625H10.9375C10.7883 21.625 10.6452 21.5657 10.5398 21.4602C10.4343 21.3548 10.375 21.2117 10.375 21.0625V16" stroke="#3483E4" stroke-width="1.125" stroke-linecap="round" stroke-linejoin="round"/>
<path d="M16 12.625V21.625" stroke="#3483E4" stroke-width="1.125" stroke-linecap="round" stroke-linejoin="round"/>
<path d="M19.182 11.8295C18.3865 12.625 16 12.625 16 12.625C16 12.625 16 10.2385 16.7955 9.44304C17.112 9.12687 17.5412 8.94934 17.9885 8.94946C18.4359 8.94959 18.865 9.12737 19.1813 9.44372C19.4977 9.76007 19.6754 10.1891 19.6756 10.6365C19.6757 11.0839 19.4982 11.513 19.182 11.8295V11.8295Z" stroke="#3483E4" stroke-width="1.125" stroke-linecap="round" stroke-linejoin="round"/>
<path d="M12.818 11.8295C13.6135 12.625 16 12.625 16 12.625C16 12.625 16 10.2385 15.2045 9.44304C14.888 9.12687 14.4588 8.94934 14.0115 8.94946C13.5641 8.94959 13.135 9.12737 12.8187 9.44372C12.5023 9.76007 12.3246 10.1891 12.3244 10.6365C12.3243 11.0839 12.5018 11.513 12.818 11.8295V11.8295Z" stroke="#3483E4" stroke-width="1.125" stroke-linecap="round" stroke-linejoin="round"/>
<path opacity="0.2" d="M21.625 16V21.0625C21.625 21.2117 21.5657 21.3548 21.4602 21.4602C21.3548 21.5657 21.2117 21.625 21.0625 21.625H10.9375C10.7883 21.625 10.6452 21.5657 10.5398 21.4602C10.4343 21.3548 10.375 21.2117 10.375 21.0625V16H21.625Z" fill="#3483E4"/>
</svg>
