<svg width="1440" height="980" viewBox="0 0 1440 980" fill="none" xmlns="http://www.w3.org/2000/svg">
<mask id="mask0" mask-type="alpha" maskUnits="userSpaceOnUse" x="0" y="0" width="1440" height="980">
<path d="M0.5 0.5H1439.5V979.5H0.5V0.5Z" fill="#F7F8FB" stroke="url(#paint0_linear)"/>
</mask>
<g mask="url(#mask0)">
<path d="M0.5 0.5H1439.5V979.5H0.5V0.5Z" fill="white" stroke="url(#paint1_linear)"/>
<g opacity="0.2">
<path d="M688.802 -20.2601C899.308 211.201 1082.39 555.37 1139.24 826.845C1196.4 1099.77 1116.39 1253.21 943.203 1205.04C769.301 1156.67 529.611 911.773 356.205 604.885C183.449 299.155 104.803 -16.109 162.554 -171.659C219.319 -324.54 400.417 -296.284 608.415 -102.024C635.149 -77.0511 662.055 -49.6686 688.802 -20.2601Z" stroke="url(#paint2_linear)" stroke-width="0.673971" stroke-miterlimit="10"/>
<path d="M703.407 -19.0553C913.404 217.96 1092.1 566.916 1143.05 839.821C1194.27 1114.18 1107.81 1265.42 931.134 1212.62C753.723 1159.61 514.106 908.383 344.315 596.96C175.173 286.701 103.029 -30.5552 166.673 -184.503C229.23 -335.809 414.592 -302.706 623.033 -102.944C649.827 -77.2631 676.726 -49.1722 703.407 -19.0553Z" stroke="url(#paint3_linear)" stroke-width="0.68324" stroke-miterlimit="10"/>
<path d="M718.389 -17.4597C927.704 225.097 1101.76 578.714 1146.62 852.89C1191.71 1128.52 1098.67 1277.39 918.521 1219.88C737.628 1162.13 498.256 904.57 332.325 588.711C167.017 274.036 101.606 -45.0409 171.267 -197.221C239.737 -346.792 429.349 -308.737 638.095 -103.461C664.915 -77.0844 691.794 -48.2784 718.389 -17.4597Z" stroke="url(#paint4_linear)" stroke-width="0.692509" stroke-miterlimit="10"/>
<path d="M733.742 -15.4668C942.203 232.612 1111.37 590.77 1149.92 866.045C1188.67 1142.79 1088.93 1289.1 905.353 1226.79C721.011 1164.21 482.069 900.333 320.216 580.137C158.973 261.146 100.527 -59.5729 176.325 -209.833C250.82 -357.517 444.669 -314.398 653.574 -103.593C680.42 -76.5016 707.253 -46.9872 733.742 -15.4668Z" stroke="url(#paint5_linear)" stroke-width="0.70244" stroke-miterlimit="10"/>
<path d="M749.466 -13.0635C956.901 240.516 1120.9 603.071 1152.94 879.286C1185.15 1156.97 1078.61 1300.56 891.629 1233.35C703.877 1165.86 465.551 895.659 308.015 571.246C151.068 248.051 99.8384 -74.1182 181.887 -222.293C262.525 -367.931 460.592 -319.621 669.503 -103.302C696.343 -75.5019 723.11 -45.2791 749.466 -13.0635Z" stroke="url(#paint6_linear)" stroke-width="0.71237" stroke-miterlimit="10"/>
<path d="M765.56 -10.2366C971.784 248.812 1130.37 615.63 1155.69 892.6C1181.14 1171.05 1067.68 1311.73 877.335 1239.53C686.213 1167.03 448.694 890.548 295.707 562.023C143.295 234.743 99.5136 -88.6834 187.924 -234.607C274.826 -378.028 477.07 -324.434 685.842 -102.593C712.682 -74.0785 739.356 -43.1474 765.56 -10.2366Z" stroke="url(#paint7_linear)" stroke-width="0.722301" stroke-miterlimit="10"/>
<path d="M782.026 -6.97949C986.859 257.498 1139.75 628.44 1158.15 905.993C1176.64 1185.02 1056.13 1322.62 862.479 1245.34C668.027 1167.75 431.515 885 283.314 552.496C135.676 221.244 99.5873 -103.242 194.486 -246.742C287.756 -387.787 494.165 -328.791 702.639 -101.435C729.433 -72.2183 756.001 -40.5854 782.026 -6.97949Z" stroke="url(#paint8_linear)" stroke-width="0.732232" stroke-miterlimit="10"/>
<path d="M798.862 -3.28493C1002.11 266.588 1149.05 641.497 1160.3 919.434C1171.61 1198.86 1043.96 1333.17 847.046 1250.73C649.317 1167.96 414.003 878.969 270.841 542.612C128.221 207.533 100.064 -117.8 201.563 -258.712C301.322 -397.207 511.848 -332.697 719.866 -99.8389C746.6 -69.9075 773.035 -37.5727 798.862 -3.28493Z" stroke="url(#paint9_linear)" stroke-width="0.742825" stroke-miterlimit="10"/>
<path d="M816.068 0.866051C1017.54 276.089 1158.24 654.797 1162.15 932.939C1166.08 1212.56 1031.17 1343.41 831.044 1255.72C630.091 1167.68 396.18 872.487 258.301 532.416C120.931 193.63 100.957 -132.346 209.163 -270.484C315.515 -406.251 530.134 -336.126 737.529 -97.7734C764.183 -67.1335 790.467 -34.1037 816.068 0.866051Z" stroke="url(#paint10_linear)" stroke-width="0.753418" stroke-miterlimit="10"/>
<path d="M833.633 5.46754C1033.14 285.993 1167.31 668.336 1163.67 946.485C1160.01 1226.12 1017.74 1353.3 814.446 1260.29C610.322 1166.88 378.027 865.536 245.675 521.89C113.821 179.542 102.274 -146.851 217.3 -282.036C330.359 -414.904 549.022 -339.059 755.623 -95.2309C782.178 -63.8959 808.283 -30.1708 833.633 5.46754Z" stroke="url(#paint11_linear)" stroke-width="0.764011" stroke-miterlimit="10"/>
<path d="M851.562 10.5454C1048.89 296.315 1176.28 682.12 1164.87 960.07C1153.39 1239.5 1003.65 1362.83 797.267 1264.4C590.024 1165.56 359.57 858.094 232.998 511.025C106.91 165.261 104.03 -161.324 225.987 -293.377C345.852 -423.173 568.521 -341.489 774.161 -92.2121C800.591 -60.1753 826.49 -25.7683 851.562 10.5454Z" stroke="url(#paint12_linear)" stroke-width="0.774604" stroke-miterlimit="10"/>
<path d="M869.853 16.0998C1064.81 307.053 1185.11 696.129 1165.72 973.675C1146.23 1252.7 988.917 1371.97 779.49 1268.04C569.201 1163.68 340.793 850.156 220.266 499.823C100.189 150.801 106.227 -175.744 235.221 -304.48C362.005 -431.012 588.619 -343.396 793.121 -88.6967C819.405 -55.9648 845.086 -20.8693 869.853 16.0998Z" stroke="url(#paint13_linear)" stroke-width="0.785196" stroke-miterlimit="10"/>
<path d="M888.498 22.1379C1080.86 318.215 1193.8 710.377 1166.22 987.301C1138.5 1265.7 973.519 1380.71 761.125 1271.21C547.851 1161.26 321.726 841.715 207.489 488.277C93.6818 136.17 108.889 -190.097 245.027 -315.331C378.829 -438.42 609.343 -344.759 812.52 -84.6714C838.638 -51.2442 864.061 -15.4801 888.498 22.1379Z" stroke="url(#paint14_linear)" stroke-width="0.796451" stroke-miterlimit="10"/>
<path d="M907.498 28.679C1097.06 329.801 1202.34 724.849 1166.36 1000.94C1130.19 1278.5 957.45 1389.05 742.157 1273.89C525.976 1158.26 302.354 832.777 194.671 476.4C87.3983 121.367 112.02 -204.371 255.401 -325.917C396.319 -445.378 630.68 -345.574 832.348 -80.1363C858.268 -46.014 883.413 -9.58116 907.498 28.679Z" stroke="url(#paint15_linear)" stroke-width="0.807706" stroke-miterlimit="10"/>
<path d="M926.851 35.7233C1113.4 341.817 1210.72 739.547 1166.14 1014.57C1121.32 1291.06 940.707 1396.94 722.594 1276.06C503.573 1154.67 282.692 823.31 181.834 464.178C81.3476 106.404 115.629 -218.559 266.352 -336.219C414.487 -451.86 652.621 -345.812 852.601 -75.0649C878.302 -40.2607 903.149 -3.16581 926.851 35.7233Z" stroke="url(#paint16_linear)" stroke-width="0.818961" stroke-miterlimit="10"/>
<path d="M946.54 43.2903C1129.86 354.277 1218.92 754.469 1165.52 1028.2C1111.83 1303.39 923.282 1404.39 702.42 1277.7C480.646 1150.5 262.737 813.332 168.964 451.626C75.5411 91.2827 119.733 -232.647 277.898 -346.223C433.348 -457.852 675.197 -345.461 873.283 -69.4508C898.739 -33.978 923.249 3.77232 946.54 43.2903Z" stroke="url(#paint17_linear)" stroke-width="0.830216" stroke-miterlimit="10"/>
<path d="M966.574 51.3742C1146.43 367.161 1226.95 769.597 1164.51 1041.79C1101.75 1315.45 905.161 1411.36 681.632 1278.8C457.182 1145.7 242.498 802.819 156.08 438.729C69.9864 76.0093 124.341 -246.616 290.033 -355.915C452.892 -463.34 698.375 -344.501 894.377 -63.2869C919.568 -27.1388 943.726 11.2537 966.574 51.3742Z" stroke="url(#paint18_linear)" stroke-width="0.842133" stroke-miterlimit="10"/>
<path d="M986.945 59.9942C1163.1 380.488 1234.79 784.937 1163.1 1055.37C1091.05 1327.24 886.339 1417.85 660.241 1279.35C433.21 1140.28 221.988 791.763 143.197 425.488C64.7035 60.5967 129.459 -260.46 302.778 -365.276C473.131 -468.299 722.183 -342.925 915.894 -56.5605C940.793 -19.7502 964.561 19.2713 986.945 59.9942Z" stroke="url(#paint19_linear)" stroke-width="0.853388" stroke-miterlimit="10"/>
<path d="M1007.64 69.1569C1179.87 394.259 1242.41 800.475 1161.28 1068.89C1079.73 1338.74 866.822 1423.83 638.241 1279.31C408.713 1134.2 201.219 780.164 130.319 411.902C59.6913 45.0449 135.099 -274.158 316.138 -374.294C494.078 -472.715 746.606 -340.714 937.827 -49.2581C962.402 -11.7924 985.76 27.8514 1007.64 69.1569Z" stroke="url(#paint20_linear)" stroke-width="0.865967" stroke-miterlimit="10"/>
<path d="M1028.67 78.8759C1196.74 408.473 1249.82 816.226 1159.04 1082.37C1067.77 1349.93 846.596 1429.29 615.631 1278.7C383.714 1127.5 180.185 768.022 117.462 397.999C54.9772 29.3609 141.276 -287.704 330.12 -382.953C515.727 -476.568 771.658 -337.848 960.171 -41.3731C984.396 -3.26522 1007.31 36.9943 1028.67 78.8759Z" stroke="url(#paint21_linear)" stroke-width="0.877884" stroke-miterlimit="10"/>
<path d="M1050.01 89.1508C1213.68 423.131 1257 832.161 1156.36 1095.78C1055.18 1360.8 825.649 1434.19 592.4 1277.48C358.185 1120.12 158.9 755.31 104.625 383.739C50.5551 13.5641 147.996 -301.077 344.726 -391.229C538.085 -479.839 797.319 -334.306 982.913 -32.8856C1006.77 5.8578 1029.21 46.7131 1050.01 89.1508Z" stroke="url(#paint22_linear)" stroke-width="0.889801" stroke-miterlimit="10"/>
<path d="M1071.66 99.9955C1230.69 438.246 1263.95 848.289 1153.24 1109.11C1041.94 1371.33 803.993 1438.54 568.566 1275.63C332.166 1112.04 137.377 742.029 91.8273 369.14C46.4501 -2.35152 155.272 -314.265 359.966 -399.114C561.151 -482.506 823.596 -330.082 1006.06 -23.7954C1029.51 15.5703 1051.46 57.0149 1071.66 99.9955Z" stroke="url(#paint23_linear)" stroke-width="0.90238" stroke-miterlimit="10"/>
<path d="M1093.62 111.416C1247.75 453.804 1270.64 864.595 1149.66 1122.35C1028.03 1381.49 781.609 1442.31 544.11 1273.14C305.632 1103.28 115.615 728.179 79.0699 354.198C42.6636 -18.3667 163.118 -327.255 375.849 -406.589C584.939 -484.559 850.496 -325.156 1029.59 -14.0899C1052.62 25.8916 1074.03 67.9121 1093.62 111.416Z" stroke="url(#paint24_linear)" stroke-width="0.914959" stroke-miterlimit="10"/>
<path d="M1115.87 123.419C1264.87 469.819 1277.07 881.067 1145.62 1135.49C1013.47 1391.28 758.496 1445.47 519.044 1270C278.6 1093.81 93.6282 713.753 66.3714 338.931C39.2206 -34.481 171.539 -340.032 392.38 -413.633C609.441 -485.976 878.004 -319.515 1053.52 -3.75509C1076.08 36.8289 1096.94 79.4056 1115.87 123.419Z" stroke="url(#paint25_linear)" stroke-width="0.9282" stroke-miterlimit="10"/>
<path d="M1138.41 136.011C1282.02 486.277 1283.23 897.711 1141.1 1148.52C998.219 1400.67 734.656 1448.02 493.37 1266.19C251.084 1083.62 71.4294 698.737 53.7393 323.319C36.122 -50.6817 180.543 -352.572 409.567 -420.234C634.666 -486.731 906.128 -313.133 1077.83 7.21497C1099.9 48.3881 1120.16 91.5077 1138.41 136.011Z" stroke="url(#paint26_linear)" stroke-width="0.940779" stroke-miterlimit="10"/>
<path d="M1161.24 149.206C1299.19 503.193 1289.1 914.514 1136.11 1161.43C982.291 1409.66 710.081 1449.92 467.087 1261.7C223.08 1072.69 49.0259 683.14 41.1938 307.384C33.3882 -66.9547 190.156 -364.873 427.423 -426.371C660.625 -486.816 934.861 -306.003 1102.53 18.8276C1124.07 60.5834 1143.71 104.233 1161.24 149.206Z" stroke="url(#paint27_linear)" stroke-width="0.95402" stroke-miterlimit="10"/>
<path d="M1184.33 163.01C1316.38 520.565 1294.67 931.469 1130.6 1174.19C965.667 1418.21 684.764 1451.16 440.181 1256.5C194.585 1061.03 26.4167 666.946 28.7206 291.111C31.018 -83.301 200.358 -376.909 445.934 -432.025C687.299 -486.194 964.197 -298.098 1127.58 31.1086C1148.57 73.4205 1167.55 117.579 1184.33 163.01Z" stroke="url(#paint28_linear)" stroke-width="0.967923" stroke-miterlimit="10"/>
<path d="M1207.69 177.429C1333.56 538.401 1299.92 948.571 1124.61 1186.81C948.347 1426.32 658.718 1451.73 412.685 1250.59C165.633 1048.6 3.64176 650.156 16.3664 274.52C29.0315 -99.7066 211.183 -388.667 465.113 -437.182C714.695 -484.863 994.121 -289.418 1152.98 44.0519C1173.41 86.9133 1191.7 131.562 1207.69 177.429Z" stroke="url(#paint29_linear)" stroke-width="0.981165" stroke-miterlimit="10"/>
<path d="M1231.3 192.464C1350.73 556.674 1304.86 965.797 1118.09 1199.26C930.326 1433.96 631.925 1451.6 384.582 1243.93C136.219 1035.39 -19.3112 632.75 4.11227 257.591C27.4497 -116.152 222.637 -400.134 484.982 -441.823C742.833 -482.805 1024.66 -279.931 1178.76 57.6701C1198.56 101.061 1216.13 146.187 1231.3 192.464Z" stroke="url(#paint30_linear)" stroke-width="0.995068" stroke-miterlimit="10"/>
<path d="M1255.16 208.129C1367.88 575.41 1309.45 983.156 1111.05 1211.52C911.583 1441.11 604.383 1450.75 355.868 1236.52C106.326 1021.41 -42.4374 614.749 -8.01722 240.351C26.2706 -132.637 234.718 -411.283 505.518 -445.935C771.678 -479.991 1055.77 -269.643 1204.85 71.9705C1224.02 115.885 1240.84 161.46 1255.16 208.129Z" stroke="url(#paint31_linear)" stroke-width="1.00897" stroke-miterlimit="10"/>
<path d="M1279.24 224.429C1384.99 594.596 1313.7 1000.63 1103.47 1223.6C892.125 1447.76 576.1 1449.16 326.572 1228.35C76.0109 1006.63 -65.6952 596.126 -20.0003 222.787C25.516 -149.149 247.45 -422.114 526.751 -449.49C801.265 -476.396 1087.46 -258.514 1231.3 86.9728C1249.78 131.377 1265.81 177.396 1279.24 224.429Z" stroke="url(#paint32_linear)" stroke-width="1.02287" stroke-miterlimit="10"/>
<path d="M1303.55 241.364C1402.04 614.233 1317.57 1018.21 1095.35 1235.46C871.939 1453.88 547.069 1446.81 296.674 1219.4C45.2387 991.041 -89.0987 576.886 -31.8443 204.898C25.1917 -165.68 260.83 -432.594 548.665 -452.482C831.567 -472.026 1119.74 -246.55 1258.06 102.67C1275.83 147.564 1291.04 193.987 1303.55 241.364Z" stroke="url(#paint33_linear)" stroke-width="1.03744" stroke-miterlimit="10"/>
<path d="M1328.08 258.948C1419.03 634.326 1321.08 1035.9 1086.68 1247.12C851.032 1459.46 517.31 1443.69 266.2 1209.65C14.0561 974.636 -112.615 557.031 -43.5161 186.711C25.3243 -182.205 274.879 -442.71 571.281 -454.872C862.605 -466.829 1152.58 -233.706 1285.13 119.089C1302.17 164.433 1316.52 211.254 1328.08 258.948Z" stroke="url(#paint34_linear)" stroke-width="1.052" stroke-miterlimit="10"/>
<path d="M1352.8 277.188C1435.94 654.87 1324.2 1053.67 1077.45 1258.53C829.383 1464.49 486.796 1439.78 235.142 1199.09C-17.5505 957.402 -136.237 536.548 -55.0096 168.214C25.9067 -198.723 289.59 -452.449 594.585 -456.66C894.35 -460.804 1185.99 -219.995 1312.51 136.23C1328.77 182.011 1342.23 229.195 1352.8 277.188Z" stroke="url(#paint35_linear)" stroke-width="1.06657" stroke-miterlimit="10"/>
<path d="M1377.7 296.076C1452.76 675.85 1326.92 1071.51 1067.64 1269.69C806.992 1468.93 455.541 1435.04 203.51 1187.69C-49.5603 939.321 -159.965 515.441 -66.3236 149.418C26.9665 -215.222 304.99 -461.784 618.592 -457.825C926.824 -453.932 1219.95 -205.397 1340.18 154.085C1355.63 200.29 1368.16 247.819 1377.7 296.076Z" stroke="url(#paint36_linear)" stroke-width="1.0818" stroke-miterlimit="10"/>
<path d="M1402.78 315.627C1469.46 697.275 1329.21 1089.42 1057.26 1280.58C783.859 1472.76 423.556 1429.47 171.32 1175.46C-81.9623 920.394 -183.76 493.706 -77.4272 130.324C28.5015 -231.687 321.063 -470.709 643.298 -458.348C960.005 -446.199 1254.45 -189.898 1368.12 172.683C1382.73 219.285 1394.31 267.131 1402.78 315.627Z" stroke="url(#paint37_linear)" stroke-width="1.09702" stroke-miterlimit="10"/>
<path d="M1428.02 335.839C1486.04 719.135 1331.08 1107.38 1046.29 1291.18C759.966 1475.97 390.818 1423.04 138.556 1162.36C-114.753 900.604 -207.626 471.342 -88.3171 110.939C30.5415 -248.1 337.841 -479.203 668.709 -458.209C993.903 -437.573 1289.49 -173.479 1396.34 192.021C1410.07 239 1420.64 287.138 1428.02 335.839Z" stroke="url(#paint38_linear)" stroke-width="1.11225" stroke-miterlimit="10"/>
<path d="M1453.4 356.726C1502.48 741.44 1332.5 1125.4 1034.71 1301.5C735.324 1478.54 357.351 1415.74 105.241 1148.39C-147.902 879.941 -231.54 448.342 -98.9767 91.2692C33.0899 -264.459 355.312 -487.24 694.82 -457.388C1028.51 -428.046 1325.05 -156.121 1424.8 212.107C1437.62 259.438 1447.17 307.847 1453.4 356.726Z" stroke="url(#paint39_linear)" stroke-width="1.12748" stroke-miterlimit="10"/>
<path d="M1478.92 378.283C1518.76 764.175 1333.47 1143.44 1022.52 1311.5C709.922 1480.45 323.15 1407.55 71.3903 1133.54C-181.415 858.399 -255.486 424.713 -109.39 71.3219C36.1558 -280.739 373.492 -494.807 721.634 -455.865C1063.81 -417.592 1361.12 -137.814 1453.5 232.949C1465.38 280.604 1473.86 329.252 1478.92 378.283Z" stroke="url(#paint40_linear)" stroke-width="1.14337" stroke-miterlimit="10"/>
<path d="M1504.55 400.515C1534.87 787.334 1333.97 1161.49 1009.73 1321.16C683.763 1481.68 288.232 1398.44 37.0025 1117.78C-215.26 835.962 -279.446 400.449 -119.54 51.1029C39.7566 -296.932 392.393 -501.885 749.161 -453.627C1099.81 -406.198 1397.7 -118.555 1482.44 254.552C1493.32 302.511 1500.7 351.371 1504.55 400.515Z" stroke="url(#paint41_linear)" stroke-width="1.15926" stroke-miterlimit="10"/>
<path d="M1530.29 423.429C1550.79 810.923 1333.98 1179.57 996.313 1330.48C656.844 1482.21 252.581 1388.39 2.09251 1101.11C-249.435 812.631 -303.406 375.556 -129.425 30.6123C43.9012 -313.027 412.01 -508.452 777.385 -450.655C1136.5 -393.844 1434.75 -98.3229 1511.58 276.923C1521.45 325.16 1527.68 374.199 1530.29 423.429Z" stroke="url(#paint42_linear)" stroke-width="1.17581" stroke-miterlimit="10"/>
<path d="M1556.11 447.025C1566.51 834.929 1333.5 1197.63 982.264 1339.45C629.158 1482.02 216.221 1377.4 -33.3339 1083.51C-283.921 788.393 -327.352 350.034 -139.018 9.87665C48.6086 -328.996 432.355 -514.49 806.317 -446.921C1173.87 -380.51 1472.29 -77.0974 1540.91 300.068C1549.73 348.551 1554.79 397.741 1556.11 447.025Z" stroke="url(#paint43_linear)" stroke-width="1.19236" stroke-miterlimit="10"/>
<path d="M1582 471.302C1582 859.346 1332.5 1215.67 967.58 1348.03C600.71 1481.09 179.153 1365.45 -69.2563 1064.97C-318.692 763.235 -351.252 323.863 -148.299 -11.1169C53.8924 -344.839 453.436 -519.979 835.957 -442.412C1211.92 -366.177 1510.29 -54.8787 1570.43 323.995C1578.15 372.696 1582 421.999 1582 471.302Z" stroke="url(#paint44_linear)" stroke-width="2" stroke-miterlimit="10"/>
</g>
</g>
<defs>
<linearGradient id="paint0_linear" x1="720" y1="0" x2="720" y2="980" gradientUnits="userSpaceOnUse">
<stop stop-color="#F4FFFD"/>
<stop offset="1" stop-color="#F4FFFD" stop-opacity="0"/>
</linearGradient>
<linearGradient id="paint1_linear" x1="720" y1="0" x2="720" y2="980" gradientUnits="userSpaceOnUse">
<stop stop-color="#F4FFFD"/>
<stop offset="1" stop-color="#F4FFFD" stop-opacity="0"/>
</linearGradient>
<linearGradient id="paint2_linear" x1="650.659" y1="-269.602" x2="650.659" y2="1213.81" gradientUnits="userSpaceOnUse">
<stop stop-color="#3CA3DC"/>
<stop offset="0.536458" stop-color="#43C0D4"/>
<stop offset="1" stop-color="#81ED9B"/>
</linearGradient>
<linearGradient id="paint3_linear" x1="650.719" y1="-278.875" x2="650.719" y2="1223.05" gradientUnits="userSpaceOnUse">
<stop stop-color="#3CA3DC"/>
<stop offset="0.536458" stop-color="#43C0D4"/>
<stop offset="1" stop-color="#81ED9B"/>
</linearGradient>
<linearGradient id="paint4_linear" x1="650.789" y1="-287.983" x2="650.789" y2="1232.12" gradientUnits="userSpaceOnUse">
<stop stop-color="#3CA3DC"/>
<stop offset="0.536458" stop-color="#43C0D4"/>
<stop offset="1" stop-color="#81ED9B"/>
</linearGradient>
<linearGradient id="paint5_linear" x1="650.843" y1="-296.954" x2="650.843" y2="1241.02" gradientUnits="userSpaceOnUse">
<stop stop-color="#3CA3DC"/>
<stop offset="0.536458" stop-color="#43C0D4"/>
<stop offset="1" stop-color="#81ED9B"/>
</linearGradient>
<linearGradient id="paint6_linear" x1="650.902" y1="-305.741" x2="650.902" y2="1249.75" gradientUnits="userSpaceOnUse">
<stop stop-color="#3CA3DC"/>
<stop offset="0.536458" stop-color="#43C0D4"/>
<stop offset="1" stop-color="#81ED9B"/>
</linearGradient>
<linearGradient id="paint7_linear" x1="650.945" y1="-314.357" x2="650.945" y2="1258.28" gradientUnits="userSpaceOnUse">
<stop stop-color="#3CA3DC"/>
<stop offset="0.536458" stop-color="#43C0D4"/>
<stop offset="1" stop-color="#81ED9B"/>
</linearGradient>
<linearGradient id="paint8_linear" x1="650.984" y1="-322.778" x2="650.984" y2="1266.63" gradientUnits="userSpaceOnUse">
<stop stop-color="#3CA3DC"/>
<stop offset="0.536458" stop-color="#43C0D4"/>
<stop offset="1" stop-color="#81ED9B"/>
</linearGradient>
<linearGradient id="paint9_linear" x1="651.01" y1="-331.015" x2="651.01" y2="1274.77" gradientUnits="userSpaceOnUse">
<stop stop-color="#3CA3DC"/>
<stop offset="0.536458" stop-color="#43C0D4"/>
<stop offset="1" stop-color="#81ED9B"/>
</linearGradient>
<linearGradient id="paint10_linear" x1="651.028" y1="-339.043" x2="651.028" y2="1282.71" gradientUnits="userSpaceOnUse">
<stop stop-color="#3CA3DC"/>
<stop offset="0.536458" stop-color="#43C0D4"/>
<stop offset="1" stop-color="#81ED9B"/>
</linearGradient>
<linearGradient id="paint11_linear" x1="651.024" y1="-346.853" x2="651.024" y2="1290.42" gradientUnits="userSpaceOnUse">
<stop stop-color="#3CA3DC"/>
<stop offset="0.536458" stop-color="#43C0D4"/>
<stop offset="1" stop-color="#81ED9B"/>
</linearGradient>
<linearGradient id="paint12_linear" x1="651.007" y1="-354.457" x2="651.007" y2="1297.92" gradientUnits="userSpaceOnUse">
<stop stop-color="#3CA3DC"/>
<stop offset="0.536458" stop-color="#43C0D4"/>
<stop offset="1" stop-color="#81ED9B"/>
</linearGradient>
<linearGradient id="paint13_linear" x1="650.968" y1="-361.829" x2="650.968" y2="1305.18" gradientUnits="userSpaceOnUse">
<stop stop-color="#3CA3DC"/>
<stop offset="0.536458" stop-color="#43C0D4"/>
<stop offset="1" stop-color="#81ED9B"/>
</linearGradient>
<linearGradient id="paint14_linear" x1="650.914" y1="-368.97" x2="650.914" y2="1312.2" gradientUnits="userSpaceOnUse">
<stop stop-color="#3CA3DC"/>
<stop offset="0.536458" stop-color="#43C0D4"/>
<stop offset="1" stop-color="#81ED9B"/>
</linearGradient>
<linearGradient id="paint15_linear" x1="650.84" y1="-375.874" x2="650.84" y2="1318.98" gradientUnits="userSpaceOnUse">
<stop stop-color="#3CA3DC"/>
<stop offset="0.536458" stop-color="#43C0D4"/>
<stop offset="1" stop-color="#81ED9B"/>
</linearGradient>
<linearGradient id="paint16_linear" x1="650.754" y1="-382.526" x2="650.754" y2="1325.51" gradientUnits="userSpaceOnUse">
<stop stop-color="#3CA3DC"/>
<stop offset="0.536458" stop-color="#43C0D4"/>
<stop offset="1" stop-color="#81ED9B"/>
</linearGradient>
<linearGradient id="paint17_linear" x1="650.648" y1="-388.926" x2="650.648" y2="1331.78" gradientUnits="userSpaceOnUse">
<stop stop-color="#3CA3DC"/>
<stop offset="0.536458" stop-color="#43C0D4"/>
<stop offset="1" stop-color="#81ED9B"/>
</linearGradient>
<linearGradient id="paint18_linear" x1="650.53" y1="-395.068" x2="650.53" y2="1337.79" gradientUnits="userSpaceOnUse">
<stop stop-color="#3CA3DC"/>
<stop offset="0.536458" stop-color="#43C0D4"/>
<stop offset="1" stop-color="#81ED9B"/>
</linearGradient>
<linearGradient id="paint19_linear" x1="650.407" y1="-400.944" x2="650.407" y2="1343.53" gradientUnits="userSpaceOnUse">
<stop stop-color="#3CA3DC"/>
<stop offset="0.536458" stop-color="#43C0D4"/>
<stop offset="1" stop-color="#81ED9B"/>
</linearGradient>
<linearGradient id="paint20_linear" x1="650.272" y1="-406.551" x2="650.272" y2="1349" gradientUnits="userSpaceOnUse">
<stop stop-color="#3CA3DC"/>
<stop offset="0.536458" stop-color="#43C0D4"/>
<stop offset="1" stop-color="#81ED9B"/>
</linearGradient>
<linearGradient id="paint21_linear" x1="650.143" y1="-411.885" x2="650.143" y2="1354.2" gradientUnits="userSpaceOnUse">
<stop stop-color="#3CA3DC"/>
<stop offset="0.536458" stop-color="#43C0D4"/>
<stop offset="1" stop-color="#81ED9B"/>
</linearGradient>
<linearGradient id="paint22_linear" x1="650.012" y1="-416.936" x2="650.012" y2="1359.11" gradientUnits="userSpaceOnUse">
<stop stop-color="#3CA3DC"/>
<stop offset="0.536458" stop-color="#43C0D4"/>
<stop offset="1" stop-color="#81ED9B"/>
</linearGradient>
<linearGradient id="paint23_linear" x1="649.891" y1="-421.707" x2="649.891" y2="1363.75" gradientUnits="userSpaceOnUse">
<stop stop-color="#3CA3DC"/>
<stop offset="0.536458" stop-color="#43C0D4"/>
<stop offset="1" stop-color="#81ED9B"/>
</linearGradient>
<linearGradient id="paint24_linear" x1="649.777" y1="-426.195" x2="649.777" y2="1368.1" gradientUnits="userSpaceOnUse">
<stop stop-color="#3CA3DC"/>
<stop offset="0.536458" stop-color="#43C0D4"/>
<stop offset="1" stop-color="#81ED9B"/>
</linearGradient>
<linearGradient id="paint25_linear" x1="649.68" y1="-430.395" x2="649.68" y2="1372.17" gradientUnits="userSpaceOnUse">
<stop stop-color="#3CA3DC"/>
<stop offset="0.536458" stop-color="#43C0D4"/>
<stop offset="1" stop-color="#81ED9B"/>
</linearGradient>
<linearGradient id="paint26_linear" x1="649.6" y1="-434.305" x2="649.6" y2="1375.96" gradientUnits="userSpaceOnUse">
<stop stop-color="#3CA3DC"/>
<stop offset="0.536458" stop-color="#43C0D4"/>
<stop offset="1" stop-color="#81ED9B"/>
</linearGradient>
<linearGradient id="paint27_linear" x1="649.546" y1="-437.928" x2="649.546" y2="1379.46" gradientUnits="userSpaceOnUse">
<stop stop-color="#3CA3DC"/>
<stop offset="0.536458" stop-color="#43C0D4"/>
<stop offset="1" stop-color="#81ED9B"/>
</linearGradient>
<linearGradient id="paint28_linear" x1="649.502" y1="-441.255" x2="649.502" y2="1382.69" gradientUnits="userSpaceOnUse">
<stop stop-color="#3CA3DC"/>
<stop offset="0.536458" stop-color="#43C0D4"/>
<stop offset="1" stop-color="#81ED9B"/>
</linearGradient>
<linearGradient id="paint29_linear" x1="649.491" y1="-444.298" x2="649.491" y2="1385.64" gradientUnits="userSpaceOnUse">
<stop stop-color="#3CA3DC"/>
<stop offset="0.536458" stop-color="#43C0D4"/>
<stop offset="1" stop-color="#81ED9B"/>
</linearGradient>
<linearGradient id="paint30_linear" x1="649.502" y1="-447.055" x2="649.502" y2="1388.31" gradientUnits="userSpaceOnUse">
<stop stop-color="#3CA3DC"/>
<stop offset="0.536458" stop-color="#43C0D4"/>
<stop offset="1" stop-color="#81ED9B"/>
</linearGradient>
<linearGradient id="paint31_linear" x1="649.532" y1="-449.533" x2="649.532" y2="1390.71" gradientUnits="userSpaceOnUse">
<stop stop-color="#3CA3DC"/>
<stop offset="0.536458" stop-color="#43C0D4"/>
<stop offset="1" stop-color="#81ED9B"/>
</linearGradient>
<linearGradient id="paint32_linear" x1="649.588" y1="-451.728" x2="649.588" y2="1392.85" gradientUnits="userSpaceOnUse">
<stop stop-color="#3CA3DC"/>
<stop offset="0.536458" stop-color="#43C0D4"/>
<stop offset="1" stop-color="#81ED9B"/>
</linearGradient>
<linearGradient id="paint33_linear" x1="649.654" y1="-453.659" x2="649.654" y2="1394.73" gradientUnits="userSpaceOnUse">
<stop stop-color="#3CA3DC"/>
<stop offset="0.536458" stop-color="#43C0D4"/>
<stop offset="1" stop-color="#81ED9B"/>
</linearGradient>
<linearGradient id="paint34_linear" x1="649.739" y1="-455.312" x2="649.739" y2="1396.38" gradientUnits="userSpaceOnUse">
<stop stop-color="#3CA3DC"/>
<stop offset="0.536458" stop-color="#43C0D4"/>
<stop offset="1" stop-color="#81ED9B"/>
</linearGradient>
<linearGradient id="paint35_linear" x1="649.834" y1="-456.712" x2="649.834" y2="1397.79" gradientUnits="userSpaceOnUse">
<stop stop-color="#3CA3DC"/>
<stop offset="0.536458" stop-color="#43C0D4"/>
<stop offset="1" stop-color="#81ED9B"/>
</linearGradient>
<linearGradient id="paint36_linear" x1="649.93" y1="-457.872" x2="649.93" y2="1398.97" gradientUnits="userSpaceOnUse">
<stop stop-color="#3CA3DC"/>
<stop offset="0.536458" stop-color="#43C0D4"/>
<stop offset="1" stop-color="#81ED9B"/>
</linearGradient>
<linearGradient id="paint37_linear" x1="650.029" y1="-458.806" x2="650.029" y2="1399.95" gradientUnits="userSpaceOnUse">
<stop stop-color="#3CA3DC"/>
<stop offset="0.536458" stop-color="#43C0D4"/>
<stop offset="1" stop-color="#81ED9B"/>
</linearGradient>
<linearGradient id="paint38_linear" x1="650.124" y1="-459.529" x2="650.124" y2="1400.74" gradientUnits="userSpaceOnUse">
<stop stop-color="#3CA3DC"/>
<stop offset="0.536458" stop-color="#43C0D4"/>
<stop offset="1" stop-color="#81ED9B"/>
</linearGradient>
<linearGradient id="paint39_linear" x1="650.213" y1="-460.059" x2="650.213" y2="1401.37" gradientUnits="userSpaceOnUse">
<stop stop-color="#3CA3DC"/>
<stop offset="0.536458" stop-color="#43C0D4"/>
<stop offset="1" stop-color="#81ED9B"/>
</linearGradient>
<linearGradient id="paint40_linear" x1="650.295" y1="-460.415" x2="650.295" y2="1401.83" gradientUnits="userSpaceOnUse">
<stop stop-color="#3CA3DC"/>
<stop offset="0.536458" stop-color="#43C0D4"/>
<stop offset="1" stop-color="#81ED9B"/>
</linearGradient>
<linearGradient id="paint41_linear" x1="650.368" y1="-460.624" x2="650.368" y2="1402.18" gradientUnits="userSpaceOnUse">
<stop stop-color="#3CA3DC"/>
<stop offset="0.536458" stop-color="#43C0D4"/>
<stop offset="1" stop-color="#81ED9B"/>
</linearGradient>
<linearGradient id="paint42_linear" x1="650.425" y1="-460.711" x2="650.425" y2="1402.41" gradientUnits="userSpaceOnUse">
<stop stop-color="#3CA3DC"/>
<stop offset="0.536458" stop-color="#43C0D4"/>
<stop offset="1" stop-color="#81ED9B"/>
</linearGradient>
<linearGradient id="paint43_linear" x1="650.468" y1="-460.699" x2="650.468" y2="1402.59" gradientUnits="userSpaceOnUse">
<stop stop-color="#3CA3DC"/>
<stop offset="0.536458" stop-color="#43C0D4"/>
<stop offset="1" stop-color="#81ED9B"/>
</linearGradient>
<linearGradient id="paint44_linear" x1="650.5" y1="-460.624" x2="650.5" y2="1402.71" gradientUnits="userSpaceOnUse">
<stop stop-color="#3CA3DC"/>
<stop offset="0.484375" stop-color="#44C0D4"/>
<stop offset="1" stop-color="#8EEC8F"/>
</linearGradient>
</defs>
</svg>
