<svg width="36" height="23" viewBox="0 0 36 23" fill="none" xmlns="http://www.w3.org/2000/svg">
<g clip-path="url(#clip0)">
<path d="M22.867 2.38228H13.1331V19.8936H22.867V2.38228Z" fill="#FF5F00"/>
<path d="M13.7511 11.1381C13.7511 7.5801 15.4197 4.42436 17.9845 2.38241C16.0996 0.897348 13.7202 0.00012207 11.1245 0.00012207C4.97511 0.00012207 0 4.98125 0 11.1381C0 17.2949 4.97511 22.276 11.1245 22.276C13.7202 22.276 16.0996 21.3788 17.9845 19.8937C15.4197 17.8827 13.7511 14.696 13.7511 11.1381Z" fill="#EB001B"/>
<path d="M36 11.1379C36 17.2947 31.0249 22.2759 24.8755 22.2759C22.2798 22.2759 19.9004 21.3786 18.0155 19.8936C20.6112 17.8516 22.2489 14.6959 22.2489 11.1379C22.2489 7.57999 20.5803 4.42424 18.0155 2.38229C19.9004 0.897233 22.2798 7.62939e-06 24.8755 7.62939e-06C31.0249 7.62939e-06 36 5.01208 36 11.1379Z" fill="#F79E1B"/>
</g>
<defs>
<clipPath id="clip0">
<rect width="36" height="22.2759" fill="white"/>
</clipPath>
</defs>
</svg>
