<svg width="41" height="12" viewBox="0 0 41 12" fill="none" xmlns="http://www.w3.org/2000/svg">
<g opacity="0.5">
<path d="M3.72786 8.12711C3.51295 7.99602 3.29804 7.89116 3.05627 7.81251C2.8145 7.73386 2.57273 7.70764 2.33095 7.70764C2.16977 7.70764 2.03545 7.73386 1.87427 7.76007C1.73995 7.78629 1.6325 7.83872 1.52504 7.89116C1.44445 7.94359 1.36386 8.02224 1.31013 8.12711C1.25641 8.20575 1.22954 8.31062 1.22954 8.41549C1.22954 8.52035 1.25641 8.599 1.31013 8.67765C1.36386 8.7563 1.41759 8.80874 1.52504 8.86117C1.6325 8.9136 1.73995 8.96604 1.84741 8.99225C1.98173 9.04468 2.14291 9.0709 2.27723 9.0709L2.62645 9.12333C2.8145 9.14955 3.02941 9.20198 3.21745 9.25442C3.4055 9.30685 3.56668 9.3855 3.72786 9.49037C3.86218 9.59523 3.9965 9.72632 4.07709 9.88361C4.18455 10.0671 4.21141 10.2506 4.21141 10.4604C4.21141 10.6963 4.15768 10.9061 4.05023 11.1158C3.94277 11.2993 3.80845 11.4566 3.62041 11.5877C3.43236 11.7188 3.21745 11.8236 3.00254 11.8761C2.73391 11.9023 2.46527 11.9547 2.2235 11.9547C2.06232 11.9547 1.87427 11.9285 1.71309 11.9023C1.52504 11.8761 1.36386 11.8236 1.17582 11.7712C1.01463 11.7188 0.853452 11.6401 0.69227 11.5615C0.531088 11.4828 0.396769 11.378 0.262451 11.2731L0.69227 10.6439C0.772861 10.7225 0.880315 10.8012 0.98777 10.8536C1.22954 10.9847 1.49818 11.0896 1.79368 11.142C1.928 11.1682 2.08918 11.1682 2.2235 11.1944C2.38468 11.1944 2.519 11.1944 2.68018 11.142C2.8145 11.1158 2.92195 11.0634 3.05627 11.0109C3.16373 10.9585 3.24432 10.8798 3.29804 10.8012C3.35177 10.7225 3.37864 10.6177 3.37864 10.4866C3.37864 10.3031 3.27118 10.1458 3.11 10.0671C2.84136 9.93605 2.57273 9.88361 2.27723 9.8574L1.90113 9.80497C1.71309 9.77875 1.55191 9.72632 1.36386 9.67388C1.20268 9.62145 1.0415 9.5428 0.907179 9.43793C0.772861 9.33307 0.665406 9.20198 0.584815 9.04469C0.504224 8.86117 0.450497 8.67765 0.450497 8.46792C0.450497 8.25819 0.504224 8.02224 0.611679 7.83872C0.665406 7.65521 0.826588 7.49791 0.98777 7.36682C1.17582 7.23574 1.39072 7.13088 1.60563 7.07844C1.84741 6.99979 2.11604 6.97358 2.35782 6.97358C2.68018 6.97358 3.00254 7.02601 3.32491 7.10466C3.62041 7.18331 3.88905 7.31439 4.13082 7.47169L3.72786 8.12711ZM6.41423 8.49414C6.62914 8.49414 6.84405 8.54657 7.05896 8.62522C7.247 8.70387 7.40819 8.83495 7.56937 8.96603C7.70369 9.12333 7.81114 9.30685 7.89173 9.51658C7.97232 9.75253 8.02605 9.98848 7.99919 10.2244C7.99919 10.2769 7.99919 10.3031 7.99919 10.3555C7.99919 10.4079 7.99919 10.4342 7.99919 10.4866H5.50086C5.52773 10.6177 5.55459 10.7488 5.63518 10.8798C5.68891 10.9847 5.7695 11.0634 5.85009 11.142C5.93068 11.2207 6.03814 11.2731 6.14559 11.2993C6.25305 11.3255 6.3605 11.3517 6.49482 11.3517C6.656 11.3517 6.84405 11.3255 7.00523 11.2731C7.16641 11.2207 7.32759 11.1158 7.46191 11.0109L7.838 11.509C7.64996 11.6663 7.43505 11.7974 7.19328 11.8761C6.9515 11.9547 6.70973 11.9809 6.46796 11.9809C6.22618 11.9809 5.98441 11.9285 5.7695 11.8499C5.55459 11.7712 5.39341 11.6401 5.23223 11.509C5.07105 11.3517 4.96359 11.1682 4.883 10.9585C4.80241 10.7225 4.74868 10.4866 4.74868 10.2506C4.74868 10.0147 4.77555 9.77875 4.883 9.5428C4.96359 9.33307 5.07105 9.14955 5.23223 8.99225C5.39341 8.83495 5.55459 8.73009 5.7695 8.65144C5.95755 8.54657 6.17246 8.49414 6.41423 8.49414ZM6.38737 9.12333C6.27991 9.12333 6.14559 9.14955 6.03814 9.17577C5.93068 9.20198 5.85009 9.28063 5.7695 9.33307C5.68891 9.41172 5.63518 9.49037 5.58146 9.59523C5.52773 9.7001 5.50086 9.80497 5.474 9.90983H7.22014C7.19328 9.7001 7.11268 9.49037 6.9515 9.30685C6.81718 9.20198 6.60227 9.12333 6.38737 9.12333ZM10.2826 8.49414C10.5244 8.49414 10.7661 8.54657 10.9811 8.62522C11.196 8.70387 11.384 8.83495 11.5183 9.01847L11.0348 9.51658C10.9273 9.41172 10.793 9.33307 10.6587 9.25442C10.5244 9.20198 10.3632 9.17577 10.2289 9.17577C10.0946 9.17577 9.96023 9.20198 9.82591 9.25442C9.71846 9.30685 9.61101 9.3855 9.53041 9.49037C9.44982 9.59523 9.36923 9.7001 9.31551 9.83118C9.20805 10.1196 9.20805 10.4079 9.31551 10.6701C9.36923 10.8012 9.42296 10.9061 9.53041 11.0109C9.61101 11.1158 9.71846 11.1682 9.85278 11.2207C9.9871 11.2731 10.1214 11.2993 10.2557 11.2993C10.4169 11.2993 10.5781 11.2731 10.7124 11.1944C10.8467 11.142 10.9811 11.0371 11.0885 10.9585L11.5452 11.4566C11.384 11.6401 11.196 11.7712 10.9811 11.8499C10.7661 11.9285 10.5244 11.9809 10.2826 11.9809C10.0408 11.9809 9.79905 11.9285 9.55728 11.8499C9.12746 11.6926 8.8051 11.3517 8.64391 10.9323C8.48273 10.4866 8.48273 10.0147 8.64391 9.56902C8.8051 9.14955 9.12746 8.83495 9.55728 8.65144C9.77219 8.54657 10.0408 8.49414 10.2826 8.49414ZM15.3061 10.4604C15.3061 10.6963 15.2792 10.9323 15.1718 11.142C15.0912 11.3255 14.9837 11.4828 14.8226 11.6139C14.6882 11.745 14.5002 11.8236 14.339 11.8761C13.9629 11.9809 13.56 11.9809 13.1839 11.8761C12.9958 11.8236 12.8346 11.745 12.6735 11.6139C12.5123 11.4828 12.4048 11.3255 12.3242 11.142C12.2436 10.9323 12.1899 10.6963 12.1899 10.4604V8.57279H12.9152V10.4079C12.9152 10.539 12.9421 10.6701 12.969 10.8012C12.9958 10.9061 13.0764 10.9847 13.157 11.0634C13.2376 11.142 13.3182 11.1944 13.4256 11.2207C13.6406 11.2731 13.8555 11.2731 14.0704 11.2207C14.1778 11.1944 14.2584 11.142 14.339 11.0634C14.4196 10.9847 14.4733 10.9061 14.5271 10.8012C14.5808 10.6701 14.6076 10.539 14.5808 10.4079V8.57279H15.3061V10.4604ZM17.9656 8.49414C18.0731 8.49414 18.1805 8.49414 18.2611 8.52035C18.3417 8.54657 18.4492 8.54657 18.5297 8.599L18.3417 9.30685C18.2611 9.25442 18.1537 9.2282 18.0731 9.2282C17.9656 9.20198 17.885 9.20198 17.7776 9.20198C17.6701 9.20198 17.5626 9.2282 17.4552 9.25442C17.3477 9.28063 17.2671 9.35928 17.2134 9.43793C17.1328 9.51658 17.0791 9.62145 17.0522 9.72632C16.9985 9.8574 16.9985 9.96227 16.9985 10.0933V11.9023H16.2463V8.57279H16.9716V8.93982C17.0791 8.78252 17.2134 8.67765 17.4015 8.599C17.5895 8.52035 17.7776 8.49414 17.9656 8.49414ZM20.4371 8.49414C20.652 8.49414 20.8669 8.54657 21.0818 8.62522C21.2698 8.70387 21.431 8.83495 21.5922 8.96603C21.7534 9.12333 21.8608 9.30685 21.9414 9.51658C22.022 9.75253 22.0757 9.98848 22.0489 10.2244C22.0489 10.2769 22.0489 10.3031 22.0489 10.3555C22.0489 10.4079 22.0489 10.4342 22.0489 10.4866H19.5506C19.5774 10.6177 19.6043 10.7488 19.6849 10.8798C19.7386 10.9847 19.8192 11.0634 19.8998 11.142C19.9804 11.2207 20.0878 11.2731 20.1953 11.2993C20.3027 11.3255 20.4102 11.3517 20.5445 11.3517C20.7057 11.3517 20.8937 11.3255 21.0549 11.2731C21.2161 11.2207 21.3773 11.1158 21.5116 11.0109L21.8877 11.509C21.6997 11.6663 21.4847 11.7974 21.243 11.8761C21.0012 11.9547 20.7594 11.9809 20.5177 11.9809C20.2759 11.9809 20.0341 11.9285 19.8192 11.8499C19.6043 11.7712 19.4431 11.6401 19.2819 11.509C19.1207 11.3517 19.0133 11.1682 18.9327 10.9585C18.8521 10.7225 18.7984 10.4866 18.7984 10.2506C18.7984 10.0147 18.8252 9.77875 18.9327 9.5428C19.0133 9.33307 19.1207 9.14955 19.2819 8.99225C19.4431 8.83495 19.6043 8.73009 19.8192 8.65144C19.9804 8.54657 20.1953 8.49414 20.4371 8.49414ZM20.4102 9.12333C20.3027 9.12333 20.1684 9.14955 20.061 9.17577C19.9535 9.20198 19.8729 9.28063 19.7923 9.33307C19.7117 9.41172 19.658 9.49037 19.6043 9.59523C19.5506 9.7001 19.5237 9.80497 19.4968 9.90983H21.243C21.2161 9.7001 21.1355 9.49037 20.9743 9.30685C20.84 9.20198 20.6251 9.12333 20.4102 9.12333ZM25.1651 6.97358C25.38 6.97358 25.5949 6.99979 25.7829 7.05223C25.971 7.10466 26.159 7.15709 26.3471 7.26196C26.5082 7.34061 26.6694 7.44547 26.8306 7.57656C26.9649 7.70764 27.0992 7.83872 27.1798 7.99602L26.5082 8.41549C26.3739 8.20575 26.159 8.02224 25.9172 7.91737C25.6755 7.78629 25.38 7.73386 25.1113 7.73386C24.8696 7.73386 24.6278 7.78629 24.4129 7.86494C24.198 7.94359 24.0368 8.07467 23.8756 8.23197C23.7144 8.38927 23.607 8.57279 23.5264 8.78252C23.3383 9.2282 23.3383 9.75253 23.5264 10.1982C23.607 10.4079 23.7413 10.5915 23.8756 10.7488C24.0368 10.9061 24.198 11.0109 24.4129 11.1158C24.6278 11.1944 24.8696 11.2469 25.1113 11.2469C25.6486 11.2469 26.159 11.0109 26.4814 10.5652L27.1261 11.0371C27.0187 11.1944 26.8843 11.3255 26.75 11.4304C26.6157 11.5615 26.4545 11.6663 26.2933 11.745C26.1053 11.8236 25.9441 11.9023 25.7292 11.9285C25.1651 12.0596 24.6009 12.0072 24.0637 11.7974C23.4458 11.5615 22.9622 11.0896 22.7205 10.4866C22.4787 9.8574 22.4787 9.14955 22.7205 8.49414C22.9622 7.89116 23.4458 7.41926 24.0637 7.18331C24.4666 7.02601 24.8158 6.97358 25.1651 6.97358ZM29.4901 8.49414C29.7319 8.49414 29.9737 8.54657 30.2154 8.62522C30.4303 8.70387 30.6184 8.83495 30.7796 8.99225C30.9408 9.14955 31.0751 9.33307 31.1557 9.5428C31.3437 9.98848 31.3437 10.4604 31.1557 10.9061C31.0751 11.1158 30.9408 11.2993 30.7796 11.4566C30.6184 11.6139 30.4303 11.745 30.2154 11.8236C29.7588 12.0072 29.2483 12.0072 28.7648 11.8236C28.5499 11.745 28.3618 11.6139 28.2007 11.4566C28.0395 11.2993 27.9052 11.1158 27.8246 10.9323C27.6365 10.4866 27.6365 10.0147 27.8246 9.56902C27.9052 9.35928 28.0395 9.17577 28.2007 9.01847C28.3618 8.86117 28.5499 8.73009 28.7648 8.65144C29.0066 8.54657 29.2483 8.49414 29.4901 8.49414ZM29.4901 9.14955C29.3558 9.14955 29.1946 9.17577 29.0603 9.2282C28.926 9.28063 28.8185 9.35928 28.7379 9.43793C28.6305 9.5428 28.5767 9.64767 28.523 9.77875C28.4156 10.0409 28.4156 10.3555 28.523 10.6177C28.5767 10.7488 28.6573 10.8536 28.7379 10.9585C28.8454 11.0634 28.9528 11.1158 29.0603 11.1682C29.3289 11.2731 29.6244 11.2731 29.8931 11.1682C30.1348 11.0634 30.3498 10.8798 30.4572 10.6439C30.5647 10.3817 30.5647 10.0671 30.4572 9.80497C30.4035 9.67388 30.3229 9.56902 30.2423 9.46415C30.1348 9.35928 30.0274 9.30685 29.9199 9.25442C29.7856 9.20198 29.6513 9.17577 29.4901 9.14955ZM33.5197 8.49414C33.9226 8.46792 34.3256 8.65144 34.5673 8.96603V6.92114H35.2927V11.8499H34.5673V11.4566C34.4599 11.6139 34.2987 11.7188 34.1375 11.7974C33.9495 11.8761 33.7346 11.9285 33.5197 11.9285C33.063 11.9285 32.6332 11.745 32.3377 11.4566C32.1765 11.2993 32.069 11.1158 31.9884 10.9061C31.8273 10.4604 31.8273 9.96226 31.9884 9.51658C32.069 9.30685 32.2033 9.12333 32.3377 8.96603C32.6332 8.65144 33.063 8.49414 33.5197 8.49414ZM33.6003 9.14955C33.4659 9.14955 33.3048 9.17577 33.1704 9.2282C33.063 9.28063 32.9287 9.35928 32.8481 9.46415C32.7675 9.56902 32.6869 9.67388 32.66 9.80497C32.5794 10.0671 32.5794 10.3555 32.66 10.6177C32.7138 10.7488 32.7675 10.8536 32.8481 10.9585C32.9287 11.0634 33.0361 11.142 33.1704 11.1944C33.4391 11.2993 33.7346 11.2993 34.0032 11.1944C34.1375 11.142 34.245 11.0634 34.3256 10.9847C34.4062 10.9061 34.4868 10.8012 34.5405 10.6701C34.6479 10.4079 34.6479 10.0933 34.5405 9.83118C34.4868 9.7001 34.433 9.59523 34.3256 9.49037C34.245 9.3855 34.1375 9.33307 34.0032 9.28063C33.8689 9.20198 33.7346 9.17577 33.6003 9.14955ZM37.7373 8.49414C37.9522 8.49414 38.1671 8.54657 38.382 8.62522C38.57 8.70387 38.7312 8.83495 38.8924 8.96603C39.0267 9.12333 39.1342 9.30685 39.2148 9.51658C39.2954 9.75253 39.3491 9.98848 39.3222 10.2244C39.3222 10.2769 39.3222 10.3031 39.3222 10.3555C39.3222 10.4079 39.3222 10.4342 39.3222 10.4866H36.8508C36.8776 10.6177 36.9045 10.7488 36.9851 10.8798C37.0388 10.9847 37.1194 11.0634 37.2269 11.142C37.3074 11.2207 37.4149 11.2731 37.5224 11.2993C37.6298 11.3255 37.7373 11.3517 37.8716 11.3517C38.0328 11.3517 38.2208 11.3255 38.382 11.2731C38.5432 11.2207 38.7044 11.1158 38.8387 11.0109L39.2148 11.509C39.0267 11.6663 38.8118 11.7974 38.57 11.8761C38.3283 11.9547 38.0865 11.9809 37.8447 11.9809C37.6029 11.9809 37.3612 11.9285 37.1463 11.8499C36.9314 11.7712 36.7702 11.6401 36.609 11.509C36.4478 11.3517 36.3403 11.1682 36.2598 10.9585C36.1792 10.7225 36.1254 10.4866 36.1254 10.2506C36.1254 10.0147 36.1523 9.77875 36.2598 9.5428C36.3403 9.33307 36.4478 9.14955 36.609 8.99225C36.7702 8.83495 36.9314 8.73009 37.1463 8.65144C37.2806 8.54657 37.5224 8.49414 37.7373 8.49414ZM39.6714 11.8499V11.6926H39.7252V11.6663H39.564V11.6926H39.6446V11.8499H39.6714ZM39.9938 11.8499V11.6401H39.9401L39.8864 11.7712L39.8326 11.6401H39.7789V11.8499H39.8058V11.6926L39.8595 11.8236H39.8864L39.9401 11.6926V11.8499H39.9938ZM37.7104 9.12333C37.6029 9.12333 37.4686 9.14955 37.3612 9.17577C37.2537 9.20198 37.1731 9.28063 37.0925 9.33307C37.0119 9.41172 36.9582 9.49037 36.9045 9.59523C36.8508 9.7001 36.8239 9.80497 36.797 9.90983H38.5432C38.5163 9.67388 38.4357 9.46415 38.2745 9.30685C38.1402 9.20198 37.9253 9.12333 37.7104 9.12333Z" fill="white"/>
<path d="M6.14559 5.11223H5.31282V1.02245L3.83532 4.61411H2.97568L1.49818 1.04866V5.08601H0.665405V0.131083H1.928L3.4055 3.67032L4.883 0.131083H6.14559V5.11223ZM10.4706 5.11223H9.71846V4.71898C9.58414 4.87628 9.44982 4.98115 9.26178 5.08601C9.07373 5.19088 8.83196 5.21709 8.61705 5.21709C8.16037 5.21709 7.70368 5.03358 7.38132 4.71898C7.22014 4.56168 7.08582 4.35195 7.00523 4.14222C6.81718 3.67032 6.81718 3.1722 7.00523 2.70031C7.08582 2.49057 7.22014 2.30706 7.38132 2.12354C7.70368 1.80894 8.16037 1.62543 8.61705 1.62543C8.83196 1.62543 9.04687 1.67786 9.26178 1.75651C9.44982 1.83516 9.58414 1.96624 9.71846 2.12354V1.70408H10.4706V5.11223ZM8.69764 2.30706C8.53646 2.30706 8.40214 2.33327 8.26782 2.38571C8.1335 2.43814 8.02605 2.51679 7.94546 2.62166C7.86487 2.72652 7.78428 2.83139 7.73055 2.96247C7.62309 3.22464 7.62309 3.53924 7.73055 3.8014C7.78428 3.93248 7.838 4.03735 7.94546 4.14222C8.02605 4.24708 8.16037 4.32573 8.26782 4.37816C8.53646 4.48303 8.85882 4.48303 9.12746 4.37816C9.26178 4.32573 9.36923 4.24708 9.44982 4.14222C9.53041 4.03735 9.611 3.93248 9.66473 3.8014C9.77219 3.51302 9.77219 3.22464 9.66473 2.93625C9.611 2.80517 9.53041 2.70031 9.44982 2.59544C9.36923 2.49057 9.23491 2.41192 9.12746 2.35949C8.99314 2.33327 8.85882 2.30706 8.69764 2.30706ZM13.9629 2.56922C13.9092 2.54301 13.8286 2.49057 13.7749 2.46436C13.6943 2.43814 13.5868 2.38571 13.5062 2.35949C13.3988 2.33327 13.3182 2.30706 13.2107 2.28084C13.1033 2.25462 12.9958 2.25462 12.8884 2.25462C12.7272 2.25462 12.5391 2.28084 12.4048 2.35949C12.2974 2.41192 12.2436 2.54301 12.2436 2.64787C12.2436 2.70031 12.2705 2.75274 12.2974 2.80517C12.3242 2.8576 12.378 2.88382 12.4048 2.91004C12.4586 2.93625 12.5123 2.96247 12.5929 2.96247C12.6735 2.98869 12.7272 2.98869 12.8078 3.0149L13.157 3.06734C13.4794 3.09355 13.7749 3.22464 14.0435 3.38194C14.2584 3.56545 14.3659 3.82762 14.3659 4.08978C14.3659 4.24708 14.339 4.40438 14.2584 4.53546C14.1778 4.66655 14.0704 4.79763 13.9361 4.87628C13.7749 4.98115 13.6137 5.0598 13.4525 5.11223C13.2376 5.16466 12.9958 5.19088 12.7809 5.19088C12.7003 5.19088 12.5929 5.19088 12.4586 5.16466C12.3242 5.16466 12.2168 5.13845 12.0825 5.11223C11.9481 5.08601 11.8138 5.03358 11.6795 4.98115C11.5452 4.92871 11.4109 4.85006 11.2766 4.77141L11.6258 4.22087C11.6795 4.2733 11.7601 4.32573 11.8407 4.35195C11.9213 4.40438 12.0019 4.4306 12.0825 4.45682C12.1899 4.48303 12.2974 4.50925 12.4048 4.53546C12.5391 4.56168 12.6735 4.56168 12.7809 4.56168C12.9958 4.56168 13.1839 4.53546 13.3719 4.45682C13.5062 4.40438 13.56 4.2733 13.5868 4.16843C13.5868 4.06357 13.5331 3.98492 13.4525 3.93248C13.3182 3.85383 13.157 3.8014 12.9958 3.8014L12.6466 3.74897C12.3242 3.72275 12.0287 3.61789 11.7601 3.40815C11.5721 3.25085 11.4377 2.98869 11.4646 2.75274C11.4646 2.59544 11.4915 2.43814 11.5721 2.30706C11.6258 2.17597 11.7332 2.04489 11.8676 1.96624C12.0019 1.86138 12.1631 1.78273 12.3242 1.75651C12.5123 1.70408 12.7272 1.67786 12.9152 1.67786C13.1839 1.67786 13.4256 1.70408 13.6943 1.78273C13.9092 1.83516 14.1241 1.91381 14.339 2.04489L13.9629 2.56922ZM17.5626 2.38571H16.2195V3.85383C16.2195 3.9587 16.2463 4.06357 16.2732 4.14222C16.3001 4.22087 16.3269 4.2733 16.3806 4.35195C16.4344 4.40438 16.4881 4.4306 16.5687 4.45682C16.6493 4.48303 16.703 4.48303 16.7836 4.48303C16.9179 4.48303 17.0254 4.45682 17.1328 4.40438C17.2403 4.35195 17.3746 4.29952 17.4821 4.24708L17.7776 4.85006C17.6164 4.95493 17.4821 5.03358 17.294 5.08601C17.106 5.16466 16.8911 5.19088 16.703 5.19088C16.3538 5.2171 16.0314 5.08601 15.7896 4.87628C15.5479 4.5879 15.4136 4.24708 15.4673 3.88005V2.38571H14.7688V1.70408H15.4673V0.681631H16.2195V1.70408H17.5626V2.38571ZM19.8998 1.62543C20.1416 1.62543 20.3565 1.67786 20.5714 1.75651C20.7594 1.83516 20.9475 1.96624 21.0818 2.12354C21.243 2.28084 21.3504 2.49057 21.431 2.67409C21.5116 2.91004 21.5653 3.14599 21.5385 3.40815C21.5385 3.46059 21.5385 3.51302 21.5385 3.53924C21.5385 3.56545 21.5385 3.61789 21.5385 3.67032H18.9596C18.9864 3.8014 19.0133 3.93248 19.0939 4.06357C19.1476 4.16843 19.2282 4.24708 19.3356 4.32573C19.4162 4.40438 19.5237 4.45681 19.658 4.48303C19.7655 4.50925 19.8998 4.53546 20.0072 4.53546C20.1953 4.53546 20.3833 4.50925 20.5445 4.4306C20.7057 4.37817 20.8937 4.2733 21.0281 4.16843L21.4042 4.69276C21.2161 4.85006 20.9743 4.98115 20.7326 5.0598C20.4908 5.13845 20.2222 5.16466 19.9804 5.16466C19.7386 5.16466 19.47 5.13845 19.2551 5.0598C19.0401 4.98115 18.8521 4.85006 18.6909 4.69276C18.5297 4.53546 18.3954 4.35195 18.3148 4.116C18.2342 3.88005 18.1805 3.6441 18.1805 3.38194C18.1805 3.14599 18.2074 2.88382 18.3148 2.64787C18.3954 2.43814 18.5029 2.25462 18.6641 2.07111C18.8252 1.91381 18.9864 1.78273 19.2013 1.70408C19.4162 1.65164 19.658 1.62543 19.8998 1.62543ZM19.8729 2.28084C19.7386 2.28084 19.6311 2.30706 19.5237 2.33327C19.4162 2.35949 19.3356 2.43814 19.2551 2.51679C19.1745 2.59544 19.1207 2.67409 19.067 2.77896C19.0133 2.88382 18.9864 3.0149 18.9596 3.11977H20.7594C20.7326 2.88382 20.6251 2.67409 20.4639 2.49057C20.3027 2.35949 20.1147 2.28084 19.8729 2.28084ZM24.1711 1.62543C24.2786 1.62543 24.386 1.62543 24.4935 1.65164C24.5741 1.67786 24.6815 1.70408 24.7621 1.73029L24.5741 2.43814C24.4935 2.38571 24.386 2.35949 24.3054 2.33327C24.198 2.30706 24.1174 2.30706 24.0099 2.30706C23.9025 2.30706 23.795 2.33327 23.6876 2.35949C23.5801 2.38571 23.4995 2.46436 23.4189 2.54301C23.3383 2.62166 23.2846 2.72652 23.2577 2.83139C23.204 2.96247 23.204 3.09355 23.204 3.22464V5.08601H22.425V1.67786H23.1772V2.07111C23.2846 1.91381 23.4189 1.80894 23.607 1.73029C23.7682 1.65164 23.9831 1.62543 24.1711 1.62543ZM26.7769 1.62543C27.0187 1.62543 27.2873 1.67786 27.5022 1.75651C27.7171 1.83516 27.9052 1.99246 28.0663 2.14976L27.5828 2.64787C27.4753 2.54301 27.341 2.46436 27.2067 2.38571C27.0724 2.33327 26.9112 2.28084 26.75 2.28084C26.6157 2.28084 26.4814 2.30706 26.3471 2.35949C26.2127 2.41192 26.1053 2.49057 26.0247 2.59544C25.9172 2.70031 25.8635 2.80517 25.8098 2.93625C25.7023 3.22464 25.7023 3.53924 25.8098 3.82762C25.8635 3.9587 25.9441 4.06357 26.0247 4.16843C26.1053 4.2733 26.2396 4.35195 26.3471 4.37816C26.4814 4.4306 26.6157 4.45682 26.75 4.45682C26.9112 4.45682 27.0724 4.4306 27.2067 4.35195C27.341 4.2733 27.4753 4.19465 27.5828 4.08978L28.0395 4.61411C27.8783 4.79763 27.6903 4.92871 27.4753 5.00736C27.2336 5.11223 26.9918 5.13845 26.75 5.13845C26.4814 5.13845 26.2396 5.08601 25.9978 5.00736C25.568 4.85006 25.2188 4.48303 25.0576 4.06357C24.8964 3.61789 24.8964 3.09355 25.0576 2.64787C25.2188 2.22841 25.568 1.88759 25.9978 1.70408C26.2665 1.65164 26.5082 1.59921 26.7769 1.62543ZM32.1228 5.11223H31.3706V4.71898C31.2363 4.87628 31.1019 4.98115 30.9139 5.08601C30.7258 5.19088 30.4841 5.21709 30.2692 5.21709C29.8125 5.21709 29.3558 5.03358 29.0334 4.71898C28.8722 4.56168 28.7379 4.35195 28.6573 4.14222C28.4693 3.67032 28.4693 3.1722 28.6573 2.70031C28.7379 2.49057 28.8722 2.30706 29.0334 2.12354C29.3558 1.80894 29.8125 1.62543 30.2692 1.62543C30.4841 1.62543 30.699 1.67786 30.9139 1.75651C31.1019 1.83516 31.2363 1.96624 31.3706 2.12354V1.70408H32.1228V5.11223ZM30.3498 2.30706C30.1886 2.30706 30.0543 2.33327 29.9199 2.38571C29.7856 2.43814 29.6782 2.51679 29.5976 2.62166C29.517 2.72652 29.4364 2.83139 29.3827 2.96247C29.2752 3.22464 29.2752 3.53924 29.3827 3.8014C29.4364 3.93248 29.4901 4.03735 29.5976 4.14222C29.6782 4.24708 29.8125 4.32573 29.9199 4.37816C30.1886 4.48303 30.5109 4.48303 30.7796 4.37816C30.9139 4.32573 31.0213 4.24708 31.1019 4.14222C31.1825 4.03735 31.2631 3.93248 31.3168 3.8014C31.4243 3.51302 31.4243 3.22464 31.3168 2.93625C31.2631 2.80517 31.1825 2.70031 31.1019 2.59544C31.0213 2.49057 30.887 2.41192 30.7796 2.35949C30.6453 2.33327 30.5109 2.30706 30.3498 2.30706ZM34.9972 1.62543C35.1046 1.62543 35.2121 1.62543 35.3195 1.65164C35.4001 1.67786 35.5076 1.70408 35.5882 1.73029L35.4001 2.46436C35.3195 2.41192 35.2121 2.38571 35.1315 2.35949C35.024 2.33327 34.9434 2.33327 34.836 2.33327C34.7285 2.33327 34.6211 2.35949 34.5136 2.38571C34.4062 2.41192 34.3256 2.49057 34.245 2.56922C34.1644 2.64787 34.1107 2.75274 34.0838 2.8576C34.0301 2.98869 34.0301 3.11977 34.0301 3.25085V5.11223H33.2779V1.70408H34.0301V2.09732C34.1375 1.94003 34.2718 1.80894 34.4599 1.75651C34.5942 1.65164 34.8091 1.62543 34.9972 1.62543ZM37.4955 1.62543C37.7104 1.62543 37.9253 1.67786 38.1402 1.75651C38.3283 1.83516 38.4626 1.96624 38.5969 2.12354V0H39.3491V5.11223H38.5969V4.71898C38.4626 4.87628 38.3283 4.98115 38.1402 5.08601C37.9522 5.19088 37.7104 5.21709 37.4955 5.21709C37.0388 5.21709 36.5821 5.03358 36.2598 4.71898C36.0986 4.56168 35.9643 4.35195 35.8837 4.14222C35.6956 3.67032 35.6956 3.1722 35.8837 2.70031C35.9643 2.49057 36.0986 2.30706 36.2598 2.12354C36.5821 1.78273 37.0119 1.62543 37.4955 1.62543ZM40.2356 4.79763C40.2624 4.79763 40.2893 4.79763 40.3162 4.82385C40.343 4.82385 40.3699 4.85006 40.3968 4.87628C40.4236 4.9025 40.4236 4.92871 40.4505 4.95493C40.4774 5.00736 40.4774 5.0598 40.4505 5.11223C40.4505 5.13845 40.4236 5.16466 40.3968 5.19088C40.3699 5.2171 40.343 5.2171 40.3162 5.24331C40.2893 5.24331 40.2624 5.26953 40.2356 5.26953C40.155 5.26953 40.0744 5.21709 40.0207 5.13845C39.9938 5.08601 39.9938 5.03358 40.0207 4.98115C40.0475 4.92871 40.0744 4.87628 40.1281 4.87628C40.1819 4.79763 40.2087 4.79763 40.2356 4.79763ZM40.2356 5.19088C40.2624 5.19088 40.2893 5.19088 40.2893 5.19088C40.3162 5.19088 40.3162 5.16466 40.343 5.16466C40.3968 5.08601 40.3968 4.98115 40.343 4.92871C40.3162 4.9025 40.3162 4.9025 40.2893 4.9025C40.2624 4.9025 40.2356 4.9025 40.2356 4.9025C40.2087 4.9025 40.1819 4.9025 40.1819 4.9025C40.1013 4.95493 40.0475 5.03358 40.1013 5.13845C40.1013 5.16466 40.1281 5.16466 40.1281 5.16466C40.155 5.19088 40.155 5.19088 40.1819 5.19088C40.1819 5.16466 40.2087 5.16466 40.2356 5.19088ZM40.2356 4.92871C40.2624 4.92871 40.2893 4.92871 40.2893 4.95493C40.3162 4.95493 40.3162 4.98115 40.3162 5.00736C40.3162 5.03358 40.3162 5.03358 40.2893 5.0598C40.2893 5.0598 40.2624 5.08601 40.2356 5.08601L40.2893 5.16466H40.2356L40.1819 5.08601H40.155V5.16466V4.95493L40.2356 4.92871ZM40.1819 4.95493V5.00736H40.2356H40.2624V4.98115V4.95493H40.2356H40.1819ZM37.5761 2.33327C37.4149 2.33327 37.2806 2.35949 37.1463 2.41192C37.0119 2.46436 36.9045 2.54301 36.8239 2.64787C36.7433 2.75274 36.6627 2.8576 36.609 2.98869C36.5015 3.25085 36.5015 3.56545 36.609 3.82762C36.6627 3.9587 36.7164 4.06357 36.8239 4.16843C36.9045 4.2733 37.0388 4.35195 37.1463 4.40438C37.4149 4.50925 37.7373 4.50925 38.0059 4.40438C38.1402 4.35195 38.2477 4.2733 38.3283 4.16843C38.4357 4.06357 38.5163 3.93248 38.57 3.8014C38.6775 3.51302 38.6775 3.22464 38.57 2.93625C38.5163 2.80517 38.4357 2.70031 38.3551 2.59544C38.2745 2.49057 38.1402 2.41192 38.0328 2.35949C37.8716 2.33327 37.7373 2.30706 37.5761 2.33327Z" fill="white"/>
</g>
</svg>
