<svg width="42" height="42" viewBox="0 0 42 42" fill="none" xmlns="http://www.w3.org/2000/svg">
<path opacity="0.2" d="M19.549 25.7848L14.8506 27.4949C13.6044 27.9485 12.2292 27.8884 11.0274 27.328C9.82552 26.7676 8.89554 25.7527 8.44199 24.5065C7.98844 23.2604 8.04849 21.8852 8.60891 20.6834C9.16934 19.4815 10.1842 18.5515 11.4304 18.098L16.1288 16.3879L19.549 25.7848Z" fill="white"/>
<path d="M16.1288 16.3879L21.4181 30.9201C21.4744 31.0748 21.4916 31.241 21.4683 31.4039C21.4449 31.5669 21.3817 31.7216 21.2842 31.8542L20.3064 33.1849C20.2115 33.3141 20.0869 33.4185 19.9433 33.4894C19.7996 33.5604 19.6409 33.5958 19.4807 33.5926C19.3205 33.5894 19.1634 33.5478 19.0226 33.4712C18.8819 33.3946 18.7616 33.2853 18.6719 33.1525L14.8506 27.4949" stroke="white" stroke-width="2" stroke-linecap="round" stroke-linejoin="round"/>
<path d="M14.8505 27.495C13.6044 27.9485 12.2292 27.8885 11.0273 27.328C9.82551 26.7676 8.89552 25.7527 8.44197 24.5066C7.98843 23.2605 8.04847 21.8852 8.6089 20.6834C9.16932 19.4816 10.1842 18.5516 11.4303 18.098L16.1288 16.3879C16.1288 16.3879 22.5248 14.06 26.8008 6.65762C26.8958 6.49258 27.0359 6.35809 27.2047 6.26996C27.3734 6.18183 27.5639 6.14373 27.7536 6.16013C27.9433 6.17653 28.1243 6.24676 28.2755 6.36255C28.4266 6.47835 28.5415 6.63489 28.6068 6.81377L35.2618 25.0984C35.3268 25.2774 35.3394 25.4712 35.2981 25.657C35.2567 25.8429 35.1632 26.0131 35.0284 26.1476C34.8936 26.282 34.7232 26.3753 34.5373 26.4162C34.3514 26.4572 34.1576 26.4443 33.9788 26.3789C25.945 23.4569 19.549 25.7849 19.549 25.7849L14.8505 27.495Z" stroke="white" stroke-width="2" stroke-linecap="round" stroke-linejoin="round"/>
</svg>
