<svg width="24" height="24" viewBox="0 0 24 24" fill="none" xmlns="http://www.w3.org/2000/svg">
<rect opacity="0.1" width="24" height="24" rx="8" fill="#9E6033"/>
<path opacity="0.2" d="M7.1875 14.625V8.9375C7.1875 8.70544 7.27969 8.48288 7.44378 8.31878C7.60788 8.15469 7.83044 8.0625 8.0625 8.0625H15.9375C16.1696 8.0625 16.3921 8.15469 16.5562 8.31878C16.7203 8.48288 16.8125 8.70544 16.8125 8.9375V14.625H7.1875Z" fill="#9E6033"/>
<path d="M7.1875 14.625V8.9375C7.1875 8.70544 7.27969 8.48288 7.44378 8.31878C7.60788 8.15469 7.83044 8.0625 8.0625 8.0625H15.9375C16.1696 8.0625 16.3921 8.15469 16.5562 8.31878C16.7203 8.48288 16.8125 8.70544 16.8125 8.9375V14.625" stroke="#9E6033" stroke-width="1.13" stroke-linecap="round" stroke-linejoin="round"/>
<path d="M6.3125 14.625H17.6875V15.5C17.6875 15.7321 17.5953 15.9546 17.4312 16.1187C17.2671 16.2828 17.0446 16.375 16.8125 16.375H7.1875C6.95544 16.375 6.73288 16.2828 6.56878 16.1187C6.40469 15.9546 6.3125 15.7321 6.3125 15.5V14.625Z" stroke="#9E6033" stroke-width="1.13" stroke-linecap="round" stroke-linejoin="round"/>
<path d="M12.875 9.8125H11.125" stroke="#9E6033" stroke-width="0.875" stroke-linecap="round" stroke-linejoin="round"/>
</svg>
