<svg width="32" height="32" viewBox="0 0 32 32" fill="none" xmlns="http://www.w3.org/2000/svg">
<rect x="0.5" y="0.5" width="31" height="31" rx="15.5" fill="white" stroke="#F3F4F4"/>
<path opacity="0.2" d="M9.8125 19.375V12.0625C9.8125 11.7641 9.93103 11.478 10.142 11.267C10.353 11.056 10.6391 10.9375 10.9375 10.9375H21.0625C21.3609 10.9375 21.647 11.056 21.858 11.267C22.069 11.478 22.1875 11.7641 22.1875 12.0625V19.375H9.8125Z" fill="#3483E4"/>
<path d="M9.8125 19.375V12.0625C9.8125 11.7641 9.93103 11.478 10.142 11.267C10.353 11.056 10.6391 10.9375 10.9375 10.9375H21.0625C21.3609 10.9375 21.647 11.056 21.858 11.267C22.069 11.478 22.1875 11.7641 22.1875 12.0625V19.375" stroke="#3483E4" stroke-width="1.125" stroke-linecap="round" stroke-linejoin="round"/>
<path d="M8.6875 19.375H23.3125V20.5C23.3125 20.7984 23.194 21.0845 22.983 21.2955C22.772 21.5065 22.4859 21.625 22.1875 21.625H9.8125C9.51413 21.625 9.22798 21.5065 9.017 21.2955C8.80603 21.0845 8.6875 20.7984 8.6875 20.5V19.375Z" stroke="#3483E4" stroke-width="1.125" stroke-linecap="round" stroke-linejoin="round"/>
<path d="M17.125 13.1875H14.875" stroke="#3483E4" stroke-width="1.125" stroke-linecap="round" stroke-linejoin="round"/>
</svg>
