<svg width="441" height="294" viewBox="0 0 441 294" fill="none" xmlns="http://www.w3.org/2000/svg">
<path d="M129.291 71.8896L63.3174 116.022L128.302 213.168L194.276 169.035L129.291 71.8896Z" fill="white"/>
<path d="M160.183 164.44L159.436 169.074L126.638 164.346L127.384 159.713L160.183 164.44Z" fill="#E0E0E0"/>
<path d="M143.666 147.911L148.37 148.588L143.155 180.881L138.445 180.198L143.666 147.911Z" fill="#E0E0E0"/>
<path d="M113.484 106.869C113.531 106.934 106.922 111.444 98.7196 116.924C90.517 122.404 83.8315 126.802 83.7844 126.732C83.7374 126.661 90.3465 122.157 98.5491 116.671C106.752 111.185 113.408 106.798 113.484 106.869Z" fill="#E0E0E0"/>
<path d="M137.722 100.777C137.769 100.848 126.773 108.28 113.167 117.382C99.5606 126.485 88.4709 133.805 88.4356 133.741C88.4004 133.676 99.3724 126.232 112.996 117.13C126.62 108.027 137.675 100.707 137.722 100.777Z" fill="#E0E0E0"/>
<path d="M142.585 108.045C142.632 108.116 131.636 115.554 118.03 124.656C104.423 133.758 93.3337 141.079 93.2984 141.008C93.2631 140.938 104.247 133.505 117.859 124.397C131.471 115.289 142.538 107.974 142.585 108.045Z" fill="#E0E0E0"/>
<path d="M147.447 115.319C147.494 115.389 136.499 122.827 122.892 131.924C109.286 141.02 98.1963 148.352 98.1963 148.282C98.1963 148.211 109.139 140.773 122.751 131.671C136.363 122.569 147.4 115.248 147.447 115.319Z" fill="#E0E0E0"/>
<path d="M152.293 122.592C152.34 122.663 141.344 130.095 127.738 139.197C114.131 148.299 103.042 155.62 103.012 155.55C102.983 155.479 113.973 148.047 127.597 138.944C141.221 129.842 152.293 122.522 152.293 122.592Z" fill="#E0E0E0"/>
<path d="M349.901 136.983L294.493 174.047L349.068 255.632L404.475 218.567L349.901 136.983Z" fill="white"/>
<path d="M375.85 214.726L375.221 218.618L347.673 214.649L348.308 210.757L375.85 214.726Z" fill="#E0E0E0"/>
<path d="M361.979 200.843L365.93 201.414L361.55 228.532L357.592 227.962L361.979 200.843Z" fill="#E0E0E0"/>
<path d="M336.607 166.404C336.654 166.475 331.109 170.267 324.218 174.871C317.326 179.475 311.705 183.156 311.658 183.103C311.611 183.05 317.162 179.246 324.047 174.636C330.933 170.026 336.56 166.304 336.607 166.404Z" fill="#E0E0E0"/>
<path d="M356.981 161.259C357.028 161.33 347.802 167.586 336.401 175.224C324.999 182.862 315.668 189.013 315.621 188.942C315.574 188.871 324.799 182.615 336.201 174.971C347.602 167.327 356.916 161.188 356.981 161.259Z" fill="#E0E0E0"/>
<path d="M361.068 167.362C361.115 167.433 351.889 173.689 340.488 181.333C329.086 188.977 319.755 195.116 319.708 195.045C319.661 194.975 328.857 188.748 340.288 181.104C351.718 173.46 361.032 167.298 361.068 167.362Z" fill="#E0E0E0"/>
<path d="M365.148 173.46C365.195 173.531 355.964 179.787 344.568 187.431C333.173 195.075 323.835 201.214 323.788 201.143C323.741 201.072 332.967 194.822 344.368 187.172C355.77 179.522 365.107 173.401 365.148 173.46Z" fill="#E0E0E0"/>
<path d="M369.264 179.581C369.311 179.652 360.086 185.902 348.684 193.546C337.283 201.19 327.952 207.329 327.904 207.264C327.857 207.199 337.083 200.937 348.484 193.293C359.886 185.649 369.188 179.511 369.264 179.581Z" fill="#E0E0E0"/>
<path d="M262.243 75.4636L201.787 43.1284L154.174 132.149L214.631 164.484L262.243 75.4636Z" fill="white"/>
<path d="M204.283 136.634L200.449 137.945L190.712 111.032L194.552 109.715L204.283 136.634Z" fill="#E0E0E0"/>
<path d="M210.163 117.324L211.563 121.187L184.832 130.342L183.433 126.479L210.163 117.324Z" fill="#E0E0E0"/>
<path d="M229.155 77.616C229.108 77.7042 222.981 74.5172 215.461 70.5012C207.94 66.4852 201.89 63.1512 201.937 63.063C201.984 62.9748 208.117 66.1618 215.637 70.1778C223.158 74.1938 229.202 77.5219 229.155 77.616Z" fill="#E0E0E0"/>
<path d="M243.667 93.6272C243.62 93.7154 233.471 88.3764 221 81.7085C208.528 75.0406 198.462 69.5604 198.509 69.4722C198.556 69.384 208.699 74.7172 221.17 81.391C233.642 88.0648 243.714 93.539 243.667 93.6272Z" fill="#E0E0E0"/>
<path d="M240.104 100.289C240.057 100.377 229.908 95.0443 217.436 88.3705C204.965 81.6967 194.898 76.2224 194.945 76.1342C194.993 76.046 205.136 81.3851 217.607 88.053C230.078 94.7209 240.151 100.201 240.104 100.289Z" fill="#E0E0E0"/>
<path d="M236.541 106.951C236.494 107.04 226.345 101.706 213.873 95.0384C201.402 88.3705 191.335 82.908 191.382 82.8022C191.43 82.6963 201.573 88.0471 214.044 94.715C226.515 101.383 236.588 106.863 236.541 106.951Z" fill="#E0E0E0"/>
<path d="M232.977 113.613C232.93 113.702 222.782 108.368 210.31 101.7C197.839 95.0326 187.766 89.5524 187.819 89.4642C187.872 89.376 198.009 94.7092 210.481 101.377C222.952 108.045 233.024 113.525 232.977 113.613Z" fill="#E0E0E0"/>
<path opacity="0.2" d="M233.289 0H231.772V25.8602H233.289V0Z" fill="black"/>
<path d="M197.115 57.1477H267.946C267.946 57.1477 261.407 25.872 231.995 25.872C205.835 25.872 197.115 57.1477 197.115 57.1477Z" fill="#CBCDD1"/>
<path d="M233.289 0H231.772V25.8602H233.289V0Z" fill="#CBCDD1"/>
<path d="M390.238 258.62C390.238 258.702 314.239 258.773 220.506 258.773C126.773 258.773 50.7622 258.72 50.7622 258.62C50.7622 258.52 126.749 258.467 220.506 258.467C314.263 258.467 390.238 258.532 390.238 258.62Z" fill="#263238"/>
<path d="M69.554 221.794C70.5481 221.865 71.5176 222.137 72.4046 222.591C73.2916 223.046 74.0779 223.674 74.7166 224.44C75.9866 225.979 76.8859 227.79 77.345 229.732C78.3387 233.448 77.7272 237.84 76.6688 241.539C72.6469 240.098 70.1596 235.806 69.0248 233.548C67.2608 229.984 66.2083 222.458 69.5364 221.788" fill="#CBCDD1"/>
<path d="M82.4604 246.049C81.8564 245.112 81.5111 244.032 81.4594 242.919C81.4078 241.806 81.6517 240.698 82.1664 239.71C82.6971 238.731 83.4177 237.867 84.2859 237.17C85.1542 236.472 86.1527 235.954 87.2231 235.647C88.2051 235.341 89.3458 235.218 90.1984 235.788C90.5828 236.079 90.8821 236.467 91.0652 236.913C91.2482 237.359 91.3083 237.845 91.2392 238.322C91.0849 239.278 90.679 240.175 90.0632 240.921C88.1052 243.573 85.7296 245.778 82.4192 246.049" fill="#CBCDD1"/>
<path d="M82.9077 258.473C82.8204 258.223 82.7593 257.965 82.7254 257.703C82.6196 257.15 82.4784 256.439 82.3079 255.586C81.7801 253.251 81.6332 250.847 81.8728 248.465C82.15 246.072 83.0615 243.797 84.5129 241.874C84.9564 241.299 85.4677 240.78 86.0358 240.327C86.1902 240.205 86.3512 240.091 86.518 239.986C86.5711 239.942 86.6305 239.907 86.6944 239.88C85.9506 240.516 85.2712 241.223 84.6658 241.991C83.2909 243.916 82.4252 246.157 82.1492 248.506C81.7728 251.247 82.2374 253.757 82.5078 255.562C82.649 256.462 82.7666 257.191 82.8312 257.697C82.8776 257.953 82.9031 258.213 82.9077 258.473Z" fill="#263238"/>
<path d="M70.8477 227.456C70.9148 227.549 70.9701 227.649 71.0123 227.756C71.1181 227.991 71.2593 228.285 71.4239 228.656C71.7826 229.438 72.2824 230.572 72.888 231.978C74.0993 234.794 75.7222 238.71 77.4156 243.073C79.1091 247.436 80.5497 251.417 81.5316 254.316C82.0373 255.762 82.4313 256.938 82.7076 257.756C82.8311 258.144 82.9252 258.455 83.0016 258.696C83.0436 258.805 83.0732 258.917 83.0898 259.032C83.0302 258.932 82.9828 258.825 82.9487 258.714C82.8605 258.479 82.7488 258.173 82.6018 257.791L81.3611 254.381C80.3086 251.505 78.8386 247.53 77.151 243.173C75.4635 238.816 73.8641 234.888 72.6999 232.054C72.1119 230.661 71.6591 229.526 71.3239 228.697C71.1711 228.32 71.0476 228.021 70.9535 227.779C70.9093 227.675 70.8739 227.567 70.8477 227.456Z" fill="#263238"/>
<path d="M78.1272 250.253C76.9172 248.238 75.2453 246.541 73.2494 245.301C71.2536 244.061 68.9913 243.313 66.6494 243.12C65.4734 243.038 64.0269 243.238 63.4977 244.296C62.9685 245.355 63.6741 246.648 64.4856 247.507C66.2096 249.31 68.429 250.563 70.864 251.107C73.299 251.651 75.8405 251.463 78.1683 250.564" fill="#CBCDD1"/>
<path d="M68.4605 246.307C68.7098 246.295 68.9597 246.305 69.2072 246.337C69.4971 246.352 69.7858 246.386 70.0716 246.437C70.4068 246.501 70.8007 246.537 71.2123 246.654C71.6724 246.752 72.126 246.877 72.5706 247.031C73.0857 247.196 73.5903 247.392 74.0818 247.619C75.2122 248.125 76.2813 248.758 77.2687 249.506C78.2447 250.272 79.1287 251.148 79.903 252.117C80.2373 252.539 80.5456 252.98 80.8261 253.44C81.0797 253.836 81.3113 254.247 81.52 254.669C81.6966 255.012 81.8537 255.366 81.9904 255.727C82.1083 255.995 82.2084 256.27 82.2902 256.55C82.3773 256.785 82.4423 257.027 82.4843 257.274C82.4196 257.274 82.1374 256.262 81.3436 254.757C81.1274 254.353 80.8899 253.96 80.6321 253.581C80.3455 253.135 80.0354 252.706 79.703 252.293C78.1651 250.393 76.2038 248.878 73.9759 247.871C73.4644 247.648 72.9763 247.436 72.5 247.283C72.0628 247.124 71.6172 246.989 71.1653 246.878C69.5189 246.425 68.4546 246.372 68.4605 246.307Z" fill="#263238"/>
<path d="M335.372 62.0222C333.643 62.4162 332.802 64.4095 332.638 66.1735C332.473 67.9375 332.696 69.8074 331.956 71.4185C331.121 73.2295 329.127 74.5702 329.063 76.5635C329.021 77.7806 329.745 78.9155 329.709 80.1444C329.651 82.1436 327.616 83.6724 327.504 85.6481C327.428 87.0887 328.386 88.4646 328.157 89.8876C327.981 90.993 327.116 91.8632 326.752 92.9216C326.028 95.0384 327.481 97.361 329.368 98.5488C330.426 99.2136 331.616 99.6395 332.855 99.7967C334.094 99.954 335.352 99.8387 336.542 99.4591C337.732 99.0794 338.825 98.4445 339.744 97.5987C340.663 96.7528 341.386 95.7165 341.863 94.5622C342.91 92.022 342.681 89.1584 342.451 86.4242C341.746 77.8943 341.22 69.3526 340.875 60.7992" fill="#263238"/>
<path d="M330.35 92.1161C330.706 91.895 330.983 91.5681 331.144 91.1812C331.314 90.721 331.382 90.2295 331.344 89.7406C331.279 89.0922 331.135 88.4543 330.915 87.8413C330.633 87.0708 330.529 86.2469 330.609 85.4305C330.756 84.5132 331.414 83.7606 332.008 83.0197C332.328 82.6571 332.595 82.2513 332.802 81.8143C333.009 81.3724 333.043 80.8687 332.896 80.4031C332.59 79.4447 331.65 78.7391 331.22 77.6278C331.019 77.0776 330.986 76.4797 331.126 75.9108C331.26 75.3774 331.457 74.8621 331.714 74.3761C332.211 73.5009 332.605 72.5717 332.89 71.6066C333.302 69.7427 333.108 67.961 333.39 66.4969C333.547 65.3243 334.067 64.2303 334.878 63.3688C335.107 63.1367 335.368 62.9387 335.654 62.7808C335.752 62.7295 335.857 62.6919 335.965 62.669C335.597 62.8719 335.259 63.1252 334.96 63.4217C334.209 64.2918 333.736 65.3671 333.602 66.5087C333.499 67.2886 333.444 68.074 333.437 68.8607C333.435 69.7864 333.345 70.7099 333.167 71.6184C332.886 72.6056 332.491 73.5567 331.991 74.4526C331.55 75.3757 331.144 76.4576 331.532 77.469C331.92 78.4804 332.855 79.1801 333.214 80.262C333.376 80.7965 333.336 81.3718 333.102 81.879C332.873 82.36 332.576 82.8055 332.22 83.202C331.632 83.9429 330.991 84.6485 330.85 85.4717C330.768 86.2525 330.86 87.0418 331.12 87.7825C331.33 88.4146 331.461 89.0704 331.508 89.7347C331.537 90.2463 331.447 90.7577 331.244 91.2282C331.117 91.5232 330.914 91.779 330.656 91.9691C330.564 92.0364 330.46 92.0863 330.35 92.1161Z" fill="#455A64"/>
<path d="M325.752 106.058L320.46 121.346L298.328 122.522L294.635 130.754L317.744 133.106C318.835 133.554 320.007 133.776 321.187 133.759C322.367 133.742 323.531 133.485 324.61 133.006C325.688 132.526 326.658 131.833 327.46 130.967C328.263 130.102 328.882 129.083 329.28 127.972L335.448 110.756L325.752 106.058Z" fill="#E0E0E0"/>
<path d="M371.504 250.312C371.504 250.312 355.287 198.791 354.94 197.121C354.629 195.604 360.82 158.531 361.608 148.905L339.693 149.722V149.94L330.379 150.457L338.717 255.78H348.801L347.802 220.823C354.023 237.517 362.937 254.533 362.937 254.533L371.504 250.312Z" fill="#E0E0E0"/>
<path d="M348.213 233.365C348.213 233.048 348.09 221.652 348.09 221.652C347.966 222.335 344.227 211.762 344.315 211.121C344.362 210.786 348.213 233.365 348.213 233.365Z" fill="#F7F8FB"/>
<path d="M343.892 206.112C343.84 206.321 343.818 206.537 343.827 206.753C343.795 207.34 343.795 207.929 343.827 208.517C343.827 208.887 343.88 209.287 343.927 209.722C343.974 210.157 344.039 210.616 344.139 211.092C344.348 212.132 344.625 213.157 344.968 214.161C345.697 216.296 346.508 218.16 347.079 219.512C347.349 220.1 347.584 220.659 347.784 221.106C347.856 221.314 347.955 221.511 348.078 221.694C348.047 221.49 347.988 221.293 347.902 221.106C347.767 220.718 347.561 220.159 347.314 219.471C346.797 218.095 346.02 216.213 345.297 214.103C344.955 213.113 344.674 212.104 344.456 211.08C344.35 210.61 344.28 210.157 344.215 209.734C344.151 209.31 344.103 208.911 344.074 208.558C344.004 207.829 343.974 207.241 343.956 206.829C343.968 206.588 343.946 206.347 343.892 206.112Z" fill="#F7F8FB"/>
<path d="M338.529 256.315V255.368L348.86 254.916L348.89 258.826L348.255 258.867C345.415 259.032 333.819 259.514 331.926 258.943C329.803 258.308 338.529 256.315 338.529 256.315Z" fill="#455A64"/>
<path d="M349.025 258.591C348.966 258.594 348.907 258.594 348.849 258.591L348.343 258.626L346.473 258.708C344.897 258.773 342.716 258.832 340.311 258.843C337.906 258.855 335.719 258.814 334.137 258.767L332.273 258.691H331.761H331.585C331.644 258.686 331.703 258.686 331.761 258.691H332.273L334.143 258.726C335.719 258.726 337.9 258.773 340.305 258.761C342.71 258.749 344.897 258.708 346.473 258.667L348.343 258.62H349.025V258.591Z" fill="#263238"/>
<path d="M335.16 258.92C335.074 258.612 334.956 258.315 334.807 258.032C334.621 257.771 334.406 257.533 334.167 257.321C334.487 257.435 334.754 257.666 334.913 257.967C335.108 258.245 335.195 258.583 335.16 258.92Z" fill="#263238"/>
<path d="M338.206 257.373C338.206 257.373 338.035 257.215 337.883 256.98C337.73 256.744 337.636 256.539 337.665 256.521C337.694 256.503 337.836 256.674 337.988 256.909C338.141 257.144 338.235 257.356 338.206 257.373Z" fill="#263238"/>
<path d="M339.041 256.956C339.041 256.985 338.853 256.874 338.676 256.715C338.5 256.556 338.37 256.409 338.394 256.386C338.417 256.362 338.582 256.468 338.758 256.627C338.935 256.785 339.064 256.903 339.041 256.956Z" fill="#263238"/>
<path d="M339.564 255.956C339.391 256.02 339.207 256.044 339.023 256.027C338.843 256.051 338.66 256.033 338.488 255.974C338.659 255.911 338.842 255.887 339.023 255.903C339.205 255.879 339.391 255.897 339.564 255.956Z" fill="#263238"/>
<path d="M339.74 255.274C339.565 255.388 339.361 255.449 339.152 255.451C338.953 255.477 338.749 255.449 338.564 255.368C338.759 255.336 338.955 255.32 339.152 255.321C339.346 255.287 339.543 255.271 339.74 255.274Z" fill="#263238"/>
<path d="M337.859 256.474C337.64 256.515 337.414 256.515 337.195 256.474C336.957 256.445 336.723 256.394 336.495 256.321C336.354 256.282 336.218 256.227 336.089 256.156C336.011 256.11 335.952 256.037 335.925 255.951C335.914 255.901 335.917 255.85 335.935 255.803C335.953 255.756 335.984 255.716 336.024 255.686C336.187 255.607 336.366 255.565 336.547 255.564C336.728 255.562 336.907 255.601 337.071 255.677C337.235 255.752 337.38 255.864 337.496 256.003C337.612 256.142 337.696 256.305 337.741 256.48C337.753 256.538 337.753 256.598 337.741 256.656C337.675 256.444 337.571 256.245 337.436 256.068C337.279 255.892 337.075 255.765 336.848 255.704C336.587 255.619 336.305 255.641 336.06 255.762C335.96 255.839 336.001 255.962 336.113 256.033C336.233 256.098 336.359 256.151 336.489 256.192C336.71 256.264 336.936 256.321 337.165 256.362C337.606 256.456 337.859 256.456 337.859 256.474Z" fill="#263238"/>
<path d="M337.688 256.509C337.603 256.373 337.573 256.208 337.606 256.05C337.627 255.878 337.69 255.712 337.788 255.568C337.843 255.47 337.922 255.387 338.018 255.328C338.114 255.268 338.223 255.234 338.335 255.227C338.402 255.243 338.46 255.283 338.498 255.34C338.536 255.396 338.552 255.465 338.541 255.533C338.526 255.638 338.488 255.739 338.429 255.827C338.34 255.973 338.235 256.109 338.117 256.233C338.015 256.35 337.886 256.441 337.741 256.497C337.741 256.497 337.87 256.38 338.053 256.168C338.159 256.047 338.251 255.915 338.329 255.774C338.417 255.633 338.482 255.38 338.329 255.351C338.176 255.321 338 255.504 337.9 255.633C337.806 255.761 337.742 255.907 337.712 256.062C337.688 256.21 337.68 256.36 337.688 256.509Z" fill="#263238"/>
<path d="M348.807 255.78C348.807 255.78 348.513 255.78 348.049 255.809C347.444 255.882 346.872 256.122 346.397 256.504C345.922 256.885 345.563 257.392 345.362 257.967C345.209 258.408 345.197 258.708 345.174 258.702C345.15 258.696 345.174 258.626 345.174 258.497C345.189 258.307 345.224 258.12 345.279 257.938C345.467 257.336 345.826 256.802 346.314 256.403C346.808 256.011 347.408 255.776 348.037 255.727C348.232 255.704 348.43 255.704 348.625 255.727C348.688 255.737 348.749 255.755 348.807 255.78Z" fill="#263238"/>
<path d="M343.863 257.767C343.369 257.882 342.863 257.932 342.357 257.914C341.854 257.94 341.35 257.896 340.858 257.785C340.858 257.75 341.528 257.785 342.357 257.785C343.186 257.785 343.857 257.732 343.863 257.767Z" fill="#263238"/>
<path d="M345.873 257.75C345.873 257.75 345.82 257.891 345.75 258.044C345.679 258.197 345.644 258.338 345.609 258.332C345.573 258.326 345.556 258.173 345.638 257.991C345.72 257.809 345.85 257.72 345.873 257.75Z" fill="#263238"/>
<path d="M346.632 256.803C346.632 256.803 346.59 256.932 346.485 257.038C346.379 257.144 346.273 257.215 346.244 257.191C346.214 257.168 346.285 257.062 346.391 256.95C346.496 256.838 346.602 256.774 346.632 256.803Z" fill="#263238"/>
<path d="M347.714 256.368C347.714 256.403 347.573 256.403 347.42 256.456C347.267 256.509 347.161 256.591 347.132 256.568C347.102 256.544 347.19 256.403 347.379 256.339C347.567 256.274 347.725 256.333 347.714 256.368Z" fill="#263238"/>
<path d="M348.484 256.156C348.484 256.192 348.443 256.245 348.355 256.274C348.266 256.303 348.19 256.309 348.178 256.274C348.166 256.239 348.225 256.186 348.308 256.156C348.39 256.127 348.472 256.127 348.484 256.156Z" fill="#263238"/>
<path d="M362.731 255.404L362.343 254.539L371.581 249.9L373.21 253.428L372.622 253.728C370.099 255.039 359.721 260.225 357.757 260.484C355.587 260.796 362.731 255.404 362.731 255.404Z" fill="#455A64"/>
<path d="M373.245 253.175L373.092 253.269L372.639 253.504L370.969 254.351C369.558 255.051 367.594 255.998 365.401 256.997C363.208 257.997 361.197 258.849 359.738 259.455L358.004 260.155L357.533 260.337C357.479 260.362 357.422 260.38 357.363 260.39L357.522 260.313L357.986 260.108L359.703 259.373C361.155 258.749 363.155 257.879 365.348 256.88C367.541 255.88 369.511 254.951 370.934 254.269L372.616 253.463L373.08 253.246L373.245 253.175Z" fill="#263238"/>
<path d="M360.75 259.155C360.546 258.907 360.315 258.682 360.062 258.485C359.786 258.322 359.492 258.191 359.186 258.097C359.523 258.092 359.854 258.191 360.134 258.38C360.413 258.57 360.628 258.84 360.75 259.155Z" fill="#263238"/>
<path d="M362.872 256.497C362.872 256.497 362.649 256.427 362.414 256.274C362.179 256.121 362.008 255.974 362.026 255.945C362.043 255.915 362.249 256.015 362.484 256.168C362.719 256.321 362.89 256.468 362.872 256.497Z" fill="#263238"/>
<path d="M363.449 255.78C363.449 255.809 363.249 255.78 363.02 255.709C362.79 255.639 362.62 255.551 362.626 255.515C362.774 255.501 362.924 255.526 363.061 255.586C363.284 255.639 363.461 255.721 363.449 255.78Z" fill="#263238"/>
<path d="M363.531 254.651C363.531 254.686 363.337 254.81 363.066 254.939C362.91 255.033 362.736 255.091 362.555 255.11C362.555 255.074 362.749 254.951 363.013 254.822C363.172 254.728 363.348 254.67 363.531 254.651Z" fill="#263238"/>
<path d="M363.413 253.957C363.413 253.957 363.243 254.192 362.937 254.363C362.764 254.481 362.559 254.542 362.349 254.539C362.518 254.426 362.697 254.33 362.884 254.251C363.172 254.092 363.384 253.928 363.413 253.957Z" fill="#263238"/>
<path d="M362.208 255.827C362.029 255.95 361.83 256.042 361.62 256.098C361.389 256.165 361.153 256.214 360.914 256.245C360.77 256.262 360.624 256.262 360.479 256.245C360.388 256.238 360.304 256.195 360.244 256.127C360.217 256.085 360.202 256.036 360.202 255.986C360.202 255.936 360.217 255.887 360.244 255.845C360.423 255.628 360.671 255.48 360.947 255.427C361.223 255.373 361.508 255.417 361.755 255.551C361.901 255.627 362.029 255.733 362.131 255.862C362.202 255.956 362.231 256.015 362.226 256.021C362.081 255.859 361.907 255.726 361.714 255.627C361.507 255.53 361.276 255.495 361.05 255.527C360.915 255.541 360.784 255.582 360.665 255.646C360.546 255.711 360.441 255.798 360.356 255.903C360.291 256.015 360.356 256.109 360.514 256.127C360.649 256.139 360.785 256.139 360.92 256.127C361.154 256.103 361.386 256.062 361.614 256.003C361.949 255.909 362.208 255.809 362.208 255.827Z" fill="#263238"/>
<path d="M362.043 255.927C361.912 255.834 361.82 255.696 361.785 255.539C361.733 255.374 361.721 255.198 361.749 255.027C361.76 254.914 361.798 254.806 361.862 254.712C361.926 254.619 362.013 254.543 362.114 254.492C362.261 254.445 362.602 254.745 362.626 254.857C362.649 254.969 362.455 254.91 362.443 255.004C362.424 255.171 362.385 255.335 362.326 255.492C362.283 255.643 362.202 255.781 362.09 255.892C362.09 255.892 362.161 255.733 362.243 255.468C362.285 255.312 362.315 255.153 362.332 254.992C362.332 254.827 362.332 254.575 362.143 254.616C361.955 254.657 361.902 254.886 361.861 255.051C361.825 255.204 361.825 255.363 361.861 255.515C361.91 255.658 361.971 255.795 362.043 255.927Z" fill="#263238"/>
<path d="M371.892 250.7C371.892 250.7 371.61 250.8 371.21 251.041C370.687 251.353 370.262 251.805 369.981 252.346C369.709 252.892 369.593 253.502 369.646 254.11C369.682 254.58 369.793 254.851 369.77 254.863C369.732 254.804 369.702 254.741 369.682 254.675C369.623 254.495 369.582 254.31 369.558 254.122C369.474 253.496 369.582 252.859 369.869 252.296C370.156 251.733 370.607 251.27 371.163 250.97C371.33 250.878 371.505 250.803 371.687 250.747C371.753 250.721 371.822 250.705 371.892 250.7Z" fill="#263238"/>
<path d="M368.194 254.545C367.365 255.122 366.439 255.544 365.46 255.792C365.46 255.756 366.077 255.521 366.83 255.204C367.583 254.886 368.176 254.516 368.194 254.545Z" fill="#263238"/>
<path d="M370.022 253.704C370.052 253.704 370.022 253.851 370.022 254.022C370.022 254.192 370.022 254.334 370.022 254.345C370.022 254.357 369.905 254.216 369.905 254.022C369.905 253.828 369.993 253.687 370.022 253.704Z" fill="#263238"/>
<path d="M370.322 252.528C370.352 252.528 370.322 252.664 370.287 252.805C370.252 252.946 370.164 253.052 370.134 253.04C370.105 253.028 370.134 252.905 370.169 252.764C370.205 252.622 370.287 252.517 370.322 252.528Z" fill="#263238"/>
<path d="M371.134 251.664C371.134 251.699 371.017 251.752 370.899 251.864C370.781 251.976 370.717 252.093 370.687 252.081C370.658 252.07 370.687 251.905 370.817 251.77C370.946 251.635 371.128 251.664 371.134 251.664Z" fill="#263238"/>
<path d="M371.751 251.182C371.751 251.182 371.751 251.276 371.681 251.341C371.61 251.405 371.546 251.441 371.522 251.417C371.498 251.394 371.522 251.323 371.593 251.258C371.663 251.194 371.728 251.158 371.751 251.182Z" fill="#263238"/>
<path d="M360.185 131.5L358.468 110.509L367.288 110.667C367.288 110.667 367.694 107.569 366.395 100.783C365.595 96.6202 362.826 94.0682 359.715 92.5512V92.4924L359.445 92.4218C356.884 91.2723 354.149 90.5588 351.354 90.3109L340.505 90.4344C340.505 90.4344 332.22 89.376 327.651 95.3089C325.887 97.5845 320.413 113.161 320.413 113.161L333.437 119.429L332.22 110.791C332.22 110.791 332.467 117.053 333.267 119.023C333.708 120.128 335.031 123.562 335.031 123.562L334.86 133.923L360.185 131.5Z" fill="#CBCDD1"/>
<path d="M354.205 107.463L352.594 114.319H367.782L366.783 102.818L354.205 107.463Z" fill="#CBCDD1"/>
<path d="M367.782 114.319C367.119 114.197 366.446 114.13 365.771 114.119C364.525 114.048 362.831 113.984 360.903 113.996C358.974 114.007 357.275 114.09 356.028 114.184C355.354 114.207 354.683 114.29 354.023 114.431C354.696 114.484 355.372 114.484 356.046 114.431C357.286 114.39 358.986 114.342 360.903 114.337C362.819 114.331 364.519 114.337 365.765 114.366C366.438 114.404 367.112 114.388 367.782 114.319Z" fill="#263238"/>
<path d="M353.546 102.765C353.474 103.35 353.458 103.941 353.499 104.529C353.499 105.605 353.546 107.087 353.611 108.727C353.676 110.368 353.752 111.855 353.823 112.925C353.826 113.518 353.889 114.109 354.011 114.689C354.083 114.104 354.099 113.514 354.058 112.925C354.058 111.849 354.011 110.362 353.946 108.721C353.882 107.081 353.805 105.599 353.735 104.523C353.732 103.932 353.669 103.343 353.546 102.765Z" fill="#263238"/>
<g opacity="0.3">
<path opacity="0.3" d="M339.729 108.704C339.729 108.704 343.104 133.735 352.594 133.07C352.594 133.07 356.869 133.023 358.239 130.183V129.066L339.729 108.704Z" fill="black"/>
</g>
<g opacity="0.3">
<path opacity="0.3" d="M353.547 104.241L351.73 116.512L352.906 118.664L354.846 114.454L354.023 114.431L353.547 104.241Z" fill="black"/>
</g>
<path d="M334.978 123.574C334.865 123.391 334.778 123.193 334.719 122.986C334.572 122.604 334.378 122.045 334.131 121.346C333.542 119.522 333.057 117.667 332.678 115.789C332.301 113.91 332.061 112.005 331.961 110.091C331.926 109.356 331.914 108.762 331.926 108.327C331.911 108.115 331.925 107.901 331.967 107.692C332.014 107.692 332.049 108.598 332.173 110.044C332.338 111.941 332.607 113.827 332.978 115.695C333.413 117.882 333.937 119.84 334.337 121.246C334.525 121.898 334.684 122.457 334.813 122.916C334.894 123.128 334.949 123.349 334.978 123.574Z" fill="#263238"/>
<path d="M338.811 130.765C338.729 130.765 338.494 130.254 338.288 129.589C338.111 129.182 338.032 128.739 338.059 128.296C338.318 128.655 338.497 129.066 338.582 129.501C338.751 129.9 338.829 130.332 338.811 130.765Z" fill="#263238"/>
<path d="M340.123 130.671C339.678 129.492 339.659 128.194 340.07 127.002C340.116 127.613 340.116 128.226 340.07 128.837C340.134 129.446 340.151 130.059 340.123 130.671Z" fill="#263238"/>
<path d="M333.702 119.717C333.66 119.787 330.632 118.353 326.934 116.506C323.235 114.66 320.266 113.096 320.301 113.019C320.336 112.943 323.37 114.384 327.069 116.23C330.767 118.076 333.737 119.64 333.702 119.717Z" fill="#263238"/>
<path d="M339.041 92.463C339.105 89.4877 339.123 86.3596 339.123 86.3596C339.123 86.3596 335.307 85.6246 334.643 80.603C334.008 75.8167 335.783 64.58 335.783 64.58C341.358 62.475 347.149 64.386 350.965 68.9018L350.019 93.051C349.907 95.8558 347.408 97.9961 344.409 97.855C341.375 97.708 338.976 95.2972 339.041 92.463Z" fill="#E0E0E0"/>
<path d="M335.49 73.5588C335.484 73.7236 335.542 73.8842 335.652 74.0077C335.761 74.1312 335.913 74.2083 336.078 74.2232C336.161 74.2313 336.245 74.2223 336.325 74.1967C336.405 74.1712 336.479 74.1296 336.542 74.0746C336.605 74.0196 336.657 73.9522 336.693 73.8767C336.73 73.8012 336.75 73.719 336.754 73.6352C336.759 73.471 336.701 73.3111 336.591 73.1886C336.482 73.066 336.33 72.9902 336.166 72.9767C336.082 72.964 335.996 72.9695 335.915 72.9929C335.834 73.0164 335.758 73.0571 335.694 73.1124C335.63 73.1677 335.578 73.2362 335.543 73.3133C335.508 73.3903 335.489 73.4741 335.49 73.5588Z" fill="#263238"/>
<path d="M335.254 72.718C335.33 72.8003 335.842 72.4534 336.518 72.4769C337.194 72.5004 337.694 72.8532 337.776 72.7709C337.859 72.6886 337.741 72.5827 337.524 72.4122C337.229 72.1989 336.876 72.0818 336.512 72.077C336.154 72.0634 335.801 72.1666 335.507 72.371C335.289 72.5298 335.213 72.6768 335.254 72.718Z" fill="#263238"/>
<path d="M342.492 73.9939C342.486 74.1591 342.543 74.3205 342.653 74.4443C342.762 74.5682 342.915 74.6448 343.08 74.6584C343.164 74.6712 343.251 74.6655 343.332 74.6417C343.414 74.6179 343.49 74.5767 343.554 74.5207C343.619 74.4648 343.67 74.3955 343.705 74.3178C343.74 74.24 343.757 74.1556 343.756 74.0704C343.763 73.9058 343.705 73.7451 343.596 73.6222C343.486 73.4993 343.333 73.4239 343.168 73.4118C343.085 73.3991 342.999 73.4046 342.918 73.4281C342.836 73.4515 342.761 73.4922 342.697 73.5475C342.632 73.6028 342.581 73.6713 342.546 73.7484C342.51 73.8254 342.492 73.9092 342.492 73.9939Z" fill="#263238"/>
<path d="M342.445 73.1531C342.522 73.2413 343.033 72.8944 343.709 72.912C344.386 72.9296 344.885 73.2883 344.974 73.206C345.062 73.1237 344.933 73.0178 344.715 72.8532C344.425 72.6343 344.073 72.5147 343.709 72.5122C343.35 72.5014 342.996 72.6043 342.698 72.8062C342.486 72.9649 342.41 73.1119 342.445 73.1531Z" fill="#263238"/>
<path d="M339.811 78.204C339.45 78.0799 339.075 78.0028 338.694 77.9747C338.518 77.9747 338.353 77.91 338.329 77.7924C338.315 77.6086 338.361 77.4251 338.459 77.2691L339.011 75.9461C339.526 74.8216 339.949 73.6575 340.276 72.4651C339.674 73.5455 339.158 74.6722 338.735 75.8344C338.553 76.2989 338.371 76.7458 338.2 77.1691C338.086 77.3792 338.048 77.6224 338.094 77.8571C338.117 77.9208 338.155 77.9784 338.204 78.0253C338.253 78.0722 338.312 78.1072 338.376 78.1276C338.474 78.1558 338.575 78.1716 338.676 78.1746C339.052 78.2324 339.433 78.2423 339.811 78.204Z" fill="#263238"/>
<path d="M339.123 86.3596C341.475 86.4537 343.808 85.894 345.862 84.7426C345.862 84.7426 344.15 88.1353 339.158 87.5414L339.123 86.3596Z" fill="#F7F8FB"/>
<path d="M344.656 71.148C344.515 71.3656 343.986 71.2715 343.398 71.148C342.81 71.0245 342.292 70.9246 342.222 70.6717C342.151 70.4189 342.769 70.0837 343.557 70.2425C344.344 70.4012 344.797 70.9598 344.656 71.148Z" fill="#263238"/>
<path d="M337.794 70.1484C337.741 70.4012 337.177 70.4953 336.53 70.5247C335.883 70.5541 335.313 70.5247 335.237 70.266C335.16 70.0073 335.707 69.6427 336.489 69.6074C337.271 69.5722 337.847 69.9073 337.794 70.1484Z" fill="#263238"/>
<path d="M339.823 79.8563C339.749 79.8387 339.671 79.8465 339.601 79.8785C339.532 79.9105 339.475 79.9648 339.441 80.0327C339.407 80.0926 339.39 80.1603 339.391 80.229C339.391 80.2977 339.41 80.3649 339.445 80.4242C339.48 80.4834 339.529 80.5325 339.589 80.5666C339.648 80.6007 339.716 80.6187 339.785 80.6187C339.853 80.6187 339.921 80.6007 339.98 80.5666C340.04 80.5325 340.09 80.4834 340.124 80.4242C340.159 80.3649 340.178 80.2977 340.179 80.229C340.179 80.1603 340.162 80.0926 340.129 80.0327C340.086 79.9537 340.019 79.8914 339.936 79.8562C339.854 79.8209 339.762 79.8147 339.676 79.8386" fill="#F7F8FB"/>
<path d="M339.982 79.9268C339.982 79.8974 339.87 79.7269 339.57 79.7916C339.48 79.815 339.398 79.8615 339.332 79.9265C339.266 79.9915 339.218 80.0728 339.194 80.162C339.162 80.2746 339.165 80.394 339.202 80.5051C339.238 80.6161 339.307 80.7137 339.399 80.7853C339.497 80.8523 339.613 80.8882 339.732 80.8882C339.85 80.8882 339.966 80.8523 340.064 80.7853C340.142 80.7327 340.204 80.6587 340.241 80.5722C340.279 80.4858 340.291 80.3903 340.276 80.2973C340.217 79.9856 339.987 79.9386 339.976 79.9798C339.964 80.0209 340.058 80.1268 340.04 80.309C340.036 80.3541 340.022 80.3975 339.997 80.4354C339.972 80.4733 339.939 80.5046 339.899 80.5266C339.854 80.5529 339.802 80.5668 339.749 80.5668C339.697 80.5668 339.645 80.5529 339.599 80.5266C339.558 80.4918 339.527 80.447 339.509 80.3965C339.49 80.346 339.485 80.2916 339.494 80.2385C339.5 80.192 339.518 80.1479 339.546 80.11C339.574 80.0721 339.61 80.0415 339.652 80.0209C339.817 79.921 339.964 79.968 339.982 79.9268Z" fill="#263238"/>
<path d="M348.684 74.7995C348.096 76.1754 346.638 77.2397 346.838 78.7273C346.967 79.6858 347.585 80.5795 347.467 81.5438C347.314 82.7198 346.062 83.5901 345.879 84.7955C345.662 86.2714 347.102 87.418 347.673 88.7939C348.514 90.8048 347.443 93.0628 347.414 95.2619C347.449 96.9315 348.087 98.5319 349.212 99.7666C350.336 101.001 351.87 101.787 353.529 101.977C354.87 102.089 356.381 101.683 357.057 100.53C357.645 99.5778 357.516 98.3665 357.857 97.314C358.374 95.7382 359.874 94.5857 360.209 92.9628C360.797 90.0228 357.21 87.5532 357.445 84.5426C357.545 83.2549 358.339 82.1377 358.674 80.8912C358.888 80.0719 358.904 79.2138 358.722 78.387C358.54 77.5602 358.165 76.7882 357.628 76.1342C356.74 75.0817 355.458 74.3702 354.688 73.2413C353.835 71.9418 353.806 70.3013 353.512 68.7666C353.117 66.9012 352.255 65.1664 351.008 63.7243C349.761 62.2821 348.168 61.1798 346.379 60.5202C344.59 59.8606 342.663 59.6654 340.778 59.9528C338.894 60.2401 337.112 61.0007 335.601 62.1634C335.601 62.1634 334.748 66.0383 338.729 66.691C342.71 67.3436 344.55 66.591 344.997 68.1845C344.892 68.8409 344.944 69.513 345.148 70.1456C345.353 70.7782 345.704 71.3535 346.173 71.8242C347.796 73.5764 349.343 73.2001 348.684 74.7995Z" fill="#263238"/>
<path d="M355.005 101.677C354.883 101.681 354.76 101.669 354.641 101.642C354.296 101.581 353.957 101.488 353.629 101.365C352.415 100.9 351.35 100.113 350.548 99.0898C349.986 98.3835 349.545 97.5887 349.243 96.7378C348.899 95.7687 348.718 94.7494 348.708 93.7213C348.695 92.5881 348.838 91.4585 349.131 90.3638C349.291 89.7857 349.488 89.2181 349.719 88.6645C349.962 88.1135 350.176 87.5502 350.36 86.977C350.522 86.4121 350.522 85.8131 350.36 85.2482C350.188 84.6921 349.965 84.1529 349.695 83.6371C349.423 83.1257 349.193 82.5927 349.007 82.0436C348.826 81.5002 348.784 80.9201 348.884 80.3561C349.119 79.2506 349.79 78.4274 350.189 77.5866C350.57 76.8082 350.752 75.9476 350.719 75.0817C350.665 73.8146 350.205 72.5982 349.407 71.6125C349.098 71.2672 348.766 70.9431 348.414 70.6423C348.826 70.874 349.194 71.1765 349.501 71.5361C350.358 72.5203 350.863 73.7615 350.936 75.0641C350.985 75.9677 350.807 76.8691 350.419 77.6866C350.013 78.5568 349.36 79.3859 349.16 80.3972C348.96 81.4086 349.437 82.4729 349.96 83.496C350.245 84.0265 350.478 84.5839 350.654 85.16C350.827 85.7752 350.827 86.4265 350.654 87.0416C350.458 87.6348 350.233 88.2177 349.978 88.788C349.746 89.3296 349.55 89.8854 349.39 90.452C349.098 91.5191 348.953 92.621 348.96 93.7272C348.942 95.6111 349.55 97.4478 350.689 98.9486C351.451 99.9594 352.465 100.752 353.629 101.248C354.505 101.589 355.011 101.642 355.005 101.677Z" fill="#455A64"/>
<path d="M354.417 72.0065C354.13 72.0807 353.837 72.124 353.541 72.1358C352.734 72.2221 351.919 72.2004 351.118 72.0712C350.511 71.9812 349.928 71.7711 349.403 71.4531C348.878 71.1351 348.422 70.7155 348.061 70.219C347.725 69.5908 347.456 68.9285 347.261 68.2433C347.01 67.5589 346.538 66.9775 345.92 66.591C344.633 65.7737 343.122 65.6737 341.804 65.515C340.59 65.4544 339.41 65.0862 338.376 64.4448C337.684 63.9861 337.184 63.2894 336.971 62.4868C336.92 62.2692 336.906 62.0445 336.93 61.8223C336.93 61.6694 336.965 61.593 336.977 61.593C336.984 61.8842 337.021 62.1739 337.089 62.4574C337.332 63.2079 337.832 63.8489 338.5 64.2684C339.514 64.8604 340.66 65.1917 341.834 65.2327C343.151 65.3856 344.715 65.462 346.091 66.3323C346.764 66.7551 347.277 67.3903 347.549 68.1374C347.733 68.8052 347.988 69.4517 348.308 70.0661C348.993 71.0056 350.019 71.639 351.165 71.8301C351.941 71.9742 352.73 72.0275 353.517 71.9888C353.817 71.972 354.118 71.9779 354.417 72.0065Z" fill="#455A64"/>
<path d="M352.959 67.2202C352.737 67.2943 352.504 67.3281 352.271 67.3201C351.175 67.3275 350.119 66.9054 349.331 66.1441C348.971 65.7834 348.664 65.3737 348.419 64.927C347.89 64.0332 347.379 62.9336 346.279 62.475C345.22 62.1196 344.091 62.0209 342.986 62.1869C342.054 62.3179 341.108 62.3179 340.176 62.1869C339.527 62.0969 338.916 61.8281 338.412 61.4107C338.281 61.297 338.167 61.1665 338.071 61.0226C338 60.9207 337.971 60.8678 337.982 60.8639C337.982 60.8639 338.147 61.052 338.488 61.3166C338.991 61.6742 339.575 61.9006 340.187 61.9752C341.103 62.0784 342.028 62.0626 342.939 61.9282C344.093 61.7398 345.275 61.8408 346.379 62.2222C346.947 62.4773 347.433 62.8843 347.784 63.3982C348.094 63.8566 348.379 64.3316 348.637 64.8211C348.869 65.2485 349.156 65.6438 349.49 65.9971C349.785 66.2959 350.124 66.5477 350.495 66.7439C351.042 67.0295 351.643 67.1958 352.259 67.2319C352.712 67.226 352.953 67.1908 352.959 67.2202Z" fill="#455A64"/>
<path d="M356.757 100.407C356.728 100.407 356.916 100.019 357.134 99.2897C357.428 98.2661 357.559 97.2024 357.522 96.138C357.479 94.5624 357.049 93.0215 356.269 91.6516C355.84 90.8813 355.187 90.1933 354.652 89.3466C354.369 88.9153 354.17 88.4345 354.064 87.9295C353.971 87.3979 354.016 86.8515 354.194 86.3419C354.523 85.3247 355.111 84.4721 355.24 83.5372C355.37 82.6022 354.923 81.7732 354.476 80.9911C354.245 80.6106 354.035 80.218 353.847 79.8151C353.675 79.4244 353.562 79.0102 353.512 78.5862C353.456 77.839 353.48 77.0881 353.582 76.3459C353.77 75.2967 353.673 74.2163 353.3 73.2178C353.133 72.868 352.897 72.5558 352.606 72.3005C352.606 72.3005 352.635 72.3005 352.677 72.3358C352.746 72.3703 352.81 72.416 352.865 72.471C353.095 72.6626 353.281 72.9011 353.412 73.1707C353.837 74.1778 353.969 75.2845 353.794 76.3636C353.713 77.0919 353.703 77.8265 353.764 78.5568C353.909 79.3783 354.235 80.1575 354.717 80.8382C354.968 81.2356 355.182 81.6548 355.358 82.0907C355.543 82.5612 355.604 83.0716 355.534 83.5724C355.393 84.6014 354.787 85.4717 354.482 86.4301C354.321 86.8926 354.279 87.3877 354.358 87.8707C354.461 88.3379 354.648 88.7823 354.911 89.182C355.411 89.9993 356.087 90.699 356.516 91.5046C357.304 92.9207 357.724 94.5117 357.739 96.1321C357.758 97.2168 357.591 98.2966 357.245 99.325C357.151 99.6033 357.037 99.8744 356.904 100.136C356.868 100.233 356.819 100.324 356.757 100.407Z" fill="#455A64"/>
<path d="M332.808 209.969C332.808 209.969 328.845 172.431 328.615 158.56C328.386 144.689 334.854 131.001 334.854 131.001L360.185 129.948C360.185 129.948 365.195 144.019 365.283 149.94C365.459 161.43 362.231 172.772 362.602 181.886L363.448 209.992" fill="#263238"/>
<path d="M364.301 163.817C364.169 163.932 364.03 164.038 363.884 164.134L363.654 164.293L363.407 164.534C363.19 164.722 362.993 164.933 362.819 165.163C362.002 166.163 361.408 167.956 360.838 170.185C360.546 171.421 360.116 172.62 359.556 173.76C359.386 174.072 359.189 174.369 358.968 174.648C358.862 174.789 358.762 174.942 358.639 175.077L358.251 175.465C357.695 175.984 357.049 176.399 356.345 176.688C354.928 177.311 353.323 177.605 351.865 178.34C350.371 179.144 349.217 180.459 348.613 182.045C347.896 183.638 347.437 185.308 346.849 186.872C346.261 188.436 345.467 189.93 344.203 190.882C342.995 191.722 341.559 192.176 340.087 192.182C338.723 192.264 337.459 192.223 336.324 192.394C335.303 192.5 334.326 192.868 333.49 193.464C332.879 193.941 332.421 194.587 332.173 195.322C332.015 195.785 331.981 196.282 332.073 196.762C332.143 197.092 332.232 197.25 332.214 197.256C332.119 197.109 332.052 196.945 332.014 196.774C331.89 196.284 331.906 195.768 332.061 195.287C332.295 194.515 332.756 193.833 333.384 193.329C334.242 192.681 335.257 192.275 336.324 192.153C337.5 191.964 338.753 191.988 340.099 191.9C341.528 191.89 342.92 191.447 344.092 190.63C345.28 189.591 346.157 188.244 346.626 186.737C347.214 185.191 347.643 183.515 348.39 181.892C349.023 180.241 350.229 178.874 351.788 178.041C353.306 177.288 354.911 177 356.293 176.4C356.969 176.12 357.59 175.722 358.127 175.224L358.498 174.854C358.615 174.724 358.715 174.577 358.821 174.442C359.028 174.175 359.211 173.889 359.368 173.589C359.931 172.465 360.367 171.282 360.667 170.061C361.255 167.839 361.896 166.022 362.761 165.016C362.933 164.787 363.13 164.578 363.349 164.393C363.443 164.311 363.525 164.228 363.607 164.164L363.848 164.011C363.995 163.937 364.146 163.872 364.301 163.817Z" fill="#FAFAFA"/>
<path d="M364.454 146.447C364.481 146.612 364.493 146.78 364.49 146.947C364.488 147.433 364.429 147.916 364.313 148.388C363.807 150.108 362.812 151.644 361.45 152.809C360.551 153.636 359.565 154.364 358.51 154.979C357.375 155.649 356.123 156.29 354.835 157.02C353.482 157.745 352.223 158.631 351.083 159.66C349.915 160.819 348.952 162.169 348.237 163.652C347.516 165.155 346.693 166.607 345.774 167.997C345.306 168.646 344.766 169.237 344.163 169.761C343.568 170.267 342.914 170.7 342.216 171.049C340.953 171.67 339.637 172.176 338.283 172.56C337.024 172.948 335.848 173.295 334.825 173.736C333.897 174.106 333.013 174.579 332.191 175.148C331.573 175.577 331.016 176.089 330.539 176.67C330.139 177.175 329.805 177.728 329.545 178.317C329.587 178.154 329.642 177.995 329.71 177.841C329.902 177.396 330.149 176.978 330.445 176.594C330.914 175.988 331.468 175.453 332.091 175.006C332.917 174.418 333.806 173.925 334.743 173.536C335.876 173.075 337.032 172.673 338.206 172.331C339.541 171.937 340.839 171.43 342.087 170.814C342.749 170.469 343.37 170.051 343.939 169.567C344.519 169.051 345.04 168.471 345.491 167.839C346.398 166.455 347.214 165.013 347.932 163.523C348.669 162.007 349.664 160.63 350.872 159.454C352.031 158.41 353.315 157.513 354.694 156.784C355.987 156.061 357.24 155.432 358.375 154.767C359.427 154.172 360.412 153.467 361.315 152.662C362.666 151.532 363.669 150.041 364.208 148.364C364.358 147.736 364.441 147.093 364.454 146.447Z" fill="#FAFAFA"/>
<path d="M328.745 160.524C328.722 160.488 328.704 160.448 328.692 160.406C328.648 160.293 328.611 160.177 328.58 160.059C328.479 159.592 328.5 159.106 328.639 158.648C328.968 157.472 330.268 155.961 332.361 155.214C333.408 154.856 334.59 154.626 335.824 154.321C336.85 154.151 337.82 153.738 338.653 153.117C339.487 152.496 340.16 151.685 340.617 150.751C340.951 150.066 341.244 149.361 341.493 148.641C341.952 147.075 342.577 145.564 343.357 144.131C344.25 142.722 345.605 141.668 347.19 141.149C348.633 140.682 350.104 140.308 351.595 140.032C352.925 139.777 354.213 139.337 355.422 138.727C356.447 138.142 357.33 137.339 358.01 136.375C359.014 134.983 359.586 133.327 359.656 131.612C359.659 130.983 359.617 130.354 359.533 129.73C359.71 130.341 359.792 130.976 359.774 131.612C359.751 133.364 359.197 135.068 358.186 136.498C357.498 137.494 356.596 138.324 355.546 138.927C354.321 139.56 353.012 140.017 351.659 140.285C350.182 140.565 348.725 140.941 347.296 141.408C345.774 141.907 344.473 142.919 343.615 144.272C342.848 145.685 342.232 147.175 341.775 148.717C341.521 149.451 341.22 150.168 340.875 150.863C340.527 151.531 340.083 152.145 339.558 152.686C338.526 153.628 337.254 154.268 335.883 154.538C334.637 154.856 333.461 155.056 332.432 155.397C330.391 156.09 329.098 157.519 328.751 158.66C328.608 159.1 328.57 159.567 328.639 160.024C328.689 160.187 328.724 160.355 328.745 160.524Z" fill="#FAFAFA"/>
<path d="M362.279 192.276C362.303 192.398 362.316 192.522 362.32 192.646C362.331 193.003 362.293 193.359 362.208 193.705C361.839 194.98 361.057 196.096 359.985 196.88C359.27 197.45 358.478 197.917 357.633 198.268C356.734 198.65 355.74 198.956 354.693 199.279C353.607 199.596 352.544 199.989 351.512 200.455C350.441 200.967 349.48 201.684 348.684 202.566C347.826 203.46 347.085 204.442 346.262 205.312C345.474 206.155 344.559 206.869 343.551 207.429C341.834 208.365 339.914 208.866 337.959 208.887C336.649 208.901 335.348 208.684 334.113 208.246C333.778 208.131 333.452 207.991 333.137 207.829C333.023 207.781 332.914 207.72 332.814 207.646C332.932 207.679 333.048 207.72 333.161 207.77C333.484 207.908 333.814 208.03 334.149 208.134C335.381 208.521 336.668 208.701 337.959 208.669C339.871 208.62 341.743 208.11 343.416 207.182C344.393 206.628 345.279 205.928 346.044 205.106C346.85 204.248 347.585 203.272 348.461 202.354C349.303 201.439 350.318 200.7 351.448 200.179C352.495 199.711 353.573 199.318 354.676 199.003C355.711 198.685 356.699 198.415 357.616 198.027C358.436 197.691 359.208 197.246 359.909 196.704C360.963 195.959 361.748 194.896 362.149 193.67C362.236 193.21 362.279 192.744 362.279 192.276Z" fill="#FAFAFA"/>
<path d="M359.392 114.342L354.488 114.46C354.299 115.449 353.924 116.393 353.382 117.241C349.266 110.127 346.109 100.601 345.321 96.773C345.439 96.3908 345.574 95.9675 345.744 95.4971C345.866 94.7826 345.845 94.0509 345.68 93.345C345.538 92.4924 345.303 91.3458 345.233 90.8166C345.015 89.1937 344.751 88.9409 344.186 89.1232C343.422 89.376 344.504 93.6684 343.874 93.7625C343.533 93.8095 343.122 92.3395 343.004 91.1341C342.887 89.9287 342.334 86.2126 341.94 85.9656C341.352 85.601 340.84 86.1773 340.993 87.3768C341.146 88.5763 341.328 92.2219 340.693 92.2748C340.058 92.3278 339.517 86.1655 339.517 86.1655C339.517 86.1655 339.617 84.8249 338.876 84.8543C337.548 84.9131 338.588 91.4046 338.7 92.022C338.782 92.4454 338.112 92.5277 338.03 92.0632C337.947 91.5986 337.642 85.9068 336.266 85.9538C335.219 85.9538 337.071 91.2988 336.483 92.5336C335.895 93.7684 335.495 88.347 334.502 88.4176C334.131 88.447 333.855 88.5175 334.537 91.581C335.19 94.015 335.975 96.4117 336.889 98.7605C338.465 107.257 345.38 134.44 356.217 129.466C362.285 126.679 364.743 114.342 364.743 114.342H359.392Z" fill="#E0E0E0"/>
<path d="M338.488 92.4336C338.534 92.4453 338.583 92.4453 338.629 92.4336C338.7 92.4119 338.761 92.3657 338.801 92.3032C338.84 92.2407 338.857 92.166 338.847 92.0926C338.847 91.728 338.776 91.1988 338.694 90.5108C338.556 89.6817 338.466 88.8454 338.423 88.006C338.423 87.512 338.423 86.9828 338.453 86.4242C338.461 86.1402 338.491 85.8572 338.541 85.5775C338.588 85.3129 338.764 84.9895 338.97 85.0424H339.005C339.211 85.0424 339.376 85.1953 339.44 85.4423C339.513 85.6982 339.541 85.9648 339.523 86.2302C339.644 87.8769 339.854 89.5159 340.152 91.14C340.199 91.3576 340.246 91.581 340.317 91.8044C340.348 91.9188 340.387 92.0308 340.434 92.1396C340.464 92.2002 340.498 92.2591 340.534 92.316C340.56 92.359 340.597 92.3952 340.639 92.4217C340.682 92.4483 340.731 92.4644 340.781 92.4689C340.867 92.4595 340.948 92.4248 341.014 92.3693C341.08 92.3139 341.128 92.24 341.151 92.1572C341.202 92.0422 341.239 91.9219 341.263 91.7986C341.309 91.5616 341.34 91.322 341.357 91.0812C341.411 90.1014 341.397 89.1191 341.316 88.1412C341.242 87.653 341.222 87.1579 341.257 86.6653C341.279 86.4525 341.382 86.2564 341.545 86.1185C341.583 86.0961 341.625 86.0819 341.669 86.0768C341.712 86.0717 341.756 86.0759 341.798 86.0891C341.848 86.1011 341.896 86.1209 341.939 86.1479C341.969 86.1702 341.992 86.2009 342.004 86.2361C342.189 86.7129 342.325 87.2074 342.41 87.712C342.516 88.2294 342.604 88.7645 342.686 89.2996C342.768 89.8346 342.845 90.3756 342.91 90.9224C342.96 91.4867 343.05 92.0467 343.18 92.5982C343.25 92.8802 343.338 93.1572 343.445 93.4273C343.505 93.5785 343.588 93.7194 343.692 93.8448C343.731 93.8969 343.785 93.9367 343.846 93.9596C343.908 93.9825 343.974 93.9876 344.039 93.9742C344.098 93.9545 344.152 93.9198 344.194 93.8735C344.236 93.8271 344.266 93.7707 344.28 93.7096C344.349 93.4091 344.371 93.0995 344.344 92.7923C344.344 92.4983 344.309 92.2043 344.28 91.922C344.238 91.4281 344.191 90.9401 344.174 90.4579C344.159 90.221 344.159 89.9834 344.174 89.7464C344.185 89.6416 344.211 89.5387 344.25 89.4407C344.262 89.4083 344.28 89.3785 344.303 89.3525H344.38C344.768 89.1937 344.897 89.7347 345.003 90.1698C345.109 90.6049 345.15 91.0988 345.244 91.5634C345.397 92.4865 345.597 93.4097 345.697 94.2917C345.765 94.714 345.749 95.1456 345.65 95.5618C345.509 95.9851 345.367 96.4026 345.232 96.8201V96.8612V96.8965C345.921 99.7852 346.799 102.626 347.861 105.399C348.79 107.91 349.724 110.103 350.542 111.867C351.359 113.631 352.1 115.013 352.606 115.942L353.194 116.994C353.257 117.12 353.334 117.238 353.423 117.347C353.374 117.217 353.313 117.091 353.241 116.971L352.653 115.895C352.171 114.948 351.477 113.543 350.677 111.779C349.877 110.015 348.972 107.822 348.066 105.311C347.03 102.542 346.17 99.7096 345.491 96.8318V96.9142C345.626 96.5026 345.761 96.0851 345.903 95.6676C346.025 95.2094 346.049 94.7305 345.973 94.2623C345.867 93.3391 345.673 92.4454 345.52 91.5163C345.432 91.0577 345.373 90.5873 345.279 90.1051C345.273 89.8574 345.232 89.6119 345.156 89.376C345.089 89.2326 344.975 89.1164 344.832 89.0467C344.681 88.9973 344.519 88.9973 344.368 89.0467H344.274C344.224 89.0627 344.178 89.0887 344.139 89.1232C344.073 89.1786 344.023 89.2493 343.992 89.329C343.938 89.4562 343.904 89.5911 343.892 89.7288C343.874 89.9833 343.874 90.2387 343.892 90.4932C343.892 90.9871 343.962 91.481 344.003 91.975C344.003 92.2631 344.05 92.563 344.062 92.8276C344.085 93.0928 344.072 93.36 344.021 93.6214C344.021 93.6802 343.974 93.6684 344.021 93.6978L343.986 93.6625C343.911 93.5665 343.851 93.4593 343.809 93.345C343.706 93.0907 343.622 92.8293 343.556 92.563C343.427 92.0275 343.339 91.483 343.292 90.9342C343.229 90.3815 343.153 89.8346 343.062 89.2937C342.98 88.7527 342.886 88.2235 342.78 87.6943C342.692 87.1557 342.542 86.6289 342.333 86.1244C342.293 86.0401 342.23 85.9688 342.151 85.9186C342.082 85.8788 342.009 85.8473 341.934 85.8245C341.85 85.8025 341.762 85.7974 341.677 85.8095C341.591 85.8216 341.508 85.8507 341.434 85.895C341.312 85.9857 341.211 86.1003 341.136 86.2318C341.062 86.3634 341.015 86.5089 340.999 86.6594C340.96 86.9266 340.96 87.1978 340.999 87.465C340.999 87.7178 341.057 87.9648 341.075 88.2118C341.157 89.1738 341.175 90.1403 341.128 91.1047C341.114 91.3338 341.085 91.5617 341.04 91.7868C341.023 91.8919 340.993 91.9946 340.952 92.0926C340.936 92.1313 340.914 92.1671 340.887 92.1984C340.887 92.2513 340.846 92.1984 340.852 92.269C340.852 92.2102 340.852 92.269 340.852 92.1925C340.826 92.1528 340.802 92.1116 340.781 92.069C340.74 91.975 340.705 91.8691 340.669 91.7692C340.605 91.5575 340.558 91.3399 340.511 91.1282C340.204 89.5181 339.982 87.893 339.846 86.2596C339.864 85.964 339.83 85.6675 339.746 85.3835C339.707 85.2353 339.628 85.1009 339.517 84.9954C339.459 84.9398 339.391 84.8965 339.316 84.8682C339.241 84.8399 339.162 84.8272 339.082 84.8308H339.117C339.017 84.8162 338.916 84.8313 338.825 84.8742C338.734 84.9171 338.658 84.9858 338.605 85.0718C338.518 85.2121 338.458 85.3678 338.429 85.5305C338.38 85.822 338.352 86.1168 338.347 86.4125C338.347 87.0005 338.347 87.512 338.347 88.0118C338.402 88.8566 338.51 89.6971 338.67 90.5285C338.77 91.2106 338.846 91.7398 338.882 92.0984C338.893 92.1613 338.882 92.226 338.851 92.2818C338.82 92.3375 338.771 92.3808 338.711 92.4042C338.535 92.4218 338.482 92.4277 338.488 92.4336Z" fill="#F7F8FB"/>
<path d="M300.192 122.439C299.044 122.415 297.899 122.547 296.787 122.833C293.747 123.633 288.508 126.808 288.291 130.73H292.101C292.101 130.73 289.966 135.269 290.59 134.846C292.218 133.752 295.452 130.465 295.452 130.465L300.192 122.439Z" fill="#E0E0E0"/>
<path d="M352.13 54.096C352.041 54.096 351.7 50.9561 351.359 47.04C351.018 43.1239 350.807 39.984 350.889 39.984C350.971 39.984 351.318 43.1239 351.659 47.04C352 50.9561 352.212 54.096 352.13 54.096Z" fill="#263238"/>
<path d="M368.835 40.2251C368.9 40.2721 366.33 44.0059 363.09 48.5629C359.85 53.1199 357.163 56.7949 357.093 56.7244C357.022 56.6538 359.598 52.9435 362.837 48.3865C366.077 43.8295 368.765 40.178 368.835 40.2251Z" fill="#263238"/>
<path d="M375.773 57.1477C375.773 57.23 372.786 57.918 369.07 58.6824C365.354 59.4468 362.319 59.9995 362.302 59.9172C362.284 59.8349 365.283 59.1469 369.005 58.3825C372.727 57.6181 375.732 57.0654 375.773 57.1477Z" fill="#263238"/>
<path d="M175.812 137.91L154.997 244.808L152.292 258.802L291.06 258.132C297.293 258.103 302.82 252.57 304.813 244.349L329.427 143.431C330.95 137.192 327.61 130.701 322.883 130.707L182.398 130.854C179.34 130.848 176.6 133.741 175.812 137.91Z" fill="#CBCDD1"/>
<g opacity="0.5">
<path opacity="0.5" d="M175.812 137.91L154.997 244.808L152.292 258.802L291.06 258.132C297.293 258.103 302.82 252.57 304.813 244.349L329.427 143.431C330.95 137.192 327.61 130.701 322.883 130.707L182.398 130.854C179.34 130.848 176.6 133.741 175.812 137.91Z" fill="black"/>
</g>
<path d="M277.765 237.552L263.065 119.123C262.477 114.272 258.603 110.65 254.034 110.667L221.811 110.767C220.614 110.781 219.432 111.038 218.337 111.523C217.242 112.009 216.258 112.712 215.443 113.59L200.155 129.86L110.544 130.342C105.07 130.371 100.86 135.558 101.583 141.379L115.23 250.835C115.818 255.68 119.693 259.296 124.25 259.29L280.453 258.979C297.846 259.337 299.51 254.204 299.51 254.204C279.541 258.62 277.765 237.581 277.765 237.552Z" fill="#CBCDD1"/>
<g opacity="0.5">
<path opacity="0.5" d="M210.41 213.867L205.141 219.524L164.569 183.021L169.838 177.364L210.41 213.867Z" fill="white"/>
<path opacity="0.5" d="M202.936 176.112L208.758 181.351L172.049 220.776L166.222 215.537L202.936 176.112Z" fill="white"/>
</g>
<path d="M300.068 61.0226C299.878 60.9424 299.714 60.8097 299.596 60.64C299.479 60.4703 299.412 60.2706 299.403 60.0642L299.168 54.6076C299.16 54.438 299.191 54.2689 299.26 54.1135C299.328 53.9581 299.432 53.8208 299.562 53.7124C299.693 53.604 299.847 53.5275 300.012 53.489C300.178 53.4504 300.35 53.4509 300.515 53.4904C300.97 53.5886 301.441 53.5928 301.898 53.5029C302.355 53.4129 302.788 53.2305 303.172 52.967C303.526 52.7432 303.83 52.4493 304.066 52.1034C304.301 51.7576 304.464 51.3671 304.543 50.9561C304.596 50.5399 304.565 50.1173 304.452 49.7133C304.339 49.3093 304.146 48.9321 303.884 48.6041C303.608 48.2309 303.262 47.9157 302.864 47.6766C302.467 47.4375 302.026 47.2791 301.567 47.2105C300.642 47.1591 299.726 47.4214 298.969 47.9549C298.211 48.4885 297.656 49.2621 297.392 50.1505C297.305 50.4197 297.116 50.6447 296.867 50.7785C296.617 50.9123 296.326 50.9447 296.053 50.8689C295.78 50.7931 295.547 50.615 295.402 50.3716C295.257 50.1283 295.212 49.8385 295.276 49.5625C295.676 48.1651 296.545 46.948 297.737 46.116C298.928 45.2839 300.37 44.8876 301.82 44.9938C302.575 45.0943 303.301 45.3454 303.957 45.7323C304.612 46.1192 305.183 46.6339 305.636 47.2458C306.077 47.8129 306.399 48.4627 306.584 49.1565C306.768 49.8504 306.812 50.5743 306.712 51.2854C306.579 51.9954 306.301 52.6706 305.896 53.2692C305.492 53.8679 304.969 54.3774 304.36 54.7663C303.478 55.3602 302.448 55.6962 301.385 55.7365L301.567 59.9466C301.574 60.1316 301.534 60.3153 301.451 60.4807C301.368 60.6461 301.244 60.7878 301.092 60.8928C300.94 60.9978 300.763 61.0625 300.579 61.0811C300.395 61.0997 300.209 61.0715 300.038 60.9991L300.068 61.0226Z" fill="#CBCDD1"/>
<path d="M301.679 63.257C301.691 63.4346 301.651 63.6119 301.562 63.7664C301.474 63.9209 301.342 64.0457 301.182 64.125C301.023 64.2043 300.844 64.2346 300.667 64.212C300.491 64.1894 300.325 64.1149 300.191 63.998C300.056 63.8811 299.96 63.7269 299.913 63.5552C299.867 63.3834 299.872 63.2016 299.929 63.0329C299.986 62.8642 300.091 62.7161 300.232 62.6073C300.373 62.4986 300.543 62.4341 300.72 62.4221C300.838 62.4133 300.957 62.428 301.069 62.4653C301.181 62.5026 301.285 62.5618 301.374 62.6395C301.463 62.7171 301.536 62.8117 301.588 62.9177C301.641 63.0237 301.671 63.139 301.679 63.257Z" fill="#CBCDD1"/>
<path d="M281.176 53.3257C281.201 53.2094 281.219 53.0915 281.229 52.9729C281.229 52.7142 281.293 52.3849 281.34 51.9204C281.398 51.3501 281.494 50.7843 281.628 50.227C281.705 49.8977 281.746 49.5331 281.864 49.1627C281.981 48.7922 282.099 48.3924 282.228 47.9867C282.909 45.9765 283.901 44.0856 285.168 42.383C286.829 40.1784 288.934 38.3474 291.348 37.0087C292.722 36.2341 294.185 35.6299 295.705 35.2094C297.346 34.7746 299.035 34.5532 300.732 34.5509C301.626 34.5365 302.52 34.5837 303.408 34.692C303.861 34.739 304.307 34.8566 304.76 34.9331C305.218 35.0115 305.67 35.1215 306.113 35.2624C307.966 35.7803 309.729 36.5795 311.34 37.632C314.922 39.9553 317.651 43.3815 319.113 47.3928C319.901 49.5415 320.299 51.8134 320.289 54.1019C320.314 56.4594 319.897 58.8007 319.06 61.005L318.796 61.6753L318.761 61.7635L318.796 61.8517C320.272 65.2445 321.736 68.5784 323.118 71.8066L323.365 71.5243L314.545 68.1433L314.439 68.1022L314.351 68.1845C312.017 70.4452 309.161 72.0935 306.036 72.9826C303.366 73.7176 300.571 73.8781 297.834 73.4534C295.097 73.0287 292.482 72.0285 290.16 70.5188C288.259 69.2718 286.583 67.7111 285.203 65.903C283.205 63.264 281.91 60.1601 281.44 56.8831C281.37 56.2951 281.311 55.8012 281.258 55.3543C281.205 54.9074 281.258 54.5429 281.229 54.2312C281.199 53.9196 281.229 53.7138 281.229 53.5433C281.258 53.5388 281.284 53.5235 281.303 53.5003C281.321 53.4771 281.33 53.4477 281.328 53.4182C281.326 53.3886 281.313 53.361 281.291 53.3408C281.269 53.3206 281.241 53.3094 281.211 53.3094C281.181 53.3094 281.153 53.3206 281.131 53.3408C281.109 53.361 281.096 53.3886 281.094 53.4182C281.091 53.4477 281.1 53.4771 281.119 53.5003C281.137 53.5235 281.164 53.5388 281.193 53.5433C281.193 53.7138 281.193 53.9431 281.193 54.2312C281.193 54.5194 281.193 54.9192 281.193 55.3661C281.193 55.813 281.293 56.3245 281.352 56.9066C281.545 58.3209 281.882 59.7119 282.357 61.0579C283.031 62.8355 283.936 64.5161 285.051 66.0559C286.435 67.8961 288.123 69.4869 290.043 70.7599C292.393 72.3073 295.045 73.3372 297.824 73.7813C300.603 74.2253 303.444 74.0733 306.16 73.3354C309.322 72.4372 312.214 70.773 314.58 68.4902L314.386 68.5314L323.206 71.93L323.647 72.1006L323.453 71.6478C322.053 68.4197 320.607 65.0916 319.137 61.693V61.8635L319.407 61.1755C320.265 58.9232 320.692 56.5296 320.666 54.1195C320.684 51.7824 320.286 49.4608 319.49 47.2634C317.995 43.1722 315.206 39.6809 311.546 37.3204C309.894 36.2433 308.085 35.4299 306.183 34.9096C305.733 34.7672 305.273 34.6591 304.807 34.5862C304.349 34.5038 303.896 34.3862 303.437 34.3451C302.538 34.2334 301.633 34.1824 300.727 34.1922C299.002 34.1995 297.286 34.4328 295.623 34.886C294.083 35.3234 292.6 35.9433 291.207 36.7324C288.769 38.1039 286.65 39.9779 284.992 42.2302C283.728 43.9609 282.75 45.8824 282.093 47.922C281.969 48.3454 281.852 48.7511 281.746 49.098C281.652 49.4525 281.578 49.8117 281.523 50.174C281.396 50.7352 281.314 51.3053 281.276 51.8792C281.24 52.332 281.217 52.6789 281.199 52.9376C281.174 53.0654 281.166 53.1959 281.176 53.3257Z" fill="#263238"/>
</svg>
