<svg width="20" height="20" viewBox="0 0 20 20" fill="none" xmlns="http://www.w3.org/2000/svg">
<path fill-rule="evenodd" clip-rule="evenodd" d="M14.8333 15.8333C15.3856 15.8333 15.8333 15.3856 15.8333 14.8333V10.8333C15.8333 10.3731 16.2064 10 16.6667 10C17.1269 10 17.5 10.3731 17.5 10.8333V15.8333C17.5 16.75 16.75 17.5 15.8333 17.5H4.16667C3.24167 17.5 2.5 16.75 2.5 15.8333V4.16667C2.5 3.25 3.24167 2.5 4.16667 2.5H9.16667C9.6269 2.5 10 2.8731 10 3.33333C10 3.79357 9.6269 4.16667 9.16667 4.16667H5.16667C4.61438 4.16667 4.16667 4.61438 4.16667 5.16667V14.8333C4.16667 15.3856 4.61438 15.8333 5.16667 15.8333H14.8333ZM11.6667 3.33333C11.6667 2.8731 12.0398 2.5 12.5 2.5H16.5C17.0523 2.5 17.5 2.94772 17.5 3.5V7.5C17.5 7.96024 17.1269 8.33333 16.6667 8.33333C16.2064 8.33333 15.8333 7.96024 15.8333 7.5V5.34167L8.22917 12.9458C7.9047 13.2703 7.37863 13.2703 7.05417 12.9458C6.7297 12.6214 6.7297 12.0953 7.05417 11.7708L14.6583 4.16667H12.5C12.0398 4.16667 11.6667 3.79357 11.6667 3.33333Z" fill="#2E7BE6"/>
</svg>
