<svg width="24" height="24" viewBox="0 0 24 24" fill="none" xmlns="http://www.w3.org/2000/svg">
<rect opacity="0.1" width="24" height="24" rx="8" fill="#40BCF1"/>
<path opacity="0.2" d="M12 11.4844C13.1218 11.4844 14.0312 10.575 14.0312 9.45312C14.0312 8.3313 13.1218 7.42188 12 7.42188C10.8782 7.42188 9.96875 8.3313 9.96875 9.45312C9.96875 10.575 10.8782 11.4844 12 11.4844Z" fill="#40BCF1"/>
<path opacity="0.2" d="M15.0469 16.7656C16.1687 16.7656 17.0781 15.8562 17.0781 14.7344C17.0781 13.6125 16.1687 12.7031 15.0469 12.7031C13.925 12.7031 13.0156 13.6125 13.0156 14.7344C13.0156 15.8562 13.925 16.7656 15.0469 16.7656Z" fill="#40BCF1"/>
<path opacity="0.2" d="M8.95312 16.7656C10.075 16.7656 10.9844 15.8562 10.9844 14.7344C10.9844 13.6125 10.075 12.7031 8.95312 12.7031C7.8313 12.7031 6.92188 13.6125 6.92188 14.7344C6.92188 15.8562 7.8313 16.7656 8.95312 16.7656Z" fill="#40BCF1"/>
<path d="M12 11.4844C13.1218 11.4844 14.0312 10.575 14.0312 9.45312C14.0312 8.3313 13.1218 7.42188 12 7.42188C10.8782 7.42188 9.96875 8.3313 9.96875 9.45312C9.96875 10.575 10.8782 11.4844 12 11.4844Z" stroke="#40BCF1" stroke-width="0.8125" stroke-linecap="round" stroke-linejoin="round"/>
<path d="M15.0469 16.7656C16.1687 16.7656 17.0781 15.8562 17.0781 14.7344C17.0781 13.6125 16.1687 12.7031 15.0469 12.7031C13.925 12.7031 13.0156 13.6125 13.0156 14.7344C13.0156 15.8562 13.925 16.7656 15.0469 16.7656Z" stroke="#40BCF1" stroke-width="0.8125" stroke-linecap="round" stroke-linejoin="round"/>
<path d="M8.95312 16.7656C10.075 16.7656 10.9844 15.8562 10.9844 14.7344C10.9844 13.6125 10.075 12.7031 8.95312 12.7031C7.8313 12.7031 6.92188 13.6125 6.92188 14.7344C6.92188 15.8562 7.8313 16.7656 8.95312 16.7656Z" stroke="#40BCF1" stroke-width="0.8125" stroke-linecap="round" stroke-linejoin="round"/>
</svg>
