<svg width="32" height="32" viewBox="0 0 32 32" fill="none" xmlns="http://www.w3.org/2000/svg">
<rect x="0.5" y="0.5" width="31" height="31" rx="15.5" fill="white" stroke="#F3F4F4"/>
<path opacity="0.2" d="M16 9.25C14.665 9.25 13.3599 9.64588 12.2499 10.3876C11.1399 11.1293 10.2747 12.1835 9.76382 13.4169C9.25292 14.6503 9.11925 16.0075 9.3797 17.3169C9.64015 18.6262 10.283 19.829 11.227 20.773C12.171 21.717 13.3738 22.3598 14.6831 22.6203C15.9925 22.8808 17.3497 22.7471 18.5831 22.2362C19.8165 21.7253 20.8707 20.8601 21.6124 19.7501C22.3541 18.6401 22.75 17.335 22.75 16C22.75 15.1136 22.5754 14.2358 22.2362 13.4169C21.897 12.5979 21.3998 11.8538 20.773 11.227C20.1462 10.6002 19.4021 10.103 18.5831 9.76381C17.7642 9.42459 16.8864 9.25 16 9.25V9.25ZM16 19.9375C15.2212 19.9375 14.46 19.7066 13.8124 19.2739C13.1649 18.8413 12.6602 18.2263 12.3622 17.5068C12.0642 16.7873 11.9862 15.9956 12.1382 15.2318C12.2901 14.468 12.6651 13.7664 13.2158 13.2158C13.7664 12.6651 14.468 12.2901 15.2318 12.1382C15.9956 11.9862 16.7873 12.0642 17.5068 12.3622C18.2263 12.6602 18.8413 13.1649 19.2739 13.8124C19.7066 14.46 19.9375 15.2212 19.9375 16C19.9375 17.0443 19.5227 18.0458 18.7842 18.7842C18.0458 19.5227 17.0443 19.9375 16 19.9375Z" fill="#3483E4"/>
<path d="M16 22.75C19.7279 22.75 22.75 19.7279 22.75 16C22.75 12.2721 19.7279 9.25 16 9.25C12.2721 9.25 9.25 12.2721 9.25 16C9.25 19.7279 12.2721 22.75 16 22.75Z" stroke="#3483E4" stroke-width="1.125" stroke-linecap="round" stroke-linejoin="round"/>
<path d="M16 19.9375C18.1746 19.9375 19.9375 18.1746 19.9375 16C19.9375 13.8254 18.1746 12.0625 16 12.0625C13.8254 12.0625 12.0625 13.8254 12.0625 16C12.0625 18.1746 13.8254 19.9375 16 19.9375Z" stroke="#3483E4" stroke-width="1.125" stroke-linecap="round" stroke-linejoin="round"/>
<path d="M16 12.0625V9.25" stroke="#3483E4" stroke-width="1.125" stroke-linecap="round" stroke-linejoin="round"/>
<path d="M13.2158 13.2158L11.227 11.2271" stroke="#3483E4" stroke-width="1.125" stroke-linecap="round" stroke-linejoin="round"/>
<path d="M12.0625 16H9.25" stroke="#3483E4" stroke-width="1.125" stroke-linecap="round" stroke-linejoin="round"/>
<path d="M13.2158 18.7842L11.227 20.7729" stroke="#3483E4" stroke-width="1.125" stroke-linecap="round" stroke-linejoin="round"/>
<path d="M16 19.9375V22.75" stroke="#3483E4" stroke-width="1.125" stroke-linecap="round" stroke-linejoin="round"/>
<path d="M18.7842 18.7842L20.773 20.7729" stroke="#3483E4" stroke-width="1.125" stroke-linecap="round" stroke-linejoin="round"/>
<path d="M19.9375 16H22.75" stroke="#3483E4" stroke-width="1.125" stroke-linecap="round" stroke-linejoin="round"/>
<path d="M18.7842 13.2158L20.773 11.2271" stroke="#3483E4" stroke-width="1.125" stroke-linecap="round" stroke-linejoin="round"/>
</svg>
