<svg width="24" height="24" viewBox="0 0 24 24" fill="none" xmlns="http://www.w3.org/2000/svg">
<rect opacity="0.1" width="24" height="24" rx="8" fill="#D261C7"/>
<path opacity="0.2" d="M12 6.75C10.9617 6.75 9.94662 7.05791 9.08326 7.63478C8.2199 8.21166 7.54699 9.0316 7.14963 9.99091C6.75227 10.9502 6.64831 12.0058 6.85088 13.0242C7.05345 14.0426 7.55347 14.9781 8.28769 15.7123C9.02192 16.4465 9.95738 16.9466 10.9758 17.1491C11.9942 17.3517 13.0498 17.2477 14.0091 16.8504C14.9684 16.453 15.7883 15.7801 16.3652 14.9167C16.9421 14.0534 17.25 13.0384 17.25 12C17.25 11.3106 17.1142 10.6279 16.8504 9.99091C16.5865 9.35395 16.1998 8.7752 15.7123 8.28769C15.2248 7.80018 14.6461 7.41347 14.0091 7.14963C13.3721 6.88579 12.6894 6.75 12 6.75ZM12 15.0625C11.3943 15.0625 10.8022 14.8829 10.2986 14.5464C9.79494 14.2099 9.40241 13.7316 9.17062 13.172C8.93883 12.6124 8.87818 11.9966 8.99635 11.4025C9.11451 10.8085 9.40619 10.2628 9.83449 9.83449C10.2628 9.40619 10.8085 9.11451 11.4025 8.99635C11.9966 8.87818 12.6124 8.93883 13.172 9.17062C13.7316 9.40241 14.2099 9.79494 14.5464 10.2986C14.8829 10.8022 15.0625 11.3943 15.0625 12C15.0625 12.8122 14.7398 13.5912 14.1655 14.1655C13.5912 14.7398 12.8122 15.0625 12 15.0625Z" fill="#D261C7"/>
<path d="M12 17.25C14.8995 17.25 17.25 14.8995 17.25 12C17.25 9.10051 14.8995 6.75 12 6.75C9.10051 6.75 6.75 9.10051 6.75 12C6.75 14.8995 9.10051 17.25 12 17.25Z" stroke="#D261C7" stroke-width="0.875" stroke-linecap="round" stroke-linejoin="round"/>
<path d="M12 15.0625C13.6914 15.0625 15.0625 13.6914 15.0625 12C15.0625 10.3086 13.6914 8.9375 12 8.9375C10.3086 8.9375 8.9375 10.3086 8.9375 12C8.9375 13.6914 10.3086 15.0625 12 15.0625Z" stroke="#D261C7" stroke-width="0.875" stroke-linecap="round" stroke-linejoin="round"/>
<path d="M12 8.9375V6.75" stroke="#D261C7" stroke-width="0.875" stroke-linecap="round" stroke-linejoin="round"/>
<path d="M9.83452 9.8345L8.28772 8.2877" stroke="#D261C7" stroke-width="0.875" stroke-linecap="round" stroke-linejoin="round"/>
<path d="M8.9375 12H6.75" stroke="#D261C7" stroke-width="0.875" stroke-linecap="round" stroke-linejoin="round"/>
<path d="M9.83452 14.1655L8.28772 15.7123" stroke="#D261C7" stroke-width="0.875" stroke-linecap="round" stroke-linejoin="round"/>
<path d="M12 15.0625V17.25" stroke="#D261C7" stroke-width="0.875" stroke-linecap="round" stroke-linejoin="round"/>
<path d="M14.1655 14.1655L15.7123 15.7123" stroke="#D261C7" stroke-width="0.875" stroke-linecap="round" stroke-linejoin="round"/>
<path d="M15.0625 12H17.25" stroke="#D261C7" stroke-width="0.875" stroke-linecap="round" stroke-linejoin="round"/>
<path d="M14.1655 9.8345L15.7123 8.2877" stroke="#D261C7" stroke-width="0.875" stroke-linecap="round" stroke-linejoin="round"/>
</svg>
