<svg width="48" height="48" viewBox="0 0 48 48" fill="none" xmlns="http://www.w3.org/2000/svg">
<rect width="48" height="48" rx="8" fill="#2E7BE6"/>
<path d="M19.7566 28.2415L28.2419 19.7562" stroke="white" stroke-width="2" stroke-linecap="round" stroke-linejoin="round"/>
<path d="M26.1203 30.3638L22.5847 33.8993C21.4595 35.0245 19.9334 35.6567 18.3421 35.6567C16.7508 35.6567 15.2247 35.0245 14.0995 33.8993C12.9742 32.7741 12.3421 31.248 12.3421 29.6567C12.3421 28.0654 12.9742 26.5392 14.0995 25.414L17.635 21.8785" stroke="white" stroke-width="2" stroke-linecap="round" stroke-linejoin="round"/>
<path d="M30.3635 26.1205L33.899 22.585C35.0239 21.4597 35.6558 19.9337 35.6557 18.3426C35.6555 16.7515 35.0234 15.2255 33.8983 14.1004C32.7732 12.9754 31.2473 12.3432 29.6562 12.3431C28.0651 12.343 26.5391 12.9748 25.4138 14.0997L21.8782 17.6353" stroke="white" stroke-width="2" stroke-linecap="round" stroke-linejoin="round"/>
</svg>
