<svg width="32" height="32" viewBox="0 0 32 32" fill="none" xmlns="http://www.w3.org/2000/svg">
<path d="M11.7566 20.2416L20.2419 11.7563" stroke="#282C44" stroke-width="2" stroke-linecap="round" stroke-linejoin="round"/>
<path d="M18.1203 22.3637L14.5847 25.8992C13.4595 27.0244 11.9334 27.6566 10.3421 27.6566C8.7508 27.6566 7.22468 27.0244 6.09946 25.8992C4.97424 24.774 4.3421 23.2479 4.3421 21.6566C4.3421 20.0653 4.97424 18.5392 6.09946 17.4139L9.63499 13.8784" stroke="#282C44" stroke-width="2" stroke-linecap="round" stroke-linejoin="round"/>
<path d="M22.3635 18.1207L25.899 14.5852C27.0239 13.4599 27.6558 11.9339 27.6557 10.3427C27.6555 8.75163 27.0234 7.22571 25.8983 6.10062C24.7732 4.97553 23.2473 4.3434 21.6562 4.34326C20.0651 4.34313 18.5391 4.975 17.4138 6.0999L13.8782 9.63543" stroke="#282C44" stroke-width="2" stroke-linecap="round" stroke-linejoin="round"/>
</svg>
