<svg width="48" height="48" viewBox="0 0 48 48" fill="none" xmlns="http://www.w3.org/2000/svg">
<rect width="48" height="48" rx="8" fill="#2E7BE6"/>
<path d="M17.9957 23.999H29.9957" stroke="white" stroke-width="2" stroke-linecap="round" stroke-linejoin="round"/>
<path d="M20.9949 29.9995H15.9949C14.4036 29.9995 12.8775 29.3674 11.7522 28.2422C10.627 27.1169 9.99487 25.5908 9.99487 23.9995C9.99487 22.4082 10.627 20.8821 11.7522 19.7569C12.8775 18.6317 14.4036 17.9995 15.9949 17.9995H20.9949" stroke="white" stroke-width="2" stroke-linecap="round" stroke-linejoin="round"/>
<path d="M26.9957 29.9995H31.9957C33.587 29.9995 35.1132 29.3674 36.2384 28.2422C37.3636 27.1169 37.9957 25.5908 37.9957 23.9995C37.9957 22.4082 37.3636 20.8821 36.2384 19.7569C35.1132 18.6317 33.587 17.9995 31.9957 17.9995H26.9957" stroke="white" stroke-width="2" stroke-linecap="round" stroke-linejoin="round"/>
</svg>
