<svg width="32" height="32" viewBox="0 0 32 32" fill="none" xmlns="http://www.w3.org/2000/svg">
<path d="M9.99573 15.999H21.9957" stroke="#9395A1" stroke-width="2" stroke-linecap="round" stroke-linejoin="round"/>
<path d="M12.9949 21.9995H7.99487C6.40357 21.9995 4.87745 21.3674 3.75223 20.2422C2.62701 19.1169 1.99487 17.5908 1.99487 15.9995C1.99487 14.4082 2.62701 12.8821 3.75223 11.7569C4.87745 10.6317 6.40357 9.99951 7.99487 9.99951H12.9949" stroke="#9395A1" stroke-width="2" stroke-linecap="round" stroke-linejoin="round"/>
<path d="M18.9957 21.9995H23.9957C25.587 21.9995 27.1132 21.3674 28.2384 20.2422C29.3636 19.1169 29.9957 17.5908 29.9957 15.9995C29.9957 14.4082 29.3636 12.8821 28.2384 11.7569C27.1132 10.6317 25.587 9.99951 23.9957 9.99951H18.9957" stroke="#9395A1" stroke-width="2" stroke-linecap="round" stroke-linejoin="round"/>
</svg>
