<svg width="38" height="14" viewBox="0 0 38 14" fill="none" xmlns="http://www.w3.org/2000/svg">
<g opacity="0.5">
<path d="M22.0586 8.84409C20.9183 9.20208 19.8046 9.55344 18.6643 9.91143C18.6643 9.81862 18.6643 9.7457 18.6643 9.6794C18.6643 7.96238 18.6643 6.23874 18.6643 4.52172C18.6643 4.29632 18.6643 4.29632 18.4323 4.29632C17.8489 4.29632 17.2589 4.30295 16.6755 4.29632C16.523 4.29632 16.4766 4.34272 16.4766 4.4952C16.4833 6.252 16.4833 8.00216 16.4766 9.75896C16.4766 9.89817 16.5164 9.95121 16.6623 9.95121C17.2589 9.94458 17.8556 9.95121 18.4655 9.9711C18.4323 9.98435 18.3925 10.0042 18.3594 10.0175C14.1696 11.3368 9.97318 12.656 5.78339 13.9753C5.6972 14.0018 5.62428 14.0349 5.57787 13.909C5.10056 12.603 4.61661 11.297 4.12603 9.96447C4.21222 9.95784 4.27851 9.95121 4.3448 9.95121C4.92156 9.95121 5.49169 9.94458 6.06845 9.95784C6.23419 9.95784 6.27396 9.9048 6.26733 9.75233C6.2607 9.32804 6.27396 8.90376 6.2607 8.47948C6.25408 8.30711 6.31374 8.26734 6.47948 8.26734C7.08938 8.28059 7.69929 8.22756 8.28268 8.01542C8.83955 7.80991 9.29698 7.49169 9.52238 6.92156C9.887 6.01996 9.51575 5.09185 8.62741 4.68082C8.12357 4.44879 7.58659 4.33609 7.04298 4.32946C6.11486 4.30958 5.18674 4.32283 4.25862 4.30958C4.07963 4.30958 4.09952 4.42228 4.09952 4.52835C4.09952 6.21885 4.09952 7.90935 4.09952 9.59985C4.09952 9.65951 4.09952 9.71255 4.09952 9.77221C4.08626 9.77221 4.073 9.77884 4.06637 9.77884C2.97914 6.83538 1.90518 3.91844 0.824585 0.968351C1.1892 0.948463 1.53393 0.921945 1.87866 0.902057C4.90167 0.736322 7.93132 0.563957 10.9543 0.398221C13.2879 0.265633 15.6148 0.133045 17.9484 0.00045646C18.0809 -0.00617295 18.1207 0.0601214 18.1605 0.152933C19.082 2.20805 20.0035 4.26317 20.9316 6.31829C21.2763 7.0873 21.6211 7.85631 21.9658 8.61869C21.9923 8.68499 22.0122 8.75128 22.0586 8.84409ZM15.4822 5.99345C15.4888 5.91389 15.4955 5.85423 15.4955 5.80119C15.4955 5.41669 15.4888 5.03218 15.5021 4.65431C15.5087 4.50846 15.4557 4.44879 15.3231 4.40902C14.6801 4.19025 14.0237 4.17699 13.3608 4.21013C12.7376 4.24328 12.1277 4.37587 11.5709 4.68082C10.5632 5.22443 9.99969 6.04648 10.0328 7.21326C10.066 8.39993 10.6693 9.22197 11.7565 9.65951C12.9829 10.1567 14.2359 10.1368 15.5021 9.79873C15.6082 9.77221 15.6347 9.71255 15.6347 9.61311C15.6281 9.2286 15.6281 8.8441 15.6281 8.46622C15.6281 8.42644 15.6148 8.39329 15.6082 8.34689C15.3099 8.42644 15.0314 8.51925 14.7464 8.57892C14.2359 8.67836 13.7321 8.69162 13.2348 8.49274C12.5918 8.24082 12.2471 7.67069 12.3134 6.9746C12.3797 6.23874 12.7907 5.77468 13.4934 5.64209C14.1166 5.52939 14.7066 5.64872 15.2701 5.90726C15.3297 5.92715 15.396 5.95367 15.4822 5.99345ZM18.8831 2.53952C18.8831 1.79703 18.3528 1.29982 17.5639 1.29982C16.775 1.29982 16.2446 1.79703 16.2446 2.53952C16.2446 3.26876 16.775 3.76596 17.5572 3.77259C18.3461 3.77922 18.8831 3.27539 18.8831 2.53952Z" fill="white"/>
<path d="M6.53917 7.00108C6.49276 7.00108 6.44636 7.00771 6.39995 7.00771C6.29388 7.02097 6.24084 6.98119 6.24084 6.86186C6.24747 6.47073 6.24084 6.07296 6.24084 5.68183C6.24084 5.59565 6.2541 5.52935 6.36017 5.53598C6.61209 5.5625 6.87064 5.57576 7.11593 5.63542C7.40099 5.70834 7.54021 5.92712 7.54684 6.21881C7.5601 6.54365 7.44077 6.76905 7.16233 6.87512C6.96345 6.94805 6.75131 6.98119 6.5458 7.0276C6.53917 7.02097 6.53917 7.00771 6.53917 7.00108Z" fill="white"/>
<path d="M24.9358 2.05554H26.8716C27.2561 2.05554 27.561 2.10858 27.7931 2.20802C28.0251 2.31409 28.224 2.45994 28.3765 2.65219C28.5289 2.84444 28.6416 3.06984 28.7079 3.32839C28.7742 3.58694 28.814 3.85874 28.814 4.14381C28.814 4.59461 28.761 4.94597 28.6615 5.19126C28.5621 5.43654 28.4162 5.64869 28.2372 5.81442C28.0582 5.98016 27.8594 6.09286 27.6539 6.15252C27.3688 6.23207 27.1102 6.26522 26.8782 6.26522H24.9424V2.05554H24.9358ZM26.2352 3.01018V5.31058H26.5534C26.8252 5.31058 27.0174 5.27744 27.1368 5.21777C27.2495 5.15811 27.3423 5.05204 27.4086 4.89956C27.4749 4.74708 27.508 4.50842 27.508 4.17032C27.508 3.72615 27.4351 3.4212 27.2892 3.25547C27.1434 3.08973 26.9047 3.01018 26.5666 3.01018H26.2352Z" fill="white"/>
<path d="M29.2715 4.87976L30.5112 4.8002C30.5377 4.99909 30.5907 5.15156 30.6769 5.25763C30.8095 5.43 31.0018 5.51618 31.2537 5.51618C31.4393 5.51618 31.5852 5.46977 31.6846 5.38359C31.784 5.29741 31.8371 5.19797 31.8371 5.07864C31.8371 4.97257 31.7907 4.87313 31.6912 4.78695C31.5984 4.70076 31.373 4.62121 31.0217 4.54166C30.4515 4.4157 30.0405 4.24333 29.8018 4.03119C29.5565 3.81905 29.4306 3.54724 29.4306 3.21577C29.4306 2.997 29.4903 2.79149 29.6162 2.59924C29.7422 2.40699 29.9278 2.25451 30.1797 2.14181C30.4316 2.02911 30.7764 1.97607 31.2139 1.97607C31.7509 1.97607 32.1619 2.07552 32.447 2.2744C32.732 2.47328 32.8978 2.79149 32.9508 3.22903L31.7244 3.30196C31.6912 3.1097 31.6249 2.97711 31.5189 2.89093C31.4128 2.80475 31.2669 2.75834 31.0879 2.75834C30.9355 2.75834 30.8228 2.79149 30.7432 2.85779C30.6637 2.92408 30.6305 2.997 30.6305 3.08982C30.6305 3.15611 30.6637 3.21577 30.7233 3.26881C30.783 3.32185 30.9288 3.37488 31.1609 3.42129C31.731 3.54724 32.1354 3.66657 32.3873 3.79253C32.6326 3.91849 32.8116 4.07097 32.9243 4.25659C33.037 4.44222 33.09 4.64773 33.09 4.87976C33.09 5.15156 33.0171 5.39685 32.8646 5.62888C32.7122 5.85428 32.5066 6.02665 32.2348 6.14598C31.9697 6.2653 31.6249 6.32497 31.2205 6.32497C30.5046 6.32497 30.0074 6.18575 29.7289 5.91395C29.4637 5.6554 29.3046 5.30404 29.2715 4.87976Z" fill="white"/>
<path d="M33.5209 4.87976L34.7606 4.8002C34.7871 4.99909 34.8401 5.15156 34.9263 5.25763C35.0589 5.43 35.2511 5.51618 35.5031 5.51618C35.6887 5.51618 35.8345 5.46977 35.934 5.38359C36.0334 5.29741 36.0865 5.19797 36.0865 5.07864C36.0865 4.97257 36.0401 4.87313 35.9406 4.78695C35.8478 4.70076 35.6224 4.62121 35.271 4.54166C34.7009 4.4157 34.2899 4.24333 34.0512 4.03119C33.8059 3.81905 33.68 3.54724 33.68 3.21577C33.68 2.997 33.7396 2.79149 33.8656 2.59924C33.9916 2.40699 34.1772 2.25451 34.4291 2.14181C34.681 2.02911 35.0258 1.97607 35.4633 1.97607C36.0003 1.97607 36.4113 2.07552 36.6964 2.2744C36.9814 2.47328 37.1472 2.79149 37.2002 3.22903L35.9738 3.30196C35.9406 3.1097 35.8743 2.97711 35.7682 2.89093C35.6622 2.80475 35.5163 2.75834 35.3373 2.75834C35.1849 2.75834 35.0722 2.79149 34.9926 2.85779C34.9131 2.92408 34.8799 2.997 34.8799 3.08982C34.8799 3.15611 34.913 3.21577 34.9727 3.26881C35.0324 3.32185 35.1782 3.37488 35.4103 3.42129C35.9804 3.54724 36.3848 3.66657 36.6367 3.79253C36.882 3.91849 37.061 4.07097 37.1737 4.25659C37.2864 4.44222 37.3394 4.64773 37.3394 4.87976C37.3394 5.15156 37.2665 5.39685 37.114 5.62888C36.9615 5.85428 36.756 6.02665 36.4842 6.14598C36.219 6.2653 35.8743 6.32497 35.4699 6.32497C34.7539 6.32497 34.2567 6.18575 33.9783 5.91395C33.7131 5.6554 33.554 5.30404 33.5209 4.87976Z" fill="white"/>
<path d="M25.7313 7.93592L26.076 8.04199C26.0495 8.14143 26.0163 8.22098 25.9633 8.28728C25.9103 8.35357 25.8506 8.39998 25.7777 8.43313C25.7048 8.46627 25.6119 8.48616 25.4926 8.48616C25.3534 8.48616 25.2407 8.46627 25.1545 8.4265C25.0683 8.38672 24.9888 8.3138 24.9291 8.21435C24.8695 8.11491 24.8363 7.98233 24.8363 7.82322C24.8363 7.61108 24.8893 7.44534 25.0087 7.33264C25.1214 7.21994 25.2805 7.16028 25.486 7.16028C25.6451 7.16028 25.7711 7.19343 25.8639 7.25972C25.9567 7.32601 26.023 7.42545 26.0694 7.55804L25.718 7.6376C25.7048 7.59782 25.6915 7.5713 25.6782 7.55141C25.6584 7.51827 25.6318 7.49838 25.5987 7.47849C25.5655 7.4586 25.5324 7.45197 25.4926 7.45197C25.3998 7.45197 25.3335 7.48512 25.2871 7.55804C25.254 7.61108 25.2341 7.69726 25.2341 7.80996C25.2341 7.94918 25.254 8.04862 25.3004 8.10166C25.3401 8.15469 25.4064 8.18121 25.4794 8.18121C25.5523 8.18121 25.6119 8.16132 25.6517 8.11491C25.6849 8.07514 25.718 8.01547 25.7313 7.93592Z" fill="white"/>
<path d="M26.2948 7.81663C26.2948 7.60449 26.3545 7.44538 26.4672 7.32605C26.5865 7.20672 26.7456 7.15369 26.9511 7.15369C27.1633 7.15369 27.329 7.21335 27.4417 7.32605C27.5544 7.43875 27.6141 7.59786 27.6141 7.81C27.6141 7.96248 27.5875 8.0818 27.5411 8.18125C27.4881 8.27406 27.4152 8.35361 27.3224 8.40665C27.2295 8.45968 27.1102 8.4862 26.9644 8.4862C26.8185 8.4862 26.6992 8.46631 26.6064 8.41991C26.5136 8.3735 26.434 8.30058 26.3744 8.20114C26.3147 8.10169 26.2948 7.9691 26.2948 7.81663ZM26.6926 7.82326C26.6926 7.95585 26.7191 8.04866 26.7655 8.10169C26.8119 8.16136 26.8782 8.18788 26.9644 8.18788C27.0506 8.18788 27.1168 8.16136 27.1633 8.10169C27.2097 8.04866 27.2362 7.94922 27.2362 7.80337C27.2362 7.68404 27.2097 7.59786 27.1633 7.53819C27.1168 7.48516 27.0506 7.45201 26.9644 7.45201C26.8848 7.45201 26.8185 7.47853 26.7721 7.53819C26.7125 7.59786 26.6926 7.69067 26.6926 7.82326Z" fill="white"/>
<path d="M27.9057 7.18018H28.4294L28.6283 7.96245L28.8272 7.18018H29.3443V8.45965H29.0194V7.48513L28.7675 8.45965H28.4758L28.2239 7.48513V8.45965H27.899L27.9057 7.18018Z" fill="white"/>
<path d="M29.6691 7.18018H30.3254C30.4713 7.18018 30.5773 7.21332 30.6503 7.27962C30.7232 7.34591 30.7563 7.44535 30.7563 7.57131C30.7563 7.7039 30.7166 7.80334 30.637 7.87626C30.5574 7.94919 30.4381 7.98233 30.279 7.98233H30.0602V8.45965H29.6625L29.6691 7.18018ZM30.0669 7.72379H30.1663C30.2459 7.72379 30.2989 7.71053 30.3254 7.68401C30.3586 7.65749 30.3718 7.62434 30.3718 7.58457C30.3718 7.54479 30.3586 7.51164 30.332 7.48513C30.3055 7.45861 30.2525 7.44535 30.1796 7.44535H30.0669V7.72379Z" fill="white"/>
<path d="M31.0348 7.18018H31.4326V8.14807H32.0491V8.46628H31.0348V7.18018Z" fill="white"/>
<path d="M32.3143 7.18018H32.7121V8.45965H32.3143V7.18018Z" fill="white"/>
<path d="M33.8524 8.24751H33.4016L33.3419 8.45965H32.9375L33.4214 7.18018H33.8524L34.3363 8.45965H33.9187L33.8524 8.24751ZM33.7728 7.96908L33.6336 7.51165L33.4944 7.96908H33.7728Z" fill="white"/>
<path d="M34.5352 7.18018H34.9064L35.3904 7.88952V7.18018H35.7616V8.45965H35.3904L34.913 7.75693V8.45965H34.5418L34.5352 7.18018Z" fill="white"/>
<path d="M36.0002 7.18018H37.2068V7.49839H36.8024V8.46628H36.4046V7.49839H36.0002V7.18018Z" fill="white"/>
<path d="M17.4511 12.8218C17.0202 12.8218 16.6291 12.6958 16.4899 12.6096C16.3507 12.5235 15.6877 11.7213 14.5276 10.223L14.4878 10.17L14.4745 10.1037C14.4281 9.81865 14.5143 9.52695 14.7198 9.28167C14.9386 9.02312 15.2701 8.85075 15.5352 8.85075C15.6015 8.85075 15.6612 8.85738 15.7142 8.87727C16.0789 8.98997 16.8943 9.71921 17.3451 10.1501C17.6964 9.63966 18.5185 8.45299 19.3803 7.25307C21.7072 4.01128 22.0188 3.87206 22.158 3.8124C22.7746 3.54059 23.4972 3.42126 23.9413 3.42126C24.001 3.42126 24.054 3.42127 24.1071 3.42789C24.233 3.43452 24.3258 3.50745 24.3723 3.61352C24.4584 3.82566 24.3258 3.96488 23.8485 4.47534C22.9071 5.48964 20.6996 7.86297 18.6577 12.2516L18.6444 12.2782L18.6245 12.3047C18.366 12.6494 17.955 12.8218 17.4511 12.8218Z" fill="white"/>
<path d="M23.9414 3.69966C23.9944 3.69966 24.0408 3.69966 24.0872 3.70629C24.5181 3.73944 21.3029 5.96029 18.4191 12.1588C18.1738 12.4704 17.7959 12.5632 17.4512 12.5632C17.0667 12.5632 16.7219 12.4505 16.6291 12.3908C16.4568 12.2848 14.7397 10.0705 14.7397 10.0705C14.6536 9.53355 15.2303 9.12916 15.5419 9.12916C15.575 9.12916 15.6082 9.13578 15.6347 9.14241C16.0258 9.24185 17.3915 10.5677 17.3915 10.5677C17.3915 10.5677 21.6476 4.34272 22.2641 4.07091C22.8144 3.82562 23.4972 3.69966 23.9414 3.69966ZM23.9414 3.16931C23.4707 3.16931 22.7017 3.29527 22.052 3.58696C21.8465 3.67978 21.5349 3.81236 19.1682 7.11381C18.4257 8.148 17.7163 9.16893 17.3053 9.75895C17.2125 9.67277 17.1131 9.58658 17.0136 9.49377C16.2844 8.85072 15.9927 8.69161 15.8004 8.63858C15.7209 8.61206 15.6347 8.5988 15.5419 8.5988C15.1972 8.5988 14.7928 8.80431 14.521 9.12916C14.2624 9.43411 14.1564 9.79873 14.216 10.1633L14.2359 10.2959L14.3155 10.402C16.0921 12.6891 16.2579 12.7952 16.3441 12.8483C16.5429 12.9676 16.9937 13.1002 17.4445 13.1002C18.0346 13.1002 18.5119 12.8947 18.8301 12.4969L18.8699 12.4505L18.8964 12.3908C20.9184 8.04193 23.1061 5.68849 24.0408 4.68082C24.2065 4.50845 24.3325 4.36924 24.4253 4.25654C24.5248 4.13721 24.7502 3.8654 24.6176 3.53393C24.538 3.33505 24.3524 3.19583 24.127 3.17594C24.0673 3.16931 24.0077 3.16931 23.9414 3.16931Z" fill="#090909"/>
</g>
</svg>
