<svg width="1400" height="640" viewBox="0 0 1400 640" fill="none" xmlns="http://www.w3.org/2000/svg">
<path d="M418 332.9C417.8 361.6 407 389 387.6 410.2C344.2 456.8 271.5 459.8 224.4 417.1C213.4 406.7 204.8 394 199.1 380C193.1 364.9 190 348.7 190.5 332.3L189.6 309.9C190.7 289 182.7 268.7 167.8 254C152.3 240 131.5 233.3 110.6 235C71.3 237.4 40.7 269.8 40.4 309V609C40.2 619.6 31.5 628.2 21 628.4H20.6C15.4 628.4 10.7 626.5 7 623C3.1 619.3 1 614.4 1 609.2V309.2C1.2 249 48.3 199.3 108.3 195.9C124.3 194.8 140.5 197 155.8 201.9C170.5 206.9 184.1 214.9 195.5 225.6C206.5 236 215.1 248.7 220.8 262.7C226.8 277.8 229.9 294 229.7 310.2L230.6 332.9C230.4 344.1 232.3 355.3 236.4 365.9C239.9 374.8 245.3 382.5 252.2 389.2C282 415.3 326.9 414.2 355.6 386.8C370.3 373 378.5 353.8 378.9 333.7V32.9C378.9 22.1 387.8 13.3 398.8 13.3C409.6 13.3 418.4 22.2 418.7 32.9L418 332.9ZM682.2 220.7H680.7C669.9 220.7 661.3 229.3 661.3 240.1V332.7C661.7 372.4 630.9 405.7 591.1 407.8C570.2 409.5 549.4 402.8 533.9 388.8C519 374.1 511 353.8 511.9 332.9C511.9 332.9 511.7 263 511.5 240.1C511.5 229.3 502.6 220.7 492.1 220.9C486.9 220.9 482 223.1 478.3 226.5C474.6 230.2 472.7 235.1 472.7 240.1V332.9C472.5 349.1 475.5 365.3 481.6 380.4C487.2 394.4 495.8 407.2 506.9 417.5C518.3 428.1 531.7 436.3 546.6 441.2C559.1 445.5 572.3 447.5 585.5 447.5C588.3 447.5 591.1 447.5 594.1 447.3C654.8 443.8 702 393.3 701.4 332.5V240.1C701 229.5 692.5 220.9 682.2 220.7ZM1379.6 12C1368.6 12 1359.7 20.9 1359.7 31.6V332.7C1358.6 374.8 1323.7 408 1281.6 407C1263.7 406.6 1246.6 399.9 1233.2 388.2C1226.3 381.7 1220.9 373.7 1217.4 364.9C1213.3 354.3 1211.1 343.1 1211.6 331.9L1210.7 306.2C1209 244.2 1158 195 1095.9 195.5H1094.4C1064 195.5 1034.8 207.4 1013.2 228.5C967.9 272.8 966.8 345.3 1011 390.8C1011.2 391 1011.4 391.2 1011.6 391.4C1033.2 413.2 1062.5 425.7 1093.2 425.9H1095.1C1106.1 426.1 1115.4 417.3 1115.6 406.3C1115.8 395.3 1107 386 1096 385.8C1095.8 385.8 1095.4 385.8 1095.1 385.8C1075 385.8 1055.8 378 1041.8 363.8C1027.6 349.8 1019.6 330.6 1019.6 310.7C1019.8 269 1053.5 235.6 1095.2 235.6C1134.3 235.6 1166.9 265.6 1170.5 304.5C1170.5 306.2 1170.5 308 1170.5 309.5L1171.4 331.9C1171.2 348.3 1174.2 364.5 1180 379.6C1185.6 393.6 1194.2 406.4 1205.3 416.7C1226 435.7 1253.2 446.3 1281.3 446.3H1283.5C1286.1 446.3 1288.9 446.3 1291.5 446.1C1351.5 442.4 1398.6 392.8 1398.8 332.8V31.8C1399.5 20.8 1390.6 12 1379.6 12ZM931.5 224.8C920.1 214.2 906.7 206 891.8 201.1C876.5 195.9 860.5 194 844.3 195.1C826.6 196.2 809.3 201.4 794 210.2C784.7 215.4 775.9 221.9 768.1 229.4C759.9 238.5 755.1 250.1 754.5 262.2V263.5C754.5 265.4 754.5 267.6 754.5 269.8C753.9 314.9 754.5 422.6 754.5 423.7C754.7 433.6 762.9 441.4 772.8 441.2C782.3 441 789.9 433.2 790.3 423.7V271.7C790.5 265.9 793.3 260.5 797.9 256.8C810.9 243.4 828.3 235.4 847.1 234.4C868 232.5 888.8 239.4 904.5 253.4C907.7 256.4 910.8 259.9 913.4 263.5C917.3 268.9 923.3 271.9 930 271.9C940.8 271.9 949.6 263 949.6 252.3C949.6 248.4 948.3 244.3 946.1 241.1C941.6 235.4 936.7 229.8 931.5 224.8Z" fill="url(#paint0_linear)"/>
<path d="M140.069 578.635C147.169 575.835 151.969 568.935 151.769 561.335C151.769 560.235 151.769 559.435 151.569 558.335C150.069 546.435 139.269 538.035 127.569 539.535H98.869V620.435H129.569C130.469 620.435 131.069 620.635 131.969 620.435C144.269 620.435 154.169 610.335 154.169 597.735C154.569 589.035 148.769 581.035 140.069 578.635ZM114.169 552.735H124.969C132.569 552.735 136.369 556.635 136.369 562.835C136.369 563.235 136.369 563.935 136.369 564.335C135.769 569.735 130.569 573.635 125.169 572.935H114.169V552.735ZM126.669 607.135H114.169V585.735H126.869C127.469 585.735 128.169 585.735 128.769 585.735C134.569 585.935 138.869 590.935 138.669 596.735C138.569 603.235 134.269 607.135 126.669 607.135Z" fill="#2E7BE6"/>
<path d="M204.869 571.535L186.969 539.635H168.869L196.469 586.435V620.535H211.969V586.435L240.069 539.635H222.769L204.869 571.535Z" fill="#2E7BE6"/>
<path d="M330.069 539.335H300.269V620.235H315.769V589.835H331.569C345.569 589.435 356.569 577.735 356.169 563.935C355.769 549.935 344.069 538.935 330.069 539.335ZM328.069 576.335H315.769V553.235H328.069C328.469 553.235 328.969 553.235 329.369 553.235C335.869 553.635 340.569 559.035 340.369 565.535C339.969 571.735 334.569 576.735 328.069 576.335Z" fill="#2E7BE6"/>
<path d="M394.869 539.335H379.069V620.235H394.869V539.335Z" fill="#2E7BE6"/>
<path d="M476.369 592.935L443.369 539.435H424.169V620.335H439.669V562.935L475.669 620.335H491.869V539.435H476.369V592.935Z" fill="#2E7BE6"/>
<path d="M521.269 620.335H570.869V605.435H536.669V586.635H567.669V572.635H536.669V554.035H570.969V539.135H521.069L521.269 620.335Z" fill="#2E7BE6"/>
<path d="M652.069 539.335H636.569V620.235H687.469V605.135H652.069V539.335Z" fill="#2E7BE6"/>
<path d="M733.969 539.335L703.569 620.235H719.969L726.669 601.635H758.869L765.569 620.235H782.369L752.169 539.335H733.969ZM731.569 587.535L742.569 556.835L753.569 587.535H731.569Z" fill="#2E7BE6"/>
<path d="M844.669 578.635C851.769 575.835 856.569 568.935 856.369 561.335C856.369 560.235 856.369 559.435 856.169 558.335C854.669 546.435 843.869 538.035 832.169 539.535H803.669V620.435H834.369C835.269 620.435 835.869 620.435 836.769 620.435C849.069 620.235 858.969 610.335 858.969 597.735C859.169 589.035 853.269 581.035 844.669 578.635ZM818.769 552.735H829.569C837.169 552.735 840.969 556.635 840.969 562.835C840.969 563.235 840.969 563.935 840.969 564.335C840.369 569.735 835.169 573.635 829.769 572.935H818.769V552.735ZM831.269 607.135H818.769V585.735H831.469C832.069 585.735 832.769 585.735 833.369 585.735C839.169 585.935 843.469 590.935 843.269 596.735C843.169 603.235 838.869 607.135 831.269 607.135Z" fill="#2E7BE6"/>
<path d="M915.469 573.235L904.469 571.035C899.769 570.635 895.869 566.735 895.869 561.935V561.735C896.469 555.435 902.169 550.935 908.369 551.635C915.469 551.235 921.769 556.135 922.869 563.035L936.869 558.735C934.269 545.335 921.969 536.335 908.369 537.835C893.669 537.235 881.369 548.635 880.769 563.135C880.769 575.035 889.869 584.935 901.669 586.235L912.669 588.435C918.969 589.735 922.369 593.435 922.369 597.935C922.369 603.535 917.869 607.835 909.369 607.835H908.269C899.369 608.235 891.869 601.335 891.669 592.735L877.469 596.635C879.369 612.135 893.469 623.435 908.969 621.935C909.369 621.935 909.869 621.935 910.269 621.935C924.769 622.535 937.069 611.335 937.669 596.935C937.269 584.735 927.769 574.535 915.469 573.235Z" fill="#2E7BE6"/>
<defs>
<linearGradient id="paint0_linear" x1="0.997655" y1="320.202" x2="2283.81" y2="320.202" gradientUnits="userSpaceOnUse">
<stop stop-color="#2E7BE6"/>
<stop offset="0.5327" stop-color="#4CF0C7"/>
<stop offset="0.5831" stop-color="#66EEB1"/>
<stop offset="0.6714" stop-color="#8DEC90"/>
<stop offset="0.7588" stop-color="#ABEA76"/>
<stop offset="0.8439" stop-color="#C1E864"/>
<stop offset="0.9255" stop-color="#CFE759"/>
<stop offset="1" stop-color="#D3E755"/>
</linearGradient>
</defs>
</svg>
