<svg width="44" height="20" viewBox="0 0 44 20" fill="none" xmlns="http://www.w3.org/2000/svg">
<path d="M12.8657 0.0402222C12.7375 0.0403345 12.6145 0.0913464 12.5237 0.182059C12.433 0.272771 12.382 0.395767 12.3819 0.524054V10.4141C12.3822 11.0792 12.1285 11.7194 11.6728 12.2039C11.2171 12.6884 10.5936 12.9807 9.92965 13.0211C9.15195 13.0682 8.44931 12.8332 7.95106 12.3608C7.70809 12.1287 7.51817 11.8468 7.39429 11.5344C7.25153 11.168 7.18223 10.7771 7.19032 10.384C7.19032 10.3759 7.19032 10.3674 7.19032 10.3594L7.15894 9.63848C7.1662 9.12485 7.07241 8.6148 6.88289 8.13736C6.70656 7.6981 6.4377 7.30196 6.09459 6.9759C5.74012 6.64088 5.31705 6.38695 4.85468 6.2317C4.37448 6.07064 3.86741 6.00509 3.36204 6.03876C2.452 6.09407 1.59737 6.49461 0.972604 7.15862C0.34784 7.82263 4.52242e-05 8.70004 0.000212031 9.61177V19.5018C-0.00170446 19.5665 0.00938721 19.6309 0.0328294 19.6913C0.0562716 19.7516 0.0915867 19.8067 0.136685 19.8531C0.181783 19.8996 0.235745 19.9365 0.295376 19.9617C0.355006 19.9869 0.419092 19.9999 0.483835 19.9999C0.548579 19.9999 0.612664 19.9869 0.672294 19.9617C0.731924 19.9365 0.785887 19.8996 0.830985 19.8531C0.876083 19.8067 0.911399 19.7516 0.934842 19.6913C0.958284 19.6309 0.969375 19.5665 0.967459 19.5018V9.61177C0.967406 8.94667 1.2211 8.3066 1.6768 7.82215C2.1325 7.33769 2.75585 7.04534 3.41971 7.00474C4.20759 6.95724 4.92083 7.19641 5.42841 7.67812C5.936 8.15984 6.19721 8.83619 6.19169 9.64187C6.19169 9.65035 6.19169 9.65841 6.19169 9.66647L6.22307 10.3873C6.21553 10.9033 6.30873 11.4158 6.49743 11.8961C6.67304 12.3372 6.94195 12.7352 7.28573 13.0626C7.98032 13.7216 8.93951 14.0494 9.98817 13.9866C10.8982 13.9314 11.7528 13.531 12.3776 12.867C13.0024 12.2031 13.3502 11.3257 13.35 10.4141V0.524054C13.3499 0.395694 13.2988 0.272633 13.208 0.181909C13.1172 0.0911841 12.9941 0.0402221 12.8657 0.0402222V0.0402222Z" fill="#15FF1B"/>
<path d="M21.5879 6.88232H21.5659C21.4406 6.88243 21.3205 6.93222 21.2318 7.02077C21.1432 7.10933 21.0933 7.22942 21.0931 7.3547V10.4078C21.0989 11.0974 20.8352 11.762 20.3582 12.2601C19.9051 12.7295 19.2921 13.0116 18.6408 13.0505C17.8534 13.098 17.1397 12.8588 16.6325 12.3775C16.1254 11.8962 15.8548 11.2135 15.8612 10.4133C15.8612 10.4099 15.8519 8.10993 15.8472 7.35216C15.847 7.29012 15.8347 7.22873 15.8108 7.17148C15.7869 7.11423 15.7519 7.06225 15.7079 7.01851C15.664 6.97476 15.6118 6.9401 15.5544 6.91652C15.497 6.89293 15.4356 6.88088 15.3735 6.88104C15.3115 6.88121 15.2501 6.8936 15.1929 6.91749C15.1356 6.94138 15.0836 6.97632 15.0399 7.0203C14.9961 7.06429 14.9615 7.11646 14.9379 7.17383C14.9143 7.23121 14.9023 7.29267 14.9024 7.3547V10.4176C14.8949 10.9311 14.9885 11.441 15.1781 11.9183C15.3546 12.3575 15.6236 12.7537 15.9668 13.0797C16.3212 13.4148 16.7443 13.6688 17.2067 13.8239C17.6055 13.9588 18.0239 14.0266 18.4449 14.0245C18.5297 14.0245 18.6145 14.0245 18.6993 14.0169C19.1761 13.9894 19.6425 13.8661 20.0705 13.6543C20.4986 13.4425 20.8795 13.1466 21.1906 12.7842C21.7578 12.1201 22.0668 11.2739 22.0612 10.4006V7.35555C22.0612 7.23004 22.0113 7.10967 21.9226 7.02092C21.8338 6.93218 21.7134 6.88232 21.5879 6.88232V6.88232Z" fill="#15FF1B"/>
<path d="M43.3707 1.85832e-07C43.2424 0.000112472 43.1194 0.0511244 43.0287 0.141837C42.938 0.232549 42.887 0.35555 42.8869 0.483837V10.4141C42.8869 11.0792 42.6332 11.7193 42.1775 12.2037C41.7218 12.6882 41.0985 12.9806 40.4346 13.0212C39.6565 13.0678 38.9539 12.8333 38.456 12.3609C38.2128 12.129 38.0228 11.847 37.8993 11.5345C37.7565 11.1679 37.6871 10.7769 37.6949 10.3836C37.6949 10.3755 37.6949 10.3675 37.6949 10.3607L37.6707 9.54059C37.6416 8.60347 37.2481 7.71467 36.5739 7.06312C35.8997 6.41158 34.9979 6.04867 34.0604 6.05155C33.5799 6.04636 33.1031 6.13652 32.6577 6.31681C32.2122 6.4971 31.807 6.76394 31.4654 7.10189C31.1237 7.43984 30.8525 7.84219 30.6675 8.28565C30.4824 8.72911 30.3871 9.20487 30.3871 9.6854C30.3871 10.1659 30.4824 10.6417 30.6675 11.0852C30.8525 11.5286 31.1237 11.931 31.4654 12.2689C31.807 12.6069 32.2122 12.8737 32.6577 13.054C33.1031 13.2343 33.5799 13.3245 34.0604 13.3193C34.1918 13.3193 34.3179 13.267 34.4109 13.1741C34.5039 13.0811 34.5561 12.955 34.5561 12.8236C34.5561 12.6921 34.5039 12.566 34.4109 12.473C34.3179 12.3801 34.1918 12.3278 34.0604 12.3278C33.547 12.3281 33.0447 12.1787 32.6148 11.8981C32.1849 11.6175 31.8461 11.2177 31.6397 10.7477C31.4333 10.2776 31.3682 9.75766 31.4525 9.25126C31.5368 8.74486 31.7668 8.27397 32.1143 7.89614C32.4619 7.5183 32.912 7.24988 33.4096 7.12366C33.9072 6.99744 34.4308 7.01889 34.9164 7.1854C35.402 7.3519 35.8286 7.65624 36.1441 8.06124C36.4596 8.46624 36.6503 8.95436 36.6928 9.46596V9.4719C36.6928 9.53296 36.6962 9.58808 36.6958 9.64151C36.6958 9.64999 36.6958 9.65806 36.6958 9.66611L36.7272 10.387C36.7195 10.903 36.8126 11.4155 37.0016 11.8957C37.177 12.3369 37.4459 12.7349 37.7899 13.0623C38.428 13.6678 39.2901 13.9952 40.2396 13.9952C40.3244 13.9952 40.4092 13.9926 40.494 13.9876C41.4039 13.9321 42.2583 13.5316 42.883 12.8677C43.5077 12.2038 43.8555 11.3266 43.8554 10.415V0.483837C43.8553 0.420243 43.8428 0.357282 43.8184 0.29855C43.794 0.239819 43.7583 0.186465 43.7133 0.141537C43.6682 0.0966084 43.6148 0.0609852 43.5561 0.0367004C43.4973 0.0124155 43.4343 -5.5525e-05 43.3707 1.85832e-07V1.85832e-07Z" fill="#15FF1B"/>
<path d="M29.5931 7.98477C29.5529 8.06231 29.492 8.12717 29.4171 8.17209C29.3422 8.21702 29.2563 8.24025 29.169 8.2392H29.1609C29.083 8.23925 29.0061 8.22046 28.9369 8.18443C28.8677 8.14841 28.8083 8.0962 28.7636 8.03226C28.6724 7.90129 28.5681 7.77996 28.4524 7.67012C27.9435 7.18841 27.2315 6.94925 26.4437 6.99674C25.7925 7.03551 25.1796 7.31764 24.7267 7.78716C24.5308 7.98943 24.4299 8.13827 24.4299 8.39058V13.4066C24.4299 13.5175 24.3858 13.6238 24.3074 13.7023C24.229 13.7807 24.1227 13.8247 24.0118 13.8247C23.9009 13.8247 23.7945 13.7807 23.7161 13.7023C23.6377 13.6238 23.5937 13.5175 23.5937 13.4066C23.5937 13.4066 23.5742 9.83615 23.5958 8.33248C23.5958 8.24089 23.5983 8.15736 23.6 8.0823C23.6212 7.81812 23.7039 7.40044 24.0012 7.107C24.2439 6.8749 24.5145 6.67391 24.8069 6.50866C25.2888 6.22993 25.829 6.06732 26.3847 6.03374C26.89 6.0001 27.3969 6.06564 27.8769 6.22668C28.3393 6.38193 28.7624 6.63586 29.1169 6.97087C29.2815 7.12708 29.4295 7.30004 29.5583 7.48694C29.6088 7.55891 29.6387 7.6433 29.6449 7.73102C29.651 7.81874 29.6331 7.90647 29.5931 7.98477V7.98477Z" fill="#15FF1B"/>
<path d="M4.09437 18.1444C4.37424 18.1444 4.5324 18.314 4.5324 18.5409C4.53461 18.6086 4.51572 18.6754 4.47834 18.7319C4.44097 18.7884 4.38696 18.8319 4.32377 18.8564C4.39936 18.8771 4.46568 18.9229 4.51189 18.9862C4.5581 19.0495 4.58148 19.1266 4.5782 19.2049C4.5782 19.4437 4.40392 19.6158 4.13423 19.6158H3.57788V18.1444H4.09437ZM4.05196 18.7525C4.17918 18.7525 4.25677 18.68 4.25677 18.5676C4.25677 18.4552 4.18596 18.3853 4.04984 18.3853H3.85351V18.7525H4.05196ZM4.08037 19.3771C4.21607 19.3771 4.29706 19.3046 4.29706 19.1863C4.29706 19.068 4.22412 18.9891 4.08504 18.9891H3.85393V19.3771H4.08037Z" fill="#15FF1B"/>
<path d="M4.84409 18.1444H5.17272L5.49457 18.7275L5.81685 18.1444H6.13106L5.62221 18.9972V19.6158H5.347V18.9972L4.84409 18.1444Z" fill="#15FF1B"/>
<path d="M7.50073 19.0616V19.6158H7.22128V18.1444H7.75812C8.04181 18.1444 8.23051 18.3374 8.23051 18.6032C8.23051 18.8691 8.04181 19.0616 7.75812 19.0616H7.50073ZM7.72378 18.8148C7.86371 18.8148 7.94852 18.73 7.94852 18.6053C7.94852 18.4807 7.86371 18.3933 7.72378 18.3933H7.50285V18.8136L7.72378 18.8148Z" fill="#15FF1B"/>
<path d="M8.64565 19.6158V18.1444H8.92933V19.6158H8.64565Z" fill="#15FF1B"/>
<path d="M10.3931 19.6158L9.74053 18.5718V19.6158H9.46024V18.1444H9.8088L10.4067 19.1197V18.1444H10.6861V19.6158H10.3931Z" fill="#15FF1B"/>
<path d="M11.217 19.6158V18.1444H12.1169V18.4141H11.4956V18.7504H12.0571V19.0048H11.4956V19.344H12.116V19.6137L11.217 19.6158Z" fill="#15FF1B"/>
<path d="M13.3021 19.6158V18.1444H13.5815V19.3419H14.2223V19.6158H13.3021Z" fill="#15FF1B"/>
<path d="M15.5109 19.2802H14.927L14.8074 19.6164H14.5106L15.0619 18.145H15.3863L15.9337 19.6164H15.6297L15.5109 19.2802ZM15.0203 19.0189H15.4176L15.2192 18.4626L15.0203 19.0189Z" fill="#15FF1B"/>
<path d="M16.8386 18.1444C17.1181 18.1444 17.2762 18.314 17.2762 18.5409C17.2784 18.6086 17.2596 18.6754 17.2222 18.7319C17.1848 18.7884 17.1308 18.8319 17.0676 18.8564C17.1432 18.8771 17.2095 18.9229 17.2557 18.9862C17.3019 19.0495 17.3253 19.1266 17.322 19.2049C17.322 19.4437 17.1478 19.6158 16.8781 19.6158H16.3213V18.1444H16.8386ZM16.7962 18.7525C16.9234 18.7525 17.001 18.68 17.001 18.5676C17.001 18.4552 16.9302 18.3853 16.7941 18.3853H16.5969V18.7525H16.7962ZM16.8246 19.3771C16.9603 19.3771 17.0413 19.3046 17.0413 19.1863C17.0413 19.068 16.9684 18.9891 16.8293 18.9891H16.5969V19.3771H16.8246Z" fill="#15FF1B"/>
<path d="M18.4754 18.574C18.4656 18.513 18.4333 18.4579 18.3849 18.4195C18.3365 18.3811 18.2754 18.3623 18.2138 18.3666C18.0781 18.3666 17.9891 18.4557 17.9891 18.5532C17.9891 18.6342 18.0395 18.6987 18.1451 18.7194L18.3457 18.7589C18.6069 18.8106 18.7468 18.9849 18.7468 19.1927C18.7468 19.4187 18.5624 19.6468 18.2278 19.6468C17.8462 19.6468 17.6765 19.3958 17.6566 19.1863L17.9157 19.1155C17.928 19.261 18.0272 19.3916 18.2299 19.3916C18.38 19.3916 18.4631 19.3148 18.4631 19.2113C18.4631 19.1265 18.4004 19.0595 18.2889 19.0366L18.0883 18.9942C17.8593 18.9463 17.7113 18.7949 17.7113 18.5727C17.7113 18.3111 17.9403 18.1122 18.2117 18.1122C18.5602 18.1122 18.6942 18.3281 18.7265 18.4939L18.4754 18.574Z" fill="#15FF1B"/>
</svg>
