<svg width="32" height="32" viewBox="0 0 32 32" fill="none" xmlns="http://www.w3.org/2000/svg">
<circle opacity="0.2" cx="16" cy="16" r="16" fill="white"/>
<path d="M23.3333 10.667V14.667H19.3333" stroke="white" stroke-linecap="round" stroke-linejoin="round"/>
<path d="M8.66675 21.333V17.333H12.6667" stroke="white" stroke-linecap="round" stroke-linejoin="round"/>
<path d="M10.3401 14.0004C10.6782 13.0449 11.2528 12.1906 12.0104 11.5173C12.7679 10.844 13.6837 10.3736 14.6723 10.1499C15.6608 9.92621 16.6899 9.9566 17.6635 10.2382C18.6372 10.5198 19.5236 11.0435 20.2401 11.7604L23.3334 14.667M8.66675 17.3337L11.7601 20.2404C12.4766 20.9572 13.363 21.4809 14.3366 21.7625C15.3102 22.0441 16.3393 22.0745 17.3279 21.8509C18.3164 21.6272 19.2322 21.1568 19.9898 20.4834C20.7473 19.8101 21.322 18.9559 21.6601 18.0004" stroke="white" stroke-linecap="round" stroke-linejoin="round"/>
</svg>
