<svg width="48" height="48" viewBox="0 0 48 48" fill="none" xmlns="http://www.w3.org/2000/svg">
<rect width="48" height="48" rx="8" fill="#2E7BE6"/>
<path d="M18.9791 20.4645H12.9791V14.4645" stroke="white" stroke-width="2" stroke-linecap="round" stroke-linejoin="round"/>
<path d="M32.7782 16.2218C31.7567 15.2004 30.5441 14.3901 29.2095 13.8373C27.8749 13.2845 26.4445 13 25 13C23.5555 13 22.1251 13.2845 20.7905 13.8373C19.4559 14.3901 18.2433 15.2004 17.2218 16.2218L12.9792 20.4645" stroke="white" stroke-width="2" stroke-linecap="round" stroke-linejoin="round"/>
<path d="M31.0209 27.5355H37.0209V33.5355" stroke="white" stroke-width="2" stroke-linecap="round" stroke-linejoin="round"/>
<path d="M17.2218 31.7782C18.2433 32.7996 19.4559 33.6099 20.7905 34.1627C22.1251 34.7155 23.5555 35 25 35C26.4445 35 27.8749 34.7155 29.2095 34.1627C30.5441 33.6099 31.7567 32.7996 32.7782 31.7782L37.0208 27.5355" stroke="white" stroke-width="2" stroke-linecap="round" stroke-linejoin="round"/>
</svg>
