<svg width="160" height="181" viewBox="0 0 160 181" fill="none" xmlns="http://www.w3.org/2000/svg">
<circle cx="80" cy="86" r="80" fill="white"/>
<path d="M42.0936 158.072H9.97607V158.258H42.0936V158.072Z" fill="#EBEBEB"/>
<path d="M53.4266 158.072H48.7194V158.258H53.4266V158.072Z" fill="#EBEBEB"/>
<path d="M138.394 161.21H68.7305V161.396H138.394V161.21Z" fill="#EBEBEB"/>
<path d="M89.496 162.067L106.109 51.6452V162.067H110.571V50.9537L127.213 162.067H131.987L111.165 22.9856L110.571 23.0749V18.5461H106.109V23.0526L105.499 22.9856L84.6252 162.067H89.496Z" fill="#E0E0E0"/>
<path d="M131.206 38.4086H85.2351L88.9607 0H127.488L131.206 38.4086Z" fill="#EBEBEB"/>
<path d="M77.3854 73.0096C84.3161 78.5795 81.8993 105.164 83.2006 109.254C84.502 113.344 90.0793 116.691 90.0793 116.691L82.3008 125.8C82.3008 125.8 75.7941 124.67 70.8489 114.073C65.9038 103.476 77.3854 73.0096 77.3854 73.0096Z" fill="#263238"/>
<path opacity="0.2" d="M77.3854 73.0096C84.3161 78.5795 81.8993 105.164 83.2006 109.254C84.502 113.344 90.0793 116.691 90.0793 116.691L82.3008 125.8C82.3008 125.8 75.7941 124.67 70.8489 114.073C65.9038 103.476 77.3854 73.0096 77.3854 73.0096Z" fill="black"/>
<path d="M70.0012 131.377C70.0012 131.377 119.825 117.479 126.056 134.962C132.288 152.445 87.1047 166.373 62.0963 167.258C37.088 168.143 26.8705 150.533 34.2473 133.854L70.0012 131.377Z" fill="#2E7BE6"/>
<path opacity="0.2" d="M70.0012 131.377C70.0012 131.377 119.825 117.479 126.056 134.962C132.288 152.445 87.1047 166.373 62.0963 167.258C37.088 168.143 26.8705 150.533 34.2473 133.854L70.0012 131.377Z" fill="black"/>
<path d="M118.836 159.673C118.808 159.691 118.776 159.7 118.743 159.7C118.71 159.7 118.677 159.691 118.65 159.673C118.625 159.656 118.607 159.631 118.599 159.603C118.591 159.574 118.593 159.544 118.605 159.516C118.687 159.241 119.52 156.832 120.353 156.579C120.443 156.56 120.536 156.563 120.624 156.589C120.713 156.615 120.793 156.663 120.858 156.728C120.974 156.825 121.062 156.952 121.113 157.094C121.164 157.236 121.176 157.39 121.148 157.538C121.013 157.988 120.74 158.383 120.367 158.669C119.89 159.051 119.377 159.387 118.836 159.673ZM119.051 159.204C119.831 158.864 120.462 158.254 120.829 157.486C120.85 157.384 120.842 157.278 120.805 157.181C120.769 157.083 120.704 156.998 120.62 156.936C120.598 156.907 120.568 156.886 120.533 156.877C120.498 156.868 120.46 156.87 120.427 156.884C120.354 156.904 120.288 156.943 120.234 156.996C119.717 157.655 119.326 158.403 119.081 159.204H119.051Z" fill="#2E7BE6"/>
<path d="M118.791 159.702C118.763 159.711 118.734 159.711 118.706 159.703C118.679 159.695 118.654 159.679 118.635 159.658C118.553 159.591 117.4 158.126 117.594 157.144C117.616 157.023 117.662 156.907 117.73 156.803C117.798 156.7 117.885 156.611 117.988 156.542C118.076 156.457 118.19 156.405 118.312 156.394C118.434 156.383 118.556 156.414 118.657 156.482C119.259 156.906 119.185 158.855 118.888 159.598V159.673L118.791 159.702ZM118.129 156.839C118.027 156.931 117.959 157.054 117.936 157.189C117.809 157.813 118.389 158.75 118.679 159.197C118.865 158.364 118.806 156.966 118.449 156.75C118.412 156.75 118.337 156.668 118.159 156.795L118.099 156.839H118.129Z" fill="#2E7BE6"/>
<path d="M68.0678 168.514C68.0765 168.483 68.0936 168.455 68.1172 168.433C68.1408 168.41 68.17 168.395 68.2017 168.388C68.231 168.384 68.2607 168.39 68.2862 168.405C68.3118 168.42 68.3317 168.442 68.343 168.47C68.4917 168.723 69.6295 170.998 69.2205 171.772C69.1748 171.851 69.1085 171.916 69.0286 171.961C68.9487 172.005 68.8582 172.027 68.7668 172.024C68.6173 172.042 68.4656 172.019 68.3281 171.958C68.1906 171.896 68.0724 171.798 67.986 171.675C67.7586 171.262 67.6675 170.789 67.7258 170.321C67.7807 169.709 67.8953 169.104 68.0678 168.514ZM68.2463 168.99C67.9528 169.79 67.9528 170.667 68.2463 171.467C68.3046 171.554 68.3868 171.623 68.483 171.665C68.5791 171.707 68.6854 171.721 68.7892 171.705C68.8259 171.707 68.8624 171.698 68.8942 171.68C68.926 171.661 68.9515 171.634 68.9676 171.6C68.9957 171.532 69.0132 171.459 69.0197 171.385C68.9077 170.547 68.6458 169.736 68.2463 168.99Z" fill="#2E7BE6"/>
<path d="M80.137 151.693L71.3249 158.156L67.0936 161.257L69.8525 166.083L74.1507 163.733L84.6434 157.992L80.137 151.693Z" fill="#EBB376"/>
<path d="M71.2209 165.934L68.5587 160.067C68.5236 159.99 68.4734 159.92 68.411 159.863C68.3486 159.806 68.2754 159.762 68.1956 159.733C68.1159 159.705 68.0312 159.693 67.9467 159.698C67.8621 159.703 67.7794 159.724 67.7035 159.762L64.8331 161.167C64.8331 161.167 60.8398 162.781 60.3713 164.075C58.884 167.867 64.4538 180.993 66.1865 181C66.8186 181 67.1978 180.018 67.2871 179.394C67.5622 177.401 67.6143 172.404 67.8671 170.745C68.1645 168.812 70.098 167.325 71.0275 166.73C71.1477 166.641 71.2329 166.512 71.2682 166.367C71.3036 166.221 71.2868 166.068 71.2209 165.934Z" fill="#263238"/>
<path d="M68.0754 168.462C68.0891 168.437 68.1096 168.416 68.1345 168.402C68.1594 168.387 68.1879 168.38 68.2167 168.381C68.3208 168.381 70.1724 168.566 70.745 169.392C70.8855 169.599 70.9389 169.852 70.8938 170.098C70.893 170.22 70.8506 170.339 70.7735 170.433C70.6964 170.528 70.5893 170.593 70.4699 170.619C69.7263 170.753 68.4026 169.34 68.0828 168.611V168.544C68.0731 168.518 68.0705 168.49 68.0754 168.462ZM70.5814 169.994C70.5903 169.856 70.5509 169.72 70.4699 169.608C70.113 169.087 69.0347 168.864 68.4993 168.752C68.9603 169.496 69.9865 170.388 70.403 170.307C70.4476 170.307 70.5368 170.307 70.574 170.069V169.994H70.5814Z" fill="#2E7BE6"/>
<path opacity="0.2" d="M80.1369 151.693L71.3248 158.156L74.1506 163.733L84.6433 157.992L80.1369 151.693Z" fill="black"/>
<path d="M76.1586 164.097L79.0588 163.45L74.2475 154.259L71.5555 157.003L76.1586 164.097Z" fill="#2E7BE6"/>
<path opacity="0.6" d="M76.1586 164.097L79.0588 163.45L74.2475 154.259L71.5555 157.003L76.1586 164.097Z" fill="white"/>
<path d="M98.3708 162.818L109.154 164.595L114.337 165.451L115.846 160.096L111.161 158.676L99.7243 155.196L98.3708 162.818Z" fill="#EBB376"/>
<path d="M114.79 159.227L112.455 165.228C112.425 165.307 112.412 165.392 112.415 165.477C112.417 165.562 112.437 165.645 112.472 165.723C112.508 165.8 112.558 165.87 112.62 165.928C112.682 165.986 112.755 166.031 112.835 166.06L115.846 167.124C115.846 167.124 119.795 168.849 121.052 168.299C124.77 166.693 130.288 153.545 129.075 152.303C128.629 151.85 127.67 152.266 127.157 152.645C125.543 153.835 121.951 157.3 120.576 158.275C118.984 159.42 116.553 159.063 115.497 158.832C115.351 158.804 115.201 158.827 115.071 158.9C114.942 158.972 114.842 159.088 114.79 159.227Z" fill="#263238"/>
<path opacity="0.2" d="M98.3708 162.818L109.154 164.595L111.161 158.676L99.7243 155.196L98.3708 162.818Z" fill="black"/>
<path d="M109.302 157.59C109.302 157.59 64.4761 131.147 49.306 131.853C34.1359 132.56 32.8197 147.626 39.0736 155.992C45.3276 164.357 56.9208 166.402 56.9208 166.402C56.9208 166.402 49.0532 155.248 50.1909 152.154C51.3287 149.061 55.664 159.546 55.664 159.546C55.664 159.546 83.4387 163.182 107.637 165.235L109.302 157.59Z" fill="#2E7BE6"/>
<path d="M110.016 156.877L107.525 155.203L104.327 165.027H108.165L110.016 156.877Z" fill="#2E7BE6"/>
<path opacity="0.6" d="M110.016 156.877L107.525 155.203L104.327 165.027H108.165L110.016 156.877Z" fill="white"/>
<path d="M75.8685 136.025C67.7555 120.409 70.3359 96.6497 77.3558 73.0097C72.4478 68.9123 52.868 66.1459 37.9433 70.4887C37.9433 70.4887 28.4694 105.596 29.5848 143.945L75.8685 136.025Z" fill="#263238"/>
<path d="M58.646 76.8468C52.1243 76.8468 47.8782 70.0054 47.8782 70.0054C56.4299 67.0309 56.4597 57.9808 56.4597 57.9808L59.754 61.2008L64.4463 65.7964C60.5422 68.5627 62.3864 70.9572 63.6283 72.0206C63.8822 72.2479 64.156 72.452 64.4463 72.6304C64.4463 72.6304 65.1676 76.8468 58.646 76.8468Z" fill="#EBB376"/>
<path opacity="0.2" d="M63.6283 72.0207C55.6268 72.9205 56.192 60.9405 56.192 60.9405C57.3921 60.9215 58.5916 61.0086 59.7763 61.2008L64.4686 65.7965C60.5423 68.5628 62.3865 70.9573 63.6283 72.0207Z" fill="black"/>
<path d="M69.8748 49.0201C66.8482 50.2694 67.4282 53.5785 72.4552 59.6094C75.5487 56.9397 77.2293 50.8717 75.6008 48.9234C73.9722 46.9751 72.5221 47.9121 69.8748 49.0201Z" fill="#263238"/>
<path d="M74.3516 62.4054C74.0774 63.2124 73.7545 64.0021 73.3849 64.7701C70.4104 70.8605 61.7991 72.0429 57.9917 66.0194L57.9471 65.96C55.4336 61.9072 56.378 58.1221 57.4266 51.5632C57.6601 50.043 58.2764 48.607 59.2174 47.3904C60.1585 46.1738 61.3934 45.2163 62.8061 44.6081C64.2189 43.9999 65.7631 43.7608 67.2936 43.9134C68.8241 44.066 70.2907 44.6052 71.5556 45.4803C76.5677 48.968 76.2702 56.8058 74.3516 62.4054Z" fill="#EBB376"/>
<path d="M66.6848 55.5269C66.5658 56.0549 66.7517 56.5457 67.0938 56.62C67.4359 56.6944 67.8375 56.3374 67.9267 55.8095C68.0159 55.2815 67.8598 54.7981 67.5251 54.7163C67.1905 54.6345 66.8335 55.0138 66.6848 55.5269Z" fill="#263238"/>
<path d="M72.6634 56.8802C72.5444 57.4008 72.7303 57.8916 73.0798 57.9659C73.4293 58.0403 73.8235 57.6908 73.9201 57.1554C74.0168 56.62 73.8458 56.1366 73.5037 56.0622C73.1616 55.9879 72.7824 56.3523 72.6634 56.8802Z" fill="#263238"/>
<path d="M70.6557 56.6869C70.9159 58.4378 71.4163 60.1444 72.143 61.7585C70.9978 62.4129 69.5179 61.6618 69.5179 61.6618L70.6557 56.6869Z" fill="#D58745"/>
<path d="M65.4726 53.2736C65.4015 53.2691 65.3348 53.2371 65.2867 53.1844C65.2571 53.1553 65.2335 53.1206 65.2174 53.0823C65.2013 53.044 65.193 53.0028 65.193 52.9613C65.193 52.9197 65.2013 52.8786 65.2174 52.8403C65.2335 52.802 65.2571 52.7673 65.2867 52.7382C65.6594 52.3973 66.109 52.1516 66.5972 52.0221C67.0854 51.8926 67.5976 51.8832 68.0902 51.9946C68.168 52.0155 68.2343 52.0663 68.2747 52.136C68.3151 52.2057 68.3263 52.2885 68.3059 52.3664C68.2787 52.4448 68.2232 52.5103 68.1504 52.5502C68.0776 52.59 67.9925 52.6014 67.9118 52.582C67.5201 52.4928 67.1127 52.4997 66.7242 52.602C66.3358 52.7042 65.9778 52.899 65.6809 53.1695C65.6266 53.2285 65.5525 53.2656 65.4726 53.2736Z" fill="#263238"/>
<path d="M75.8388 55.4748C75.7807 55.4591 75.728 55.428 75.6861 55.3848C75.6442 55.3416 75.6147 55.288 75.6008 55.2295C75.5202 54.8405 75.3489 54.4761 75.1008 54.166C74.8527 53.8558 74.5348 53.6087 74.173 53.4447C74.0943 53.4146 74.0303 53.3552 73.9943 53.279C73.9583 53.2028 73.953 53.1157 73.9797 53.0357C74.0083 52.9576 74.0662 52.8937 74.1412 52.8576C74.2162 52.8215 74.3023 52.816 74.3812 52.8424C74.842 53.0413 75.2485 53.3476 75.5668 53.7357C75.885 54.1238 76.1058 54.5825 76.2106 55.0733C76.2206 55.1133 76.2225 55.155 76.2163 55.1958C76.2101 55.2366 76.1958 55.2757 76.1744 55.311C76.153 55.3463 76.1247 55.3769 76.0914 55.4012C76.058 55.4255 76.0202 55.4429 75.98 55.4525H75.8388V55.4748Z" fill="#263238"/>
<path d="M61.2858 46.4322C64.0744 48.15 62.9739 51.3253 57.0545 56.4713C54.4146 53.348 53.7231 47.0792 55.6491 45.4283C57.5751 43.7775 58.8467 44.9375 61.2858 46.4322Z" fill="#263238"/>
<path d="M53.1803 56.0698C53.2279 56.8965 53.4384 57.7058 53.7995 58.451C54.1607 59.1962 54.6654 59.8629 55.2847 60.4126C56.9505 61.8999 58.7278 60.6059 59.0624 58.5386C59.3673 56.6721 58.8542 53.6678 56.8315 53.0134C54.8088 52.359 53.0687 54.0248 53.1803 56.0698Z" fill="#EBB376"/>
<path d="M64.4463 61.7288C64.4463 61.7288 65.1304 64.0935 68.2983 64.6438" stroke="#263238" stroke-width="0.414388" stroke-linecap="round" stroke-linejoin="round"/>
<path d="M70.1427 56.7315C70.1427 57.1727 70.0119 57.6041 69.7667 57.9709C69.5216 58.3378 69.1732 58.6237 68.7655 58.7926C68.3579 58.9614 67.9093 59.0056 67.4766 58.9195C67.0438 58.8335 66.6463 58.621 66.3343 58.309C66.0223 57.997 65.8099 57.5995 65.7238 57.1667C65.6377 56.734 65.6819 56.2854 65.8507 55.8778C66.0196 55.4701 66.3055 55.1217 66.6724 54.8766C67.0392 54.6314 67.4706 54.5006 67.9118 54.5006C68.5035 54.5006 69.0709 54.7357 69.4893 55.154C69.9077 55.5724 70.1427 56.1398 70.1427 56.7315Z" stroke="#263238" stroke-width="0.414388" stroke-linecap="round" stroke-linejoin="round"/>
<path d="M76.2181 57.9808C76.2181 58.422 76.0873 58.8533 75.8422 59.2202C75.597 59.5871 75.2486 59.873 74.841 60.0419C74.4333 60.2107 73.9848 60.2549 73.552 60.1688C73.1193 60.0827 72.7218 59.8703 72.4098 59.5583C72.0978 59.2463 71.8853 58.8488 71.7992 58.416C71.7131 57.9833 71.7573 57.5347 71.9262 57.1271C72.095 56.7194 72.3809 56.371 72.7478 56.1259C73.1147 55.8807 73.546 55.7499 73.9872 55.7499C74.5789 55.7499 75.1464 55.9849 75.5647 56.4033C75.9831 56.8217 76.2181 57.3891 76.2181 57.9808Z" stroke="#263238" stroke-width="0.414388" stroke-linecap="round" stroke-linejoin="round"/>
<path d="M70.1427 57.3413C70.4084 57.1992 70.7181 57.1631 71.0093 57.2404C71.3005 57.3177 71.5516 57.5026 71.7118 57.7578" stroke="#263238" stroke-width="0.414388" stroke-linecap="round" stroke-linejoin="round"/>
<path d="M65.6808 56.2704C65.6808 56.2704 59.2186 53.5487 58.0139 53.2959" stroke="#263238" stroke-width="0.414388" stroke-linecap="round" stroke-linejoin="round"/>
<path d="M55.5824 45.5176C55.5824 45.5176 54.9131 40.2675 60.2747 39.3975C65.6363 38.5274 72.6487 39.8734 74.8201 38.9438C74.7352 39.4091 74.5545 39.8516 74.2895 40.2433C74.0245 40.635 73.6811 40.9674 73.2808 41.2194C73.2808 41.2194 77.3708 42.7066 80.5907 41.4276C80.5907 41.4276 79.1927 45.3019 77.3857 46.7892H78.925C78.925 46.7892 75.8761 49.7042 72.1654 49.7637C68.4547 49.8232 64.9596 44.7144 61.286 46.4322C57.6125 48.15 55.5824 45.5176 55.5824 45.5176Z" fill="#263238"/>
<path opacity="0.4" d="M74.3515 62.4054C74.0773 63.2124 73.7544 64.0021 73.3848 64.7702C70.4103 70.8605 61.799 72.0429 57.9916 66.0195L57.947 65.96C55.9838 62.4723 57.5529 58.6649 57.5529 58.6649L58.6981 54.9468L59.5309 54.1213C59.5309 54.1213 59.7243 57.8916 60.3118 58.9549C60.8992 60.0183 64.2456 60.3307 64.9297 60.5166C65.6139 60.7025 67.235 62.6359 68.0381 63.1565C68.8412 63.677 71.7563 63.2457 72.1355 63.677C72.5148 64.1083 74.3515 62.4054 74.3515 62.4054Z" fill="black"/>
<path opacity="0.2" d="M40.9177 122.268L56.3407 139.371C56.3407 139.371 73.3847 138.992 94.0875 149.113C94.0875 149.113 116.3 139.937 118.345 132.314C120.39 124.692 71.7116 130.083 71.7116 130.083L40.9177 122.268Z" fill="black"/>
<path d="M45.2757 117.248L70.0015 125.339C70.0015 125.339 78.8358 123.383 80.4123 123.383C81.9888 123.383 88.094 128.343 84.6436 130.076C81.1931 131.809 71.7713 132.032 70.7451 131.474C69.7189 130.916 42.3011 124.499 42.3011 124.499L45.2757 117.248Z" fill="#EBB376"/>
<path d="M37.9433 70.4888C43.5354 69.4031 33.831 103.491 36.2106 108.511C38.5902 113.53 47.8782 116.691 47.8782 116.691L43.6023 126.127C43.6023 126.127 30.9605 123.74 24.0819 114.973C17.2033 106.205 28.8114 72.2586 37.9433 70.4888Z" fill="#263238"/>
<path opacity="0.2" d="M37.9433 70.4888C43.5354 69.4031 33.831 103.491 36.2106 108.511C38.5902 113.53 47.8782 116.691 47.8782 116.691L43.6023 126.127C43.6023 126.127 30.9605 123.74 24.0819 114.973C17.2033 106.205 28.8114 72.2586 37.9433 70.4888Z" fill="black"/>
<path d="M47.8782 115.947L42.6727 126.142L47.1345 127.102L51.2245 117.717L47.8782 115.947Z" fill="#263238"/>
<path opacity="0.2" d="M47.8782 115.947L42.6727 126.142L47.1345 127.102L51.2245 117.717L47.8782 115.947Z" fill="white"/>
<path d="M58.1031 130.076V131.697C58.1045 132.238 58.3137 132.757 58.6875 133.147C59.0613 133.538 59.571 133.769 60.111 133.794H119.892C120.449 133.778 120.981 133.554 121.381 133.166C121.782 132.778 122.022 132.254 122.056 131.697V130.076H58.1031Z" fill="#263238"/>
<path opacity="0.2" d="M58.1031 130.076V131.697C58.1045 132.238 58.3137 132.757 58.6875 133.147C59.0613 133.538 59.571 133.769 60.111 133.794H119.892C120.449 133.778 120.981 133.554 121.381 133.166C121.782 132.778 122.022 132.254 122.056 131.697V130.076H58.1031Z" fill="white"/>
<path opacity="0.2" d="M80.4121 130.076V131.697C80.4154 132.238 80.6262 132.758 81.0012 133.148C81.3762 133.538 81.8867 133.769 82.4274 133.794H119.892C120.449 133.778 120.981 133.554 121.381 133.166C121.782 132.778 122.022 132.254 122.056 131.697V130.076H80.4121Z" fill="white"/>
<path d="M82.4274 132.307H121.922C122.556 132.276 123.167 132.058 123.677 131.681C124.188 131.304 124.576 130.784 124.792 130.188L133.85 101.773C133.953 101.531 133.994 101.267 133.969 101.005C133.944 100.742 133.853 100.491 133.705 100.273C133.556 100.055 133.356 99.8781 133.121 99.7583C132.887 99.6384 132.626 99.5795 132.362 99.5871H92.8383C92.1993 99.6337 91.5877 99.8652 91.078 100.253C90.5683 100.642 90.1826 101.17 89.9678 101.773L80.9104 130.15C80.8056 130.393 80.7648 130.659 80.792 130.922C80.8191 131.185 80.9133 131.437 81.0655 131.653C81.2176 131.869 81.4228 132.043 81.6612 132.158C81.8996 132.272 82.1634 132.323 82.4274 132.307Z" fill="#263238"/>
<path opacity="0.2" d="M82.4274 132.307H121.922C122.556 132.276 123.167 132.058 123.677 131.681C124.188 131.304 124.576 130.784 124.792 130.188L133.85 101.773C133.953 101.531 133.994 101.267 133.969 101.005C133.944 100.742 133.853 100.491 133.705 100.273C133.556 100.055 133.356 99.8781 133.121 99.7583C132.887 99.6384 132.626 99.5795 132.362 99.5871H92.8383C92.1993 99.6337 91.5877 99.8652 91.078 100.253C90.5683 100.642 90.1826 101.17 89.9678 101.773L80.9104 130.15C80.8056 130.393 80.7648 130.659 80.792 130.922C80.8191 131.185 80.9133 131.437 81.0655 131.653C81.2176 131.869 81.4228 132.043 81.6612 132.158C81.8996 132.272 82.1634 132.323 82.4274 132.307Z" fill="white"/>
<path opacity="0.2" d="M83.9146 132.307H121.922C122.556 132.276 123.167 132.058 123.677 131.681C124.188 131.304 124.576 130.784 124.792 130.188L133.85 101.773C133.953 101.531 133.994 101.267 133.969 101.005C133.944 100.742 133.853 100.491 133.705 100.273C133.556 100.055 133.356 99.8781 133.121 99.7583C132.887 99.6384 132.626 99.5795 132.362 99.5871H94.3254C93.6865 99.6337 93.0749 99.8652 92.5652 100.253C92.0555 100.642 91.6698 101.17 91.455 101.773L82.3976 130.15C82.2928 130.393 82.252 130.659 82.2792 130.922C82.3063 131.185 82.4005 131.437 82.5527 131.653C82.7048 131.869 82.9099 132.043 83.1484 132.158C83.3868 132.272 83.6506 132.323 83.9146 132.307Z" fill="white"/>
<path opacity="0.2" d="M111.139 112.831L105.673 116.705L108.038 120.572L113.504 116.705L111.139 112.831Z" fill="white"/>
</svg>
