<svg width="48" height="12" viewBox="0 0 48 12" fill="none" xmlns="http://www.w3.org/2000/svg">
<g opacity="0.5">
<path opacity="0.5" d="M16.3317 7.5963L17.118 7.17953C17.4719 7.87153 18.0145 8.20967 18.7458 8.20967C19.4614 8.20967 19.949 7.98162 19.949 7.43903C19.949 6.92789 19.5794 6.69198 18.6121 6.40103C17.4719 6.06289 16.5518 5.75621 16.5518 4.6317C16.5518 3.62515 17.3697 2.9646 18.5728 2.9646C19.7366 2.9646 20.4208 3.53865 20.7825 4.23852L20.059 4.74179C19.7052 4.15201 19.2098 3.87679 18.5649 3.87679C17.9123 3.87679 17.5348 4.1127 17.5348 4.5452C17.5348 5.09566 17.9594 5.27652 18.9188 5.56748C20.0355 5.89775 20.9241 6.25948 20.9241 7.37612C20.9241 8.34335 20.1062 9.09827 18.6986 9.09827C17.5348 9.09827 16.7013 8.49276 16.3317 7.5963Z" fill="white"/>
<path opacity="0.5" d="M21.3801 7.96602C21.3801 7.04597 22.1586 6.43261 24.1403 6.21242V6.0866C24.1403 5.66197 23.9201 5.4811 23.4483 5.4811C22.8585 5.4811 22.3788 5.77206 22.0249 6.05515L21.5453 5.44178C22.0014 5.02501 22.7091 4.67114 23.5898 4.67114C24.7222 4.67114 25.1154 5.21374 25.1154 6.20456V7.95029C25.1154 8.46143 25.1468 8.77598 25.2333 8.9883H24.2425C24.1875 8.8153 24.1481 8.68162 24.1481 8.44571C23.7156 8.88607 23.2124 9.05121 22.5833 9.05121C21.8913 9.05121 21.3801 8.66589 21.3801 7.96602ZM24.1403 7.80088V6.86511C22.9686 7.02238 22.3474 7.31334 22.3474 7.77729C22.3474 8.11543 22.5754 8.28843 22.9371 8.28843C23.4404 8.28843 23.8336 8.0997 24.1403 7.80088Z" fill="white"/>
<path opacity="0.5" d="M26.4679 8.98822V5.52821H25.7366V4.74184H26.4679V4.30934C26.4679 3.6016 26.7667 3.05115 27.8362 3.05115C28.017 3.05115 28.3473 3.0826 28.4181 3.09047V3.85324C28.3552 3.83751 28.1979 3.82179 28.0799 3.82179C27.7261 3.82179 27.443 3.91615 27.443 4.37224V4.7497H28.3709V5.53607H27.443V8.99609H26.4679V8.98822Z" fill="white"/>
<path opacity="0.5" d="M28.7247 6.86491C28.7247 5.25286 29.865 4.66309 30.7378 4.66309C31.6893 4.66309 32.5937 5.22927 32.5937 6.95928V7.18733H29.6998C29.7391 7.95797 30.211 8.28824 30.8322 8.28824C31.3827 8.28824 31.7051 8.10737 32.0196 7.79283L32.5386 8.30397C32.0982 8.79151 31.5163 9.07461 30.7614 9.07461C29.7077 9.07461 28.7247 8.42979 28.7247 6.86491ZM31.6972 6.456C31.6422 5.81118 31.3197 5.46518 30.73 5.46518C30.2503 5.46518 29.8099 5.74041 29.7156 6.456H31.6972Z" fill="white"/>
<path d="M33.4744 8.98819V3.07471H34.1821V6.12581L36.8479 3.07471H37.6972L35.6683 5.32372L37.9724 8.98819H37.1703L35.2044 5.85845L34.1821 6.99082V8.98819H33.4744Z" fill="white"/>
<path d="M38.1769 6.8728C38.1769 5.33938 39.1992 4.67883 40.0799 4.67883C41.0786 4.67883 41.8335 5.3787 41.8335 6.90425V7.0458H38.861C38.8846 7.9973 39.4351 8.50844 40.1271 8.50844C40.7326 8.50844 41.0786 8.26467 41.3931 7.8243L41.7942 8.17817C41.401 8.73649 40.8663 9.07463 40.0799 9.07463C39.0812 9.07463 38.1769 8.34331 38.1769 6.8728ZM41.1808 6.51893C41.1258 5.77188 40.764 5.26074 40.072 5.26074C39.5058 5.26074 38.9711 5.65393 38.8767 6.51893H41.1808Z" fill="white"/>
<path d="M42.1481 10.5059L42.3053 9.95548C42.4233 9.98693 42.6356 10.0263 42.9266 10.0263C43.3591 10.0263 43.5635 9.84539 43.7287 9.42861L43.8859 9.01184L42.2582 4.77332H42.9816L44.2162 8.18615H44.2319L45.4665 4.77332H46.1585L44.3578 9.46793C44.0668 10.2071 43.7444 10.6082 42.9266 10.6082C42.557 10.6082 42.3289 10.561 42.1481 10.5059Z" fill="white"/>
<path d="M46.4022 5.37097C46.4022 5.00924 46.6775 4.73401 47.0392 4.73401C47.393 4.73401 47.6604 5.00924 47.6604 5.3631C47.6604 5.72483 47.3852 6.00006 47.0235 6.00006C46.6696 6.00006 46.4022 5.72483 46.4022 5.37097ZM47.5267 5.37097C47.5267 5.08001 47.3144 4.85196 47.0235 4.85196C46.7404 4.85196 46.528 5.07215 46.528 5.3631C46.528 5.65406 46.7404 5.87424 47.0313 5.87424C47.3144 5.87424 47.5267 5.66192 47.5267 5.37097ZM46.7797 5.00924H47.047C47.2122 5.00924 47.3144 5.08001 47.3144 5.23728C47.3144 5.34738 47.2672 5.40242 47.1886 5.43388L47.3223 5.69338H47.1493L47.0235 5.4496H46.9448V5.69338H46.7797V5.00924ZM47.0313 5.33165C47.1021 5.33165 47.1493 5.30806 47.1493 5.24515C47.1493 5.18224 47.11 5.15865 47.0313 5.15865H46.9448V5.33165H47.0313Z" fill="white"/>
<path d="M12.4626 12H6.47051H0.478394V6.00787V0.0157471H6.47051H12.4626V5.96855V12Z" fill="#090909"/>
<path d="M8.09835 8.52422L7.80739 8.16249V8.52422H6.95025V8.00522C6.84016 8.03668 6.71434 8.06027 6.57279 8.06027H6.43911V8.51636H5.18092L4.9686 8.21754L4.76415 8.51636H2.696V6.4718H4.48105H4.76415L4.97647 6.77062L5.18879 6.4718H12.4627V0H0.478445V4.73393L0.879492 3.79815H1.69731L1.93322 4.32502V3.79815H2.93191L3.08132 4.24639L3.23073 3.79815H7.63439V4.00261C7.80739 3.86106 8.01971 3.79815 8.26348 3.79815H9.60031L9.83622 4.32502V3.79815H10.6226L10.8821 4.21493V3.79815H11.7785V5.84271H10.945L10.6934 5.44166V5.84271H9.47449L9.35653 5.53603H9.07344L8.95549 5.84271H8.23989C8.0433 5.84271 7.81525 5.80339 7.63439 5.65398V5.84271H6.43125L6.14029 5.48098V5.84271H1.55577L1.43781 5.53603H1.15472L1.03677 5.84271H0.470581V11.9842H12.4627V8.3984C12.3369 8.47704 12.1796 8.52422 12.0066 8.52422H8.09835Z" fill="white"/>
<path d="M12.4627 6.80205V6.79419H11.7392C11.4326 6.79419 11.2517 6.98292 11.2517 7.23456C11.2517 7.50192 11.4247 7.65133 11.6921 7.65133H12.0145C12.0931 7.65133 12.156 7.69851 12.156 7.77715C12.156 7.85579 12.101 7.90297 12.0145 7.90297H11.291V8.20179H12.0066C12.2425 8.20179 12.3998 8.09169 12.4627 7.91869C12.4784 7.87151 12.4942 7.81647 12.4942 7.75356C12.4942 7.69065 12.4863 7.62774 12.4627 7.58056C12.3998 7.43115 12.2583 7.34465 12.0538 7.34465H11.7235C11.6449 7.34465 11.5898 7.2896 11.5898 7.21883C11.5898 7.14019 11.6449 7.09301 11.7235 7.09301H12.329L12.4627 6.80205ZM10.2923 7.22669C10.2923 7.14805 10.3474 7.10087 10.426 7.10087H11.0315L11.1652 6.80205H10.4339C10.1272 6.80205 9.94633 6.99078 9.94633 7.24242C9.94633 7.50978 10.1193 7.65919 10.3867 7.65919H10.7091C10.7877 7.65919 10.8507 7.70638 10.8507 7.78501C10.8507 7.86365 10.7956 7.91083 10.7091 7.91083H9.98565V8.20965H10.7012C11.0079 8.20965 11.1888 8.02092 11.1888 7.76142C11.1888 7.50192 11.0237 7.35251 10.7484 7.35251H10.4182C10.3474 7.35251 10.2923 7.30533 10.2923 7.22669ZM8.67241 8.20965H9.80478V7.91083H9.01055V7.65133H9.78119V7.36037H9.01055V7.10874H9.80478V6.80992H8.67241V8.20965ZM8.59378 8.20965L8.12196 7.69065C8.35787 7.64347 8.50728 7.47046 8.50728 7.24242C8.50728 6.97505 8.31855 6.79419 8.01973 6.79419H7.24909V8.20965H7.58723V7.70638H7.7445L8.16128 8.20965H8.59378ZM7.98828 7.40756H7.59509V7.09301H7.98828C8.10623 7.09301 8.16914 7.16378 8.16914 7.25028C8.16128 7.34465 8.10623 7.40756 7.98828 7.40756ZM7.06823 7.26601C7.06823 6.98292 6.8795 6.79419 6.58068 6.79419H5.80217V8.20965H6.14031V7.74569H6.56495C6.8795 7.74569 7.06823 7.54124 7.06823 7.26601ZM6.72222 7.27387C6.72222 7.36824 6.65931 7.44687 6.54136 7.44687H6.13245V7.10087H6.54136C6.66718 7.10087 6.72222 7.17165 6.72222 7.27387ZM5.73926 8.20965L5.17308 7.49406L5.73926 6.79419H5.32249L4.97649 7.24242L4.63049 6.79419H4.20585L4.77203 7.50192L4.20585 8.20965H4.62262L4.96862 7.75356L5.31463 8.20965H5.73926ZM3.01843 8.20965H4.1508V7.91083H3.35657V7.65133H4.12721V7.36037H3.35657V7.10874H4.1508V6.80992H3.01843V8.20965Z" fill="white"/>
<path d="M11.4561 5.54388V4.12842H11.1258V4.87547L11.1337 5.04847H11.1258L11.0314 4.89119L10.536 4.12842H10.1193V5.54388H10.4495V4.75751L10.4417 4.59238H10.4495L10.5439 4.74965L11.0629 5.54388H11.4561ZM9.66317 5.54388H10.0485L9.44298 4.12842H8.99475L8.38925 5.54388H8.75098L8.86893 5.24506H9.53735L9.66317 5.54388ZM9.42726 4.96983H8.97903L9.11271 4.63956L9.19921 4.41937H9.20707L9.29357 4.63956L9.42726 4.96983ZM8.2477 4.4351H8.6173V4.12842H8.22411C7.78375 4.12842 7.54784 4.41937 7.54784 4.82042V4.84401C7.54784 5.26865 7.79161 5.53602 8.20052 5.53602H8.22411L8.36566 5.2372H8.26343C8.03538 5.2372 7.89384 5.09565 7.89384 4.84401V4.82042C7.88597 4.60024 8.00393 4.4351 8.2477 4.4351ZM7.00524 5.54388H7.34338V4.83615V4.12842H7.00524V4.83615V5.54388ZM6.91874 5.54388L6.44692 5.02488C6.68283 4.9777 6.83224 4.80469 6.83224 4.57665C6.83224 4.30928 6.64351 4.12842 6.3447 4.12842H5.57405V5.54388H5.91219V5.0406H6.06947L6.48624 5.54388H6.91874ZM6.31324 4.74178H5.92006V4.42724H6.31324C6.43119 4.42724 6.4941 4.49801 6.4941 4.58451C6.48624 4.67101 6.43119 4.74178 6.31324 4.74178ZM4.21364 5.54388H5.34601V5.24506H4.55964V4.98556H5.33028V4.6946H4.55964V4.44297H5.34601V4.14415H4.21364V5.54388ZM3.62386 5.54388H3.95414V4.12842H3.40368L3.12845 4.94624L3.08127 5.10351H3.07341L3.02622 4.94624L2.751 4.12842H2.20054V5.54388H2.53081V4.61597L2.52295 4.40365H2.53081L2.60159 4.61597L2.924 5.54388H3.23068L3.55309 4.61597L3.62386 4.40365H3.63173L3.62386 4.61597V5.54388ZM1.75231 5.54388H2.13763L1.53213 4.12842H1.0839L0.478394 5.54388H0.840122L0.958078 5.24506H1.62649L1.75231 5.54388ZM1.52426 4.96983H1.07603L1.20972 4.63956L1.29622 4.41937H1.30408L1.39058 4.63956L1.52426 4.96983Z" fill="white"/>
</g>
</svg>
