<svg width="32" height="32" viewBox="0 0 32 32" fill="none" xmlns="http://www.w3.org/2000/svg">
<path opacity="0.2" d="M27.0001 17.0001V15.0001L28.2886 13.0676C28.3725 12.9431 28.428 12.8017 28.4511 12.6533C28.4743 12.5049 28.4644 12.3533 28.4224 12.2091C28.1793 11.4087 27.859 10.6339 27.4659 9.8955C27.3939 9.76408 27.2938 9.65017 27.1726 9.56191C27.0515 9.47364 26.9124 9.41319 26.7653 9.38488L24.4855 8.92895L23.0713 7.51477L22.6153 5.23498C22.587 5.0878 22.5266 4.94868 22.4383 4.82754C22.3501 4.7064 22.2362 4.60623 22.1047 4.53418C21.3663 4.14117 20.5914 3.8209 19.791 3.57788C19.6469 3.53583 19.4952 3.52602 19.3469 3.54914C19.1985 3.57226 19.0571 3.62775 18.9326 3.71167L17.0001 5H15.0001L13.0677 3.71167C12.9432 3.62774 12.8018 3.57225 12.6534 3.54913C12.505 3.52601 12.3534 3.53582 12.2092 3.57788C11.4088 3.82088 10.634 4.14115 9.89562 4.53418C9.76416 4.60619 9.65022 4.70635 9.56195 4.82749C9.47369 4.94864 9.41326 5.08778 9.38499 5.23498L8.92907 7.51465L7.51476 8.92896L5.2351 9.38489C5.08791 9.41316 4.94879 9.47358 4.82766 9.56185C4.70654 9.65012 4.6064 9.76406 4.53442 9.89551C4.14128 10.6339 3.82092 11.4087 3.57787 12.2091C3.53581 12.3533 3.526 12.5049 3.54915 12.6533C3.57229 12.8017 3.62782 12.9431 3.71179 13.0676L4.99999 15V17L3.71179 18.9324C3.62782 19.0569 3.57229 19.1983 3.54915 19.3467C3.526 19.4951 3.53581 19.6467 3.57787 19.7909C3.82088 20.5913 4.1412 21.3662 4.53429 22.1046C4.60631 22.2361 4.70645 22.35 4.82757 22.4382C4.94869 22.5265 5.0878 22.5869 5.23498 22.6152L7.51476 23.0712L8.92895 24.4854L9.38488 26.7651C9.41315 26.9123 9.47357 27.0515 9.56184 27.1726C9.65011 27.2938 9.76405 27.3939 9.89551 27.4659C10.6338 27.8591 11.4086 28.1793 12.209 28.4222C12.3531 28.4643 12.5048 28.4741 12.6531 28.451C12.8015 28.4279 12.943 28.3724 13.0675 28.2885L15 27.0001H17L18.9326 28.2886C19.0571 28.3725 19.1986 28.428 19.3469 28.4511C19.4953 28.4742 19.6469 28.4644 19.791 28.4224C20.5914 28.1793 21.3662 27.8591 22.1046 27.4661C22.236 27.394 22.3499 27.2939 22.4382 27.1728C22.5265 27.0517 22.5869 26.9126 22.6152 26.7654L23.0712 24.4855L24.4853 23.0712L26.7653 22.6152C26.9124 22.587 27.0516 22.5265 27.1727 22.4383C27.2938 22.35 27.394 22.2361 27.4659 22.1046C27.859 21.3663 28.1793 20.5915 28.4224 19.7911C28.4644 19.647 28.4743 19.4953 28.4512 19.347C28.428 19.1986 28.3725 19.0571 28.2886 18.9326L27.0001 17.0001ZM16.0001 23.0001C14.6156 23.0001 13.2623 22.5896 12.1111 21.8204C10.96 21.0512 10.0628 19.958 9.53296 18.6789C9.00315 17.3998 8.86452 15.9924 9.13462 14.6345C9.40472 13.2766 10.0714 12.0293 11.0504 11.0504C12.0293 10.0714 13.2766 9.40472 14.6345 9.13463C15.9924 8.86453 17.3998 9.00316 18.6789 9.53297C19.958 10.0628 21.0512 10.96 21.8204 12.1111C22.5896 13.2623 23.0001 14.6157 23.0001 16.0001C23.0001 17.8566 22.2626 19.6371 20.9499 20.9499C19.6371 22.2626 17.8566 23.0001 16.0001 23.0001V23.0001Z" fill="#9395A1"/>
<path d="M16.0001 23.0001C19.8661 23.0001 23.0001 19.8661 23.0001 16.0001C23.0001 12.1341 19.8661 9.00006 16.0001 9.00006C12.1341 9.00006 9.00012 12.1341 9.00012 16.0001C9.00012 19.8661 12.1341 23.0001 16.0001 23.0001Z" stroke="#9395A1" stroke-width="2" stroke-linecap="round" stroke-linejoin="round"/>
<path d="M27.0002 15.0001L28.2885 13.0676C28.3725 12.9431 28.428 12.8016 28.4512 12.6533C28.4743 12.5049 28.4645 12.3532 28.4224 12.2091C28.1793 11.4087 27.859 10.6339 27.4659 9.89555C27.3939 9.76411 27.2938 9.6502 27.1726 9.56193C27.0515 9.47367 26.9124 9.41324 26.7652 9.38495L24.4855 8.92896L23.0713 7.51477L22.6153 5.23494C22.587 5.08776 22.5266 4.94864 22.4383 4.82751C22.3501 4.70639 22.2361 4.60624 22.1047 4.53424C21.3663 4.1412 20.5915 3.82091 19.7911 3.57788C19.6469 3.53581 19.4953 3.52599 19.3469 3.54912C19.1985 3.57225 19.0571 3.62777 18.9326 3.71172L17.0002 5H15.0002L13.0677 3.71172C12.9432 3.62777 12.8018 3.57226 12.6534 3.54912C12.505 3.52599 12.3534 3.53581 12.2092 3.57788C11.4089 3.82091 10.634 4.1412 9.89563 4.53423C9.76418 4.60624 9.65025 4.70638 9.56198 4.82752C9.47371 4.94865 9.41327 5.08778 9.38498 5.23497L8.92911 7.51465L7.5148 8.92895L5.23509 9.38483C5.08791 9.41311 4.94879 9.47355 4.82766 9.56181C4.70654 9.65008 4.60639 9.764 4.53438 9.89545C4.14129 10.6338 3.82095 11.4087 3.57788 12.2091C3.53582 12.3532 3.526 12.5049 3.54914 12.6532C3.57227 12.8016 3.62779 12.9431 3.71175 13.0676L5.00003 15V17L3.71174 18.9324C3.62779 19.0569 3.57228 19.1984 3.54915 19.3468C3.52602 19.4951 3.53583 19.6468 3.5779 19.7909C3.8209 20.5913 4.14119 21.3662 4.53424 22.1046C4.60626 22.236 4.7064 22.3499 4.82752 22.4382C4.94865 22.5265 5.08777 22.5869 5.23494 22.6152L7.5148 23.0712L8.92898 24.4854L9.38487 26.7652C9.41315 26.9124 9.47358 27.0515 9.56185 27.1726C9.65011 27.2938 9.76403 27.3939 9.89547 27.4659C10.6338 27.859 11.4086 28.1793 12.209 28.4223C12.3532 28.4643 12.5048 28.4742 12.6532 28.451C12.8015 28.4279 12.943 28.3724 13.0675 28.2884L15 27.0001H17L18.9326 28.2885C19.0571 28.3725 19.1985 28.428 19.3469 28.4511C19.4953 28.4742 19.6469 28.4644 19.7911 28.4224C20.5914 28.1794 21.3662 27.8591 22.1046 27.466C22.236 27.394 22.3499 27.2939 22.4382 27.1728C22.5265 27.0516 22.5869 26.9125 22.6152 26.7653L23.0712 24.4855L24.4854 23.0712L26.7652 22.6153C26.9124 22.587 27.0515 22.5266 27.1726 22.4383C27.2938 22.35 27.3939 22.2361 27.4659 22.1047C27.859 21.3663 28.1793 20.5915 28.4224 19.7912C28.4645 19.647 28.4743 19.4954 28.4511 19.347C28.428 19.1986 28.3725 19.0572 28.2885 18.9327L27.0002 17.0001V15.0001Z" stroke="#9395A1" stroke-width="2" stroke-linecap="round" stroke-linejoin="round"/>
</svg>
