<svg width="22" height="22" viewBox="0 0 22 22" fill="none" xmlns="http://www.w3.org/2000/svg">
<path d="M11 13.5C12.3807 13.5 13.5 12.3807 13.5 11C13.5 9.61929 12.3807 8.5 11 8.5C9.61929 8.5 8.5 9.61929 8.5 11C8.5 12.3807 9.61929 13.5 11 13.5Z" stroke="#A0A4A8" stroke-width="2" stroke-linecap="round" stroke-linejoin="round"/>
<path d="M17.1666 13.5002C17.0557 13.7515 17.0226 14.0303 17.0716 14.3007C17.1206 14.571 17.2495 14.8204 17.4416 15.0168L17.4916 15.0668C17.6465 15.2216 17.7695 15.4054 17.8533 15.6078C17.9372 15.8101 17.9804 16.027 17.9804 16.246C17.9804 16.465 17.9372 16.6819 17.8533 16.8842C17.7695 17.0866 17.6465 17.2704 17.4916 17.4252C17.3368 17.5801 17.153 17.7031 16.9507 17.7869C16.7483 17.8708 16.5314 17.914 16.3124 17.914C16.0934 17.914 15.8765 17.8708 15.6742 17.7869C15.4719 17.7031 15.288 17.5801 15.1332 17.4252L15.0833 17.3752C14.8869 17.183 14.6374 17.0542 14.3671 17.0052C14.0967 16.9561 13.8179 16.9892 13.5666 17.1002C13.3201 17.2058 13.1099 17.3812 12.9618 17.6048C12.8138 17.8283 12.7343 18.0903 12.7333 18.3585V18.5002C12.7333 18.9422 12.5577 19.3661 12.2451 19.6787C11.9325 19.9912 11.5086 20.1668 11.0666 20.1668C10.6246 20.1668 10.2006 19.9912 9.88807 19.6787C9.57551 19.3661 9.39992 18.9422 9.39992 18.5002V18.4252C9.39347 18.1493 9.30418 17.8818 9.14368 17.6574C8.98317 17.433 8.75886 17.2621 8.49992 17.1668C8.24857 17.0559 7.96976 17.0228 7.69943 17.0718C7.4291 17.1208 7.17965 17.2497 6.98325 17.4418L6.93325 17.4918C6.77846 17.6468 6.59465 17.7697 6.39232 17.8536C6.18999 17.9375 5.97311 17.9806 5.75408 17.9806C5.53506 17.9806 5.31818 17.9375 5.11585 17.8536C4.91352 17.7697 4.72971 17.6468 4.57492 17.4918C4.41996 17.337 4.29703 17.1532 4.21315 16.9509C4.12928 16.7486 4.08611 16.5317 4.08611 16.3127C4.08611 16.0936 4.12928 15.8768 4.21315 15.6744C4.29703 15.4721 4.41996 15.2883 4.57492 15.1335L4.62492 15.0835C4.81703 14.8871 4.94591 14.6376 4.99492 14.3673C5.04394 14.097 5.01085 13.8182 4.89992 13.5668C4.79428 13.3204 4.61888 13.1101 4.39531 12.9621C4.17173 12.814 3.90974 12.7346 3.64159 12.7335H3.49992C3.05789 12.7335 2.63397 12.5579 2.32141 12.2453C2.00885 11.9328 1.83325 11.5089 1.83325 11.0668C1.83325 10.6248 2.00885 10.2009 2.32141 9.88832C2.63397 9.57576 3.05789 9.40016 3.49992 9.40016H3.57492C3.85075 9.39371 4.11826 9.30443 4.34267 9.14392C4.56708 8.98341 4.73801 8.75911 4.83325 8.50016C4.94418 8.24882 4.97727 7.97 4.92826 7.69967C4.87924 7.42934 4.75037 7.17989 4.55825 6.9835L4.50825 6.9335C4.35329 6.77871 4.23036 6.59489 4.14649 6.39256C4.06261 6.19023 4.01944 5.97335 4.01944 5.75433C4.01944 5.5353 4.06261 5.31843 4.14649 5.1161C4.23036 4.91377 4.35329 4.72995 4.50825 4.57516C4.66304 4.4202 4.84685 4.29727 5.04918 4.2134C5.25151 4.12952 5.46839 4.08635 5.68742 4.08635C5.90644 4.08635 6.12332 4.12952 6.32565 4.2134C6.52798 4.29727 6.7118 4.4202 6.86658 4.57516L6.91658 4.62516C7.11298 4.81728 7.36243 4.94615 7.63276 4.99517C7.90309 5.04418 8.1819 5.01109 8.43325 4.90016H8.49992C8.74639 4.79453 8.9566 4.61913 9.10466 4.39555C9.25272 4.17198 9.33218 3.90998 9.33325 3.64183V3.50016C9.33325 3.05814 9.50885 2.63421 9.82141 2.32165C10.134 2.00909 10.5579 1.8335 10.9999 1.8335C11.4419 1.8335 11.8659 2.00909 12.1784 2.32165C12.491 2.63421 12.6666 3.05814 12.6666 3.50016V3.57516C12.6677 3.84332 12.7471 4.10531 12.8952 4.32888C13.0432 4.55246 13.2534 4.72786 13.4999 4.8335C13.7513 4.94443 14.0301 4.97752 14.3004 4.9285C14.5707 4.87948 14.8202 4.75061 15.0166 4.5585L15.0666 4.5085C15.2214 4.35354 15.4052 4.2306 15.6075 4.14673C15.8098 4.06286 16.0267 4.01968 16.2458 4.01968C16.4648 4.01968 16.6817 4.06286 16.884 4.14673C17.0863 4.2306 17.2701 4.35354 17.4249 4.5085C17.5799 4.66328 17.7028 4.8471 17.7867 5.04943C17.8706 5.25176 17.9137 5.46864 17.9137 5.68766C17.9137 5.90669 17.8706 6.12357 17.7867 6.3259C17.7028 6.52823 17.5799 6.71204 17.4249 6.86683L17.3749 6.91683C17.1828 7.11323 17.0539 7.36268 17.0049 7.633C16.9559 7.90333 16.989 8.18215 17.0999 8.4335V8.50016C17.2056 8.74664 17.381 8.95684 17.6045 9.10491C17.8281 9.25297 18.0901 9.33243 18.3583 9.3335H18.4999C18.9419 9.3335 19.3659 9.50909 19.6784 9.82165C19.991 10.1342 20.1666 10.5581 20.1666 11.0002C20.1666 11.4422 19.991 11.8661 19.6784 12.1787C19.3659 12.4912 18.9419 12.6668 18.4999 12.6668H18.4249C18.1568 12.6679 17.8948 12.7474 17.6712 12.8954C17.4476 13.0435 17.2722 13.2537 17.1666 13.5002V13.5002Z" stroke="#A0A4A8" stroke-width="2" stroke-linecap="round" stroke-linejoin="round"/>
</svg>
