<svg width="48" height="48" viewBox="0 0 48 48" fill="none" xmlns="http://www.w3.org/2000/svg">
<rect width="48" height="48" rx="8" fill="#2E7BE6"/>
<path opacity="0.2" d="M35.0001 25.0001V23.0001L36.2886 21.0676C36.3725 20.9431 36.428 20.8017 36.4511 20.6533C36.4743 20.5049 36.4644 20.3533 36.4224 20.2091C36.1793 19.4087 35.859 18.6339 35.4659 17.8955C35.3939 17.7641 35.2938 17.6502 35.1726 17.5619C35.0515 17.4736 34.9124 17.4132 34.7653 17.3849L32.4855 16.9289L31.0713 15.5148L30.6153 13.235C30.587 13.0878 30.5266 12.9487 30.4383 12.8275C30.3501 12.7064 30.2362 12.6062 30.1047 12.5342C29.3663 12.1412 28.5914 11.8209 27.791 11.5779C27.6469 11.5358 27.4952 11.526 27.3469 11.5491C27.1985 11.5723 27.0571 11.6277 26.9326 11.7117L25.0001 13H23.0001L21.0677 11.7117C20.9432 11.6277 20.8018 11.5723 20.6534 11.5491C20.505 11.526 20.3534 11.5358 20.2092 11.5779C19.4088 11.8209 18.634 12.1412 17.8956 12.5342C17.7642 12.6062 17.6502 12.7063 17.562 12.8275C17.4737 12.9486 17.4133 13.0878 17.385 13.235L16.9291 15.5146L15.5148 16.929L13.2351 17.3849C13.0879 17.4132 12.9488 17.4736 12.8277 17.5619C12.7065 17.6501 12.6064 17.7641 12.5344 17.8955C12.1413 18.6339 11.8209 19.4087 11.5779 20.2091C11.5358 20.3533 11.526 20.5049 11.5491 20.6533C11.5723 20.8017 11.6278 20.9431 11.7118 21.0676L13 23V25L11.7118 26.9324C11.6278 27.0569 11.5723 27.1983 11.5491 27.3467C11.526 27.4951 11.5358 27.6467 11.5779 27.7909C11.8209 28.5913 12.1412 29.3662 12.5343 30.1046C12.6063 30.2361 12.7064 30.35 12.8276 30.4382C12.9487 30.5265 13.0878 30.5869 13.235 30.6152L15.5148 31.0712L16.9289 32.4854L17.3849 34.7651C17.4131 34.9123 17.4736 35.0515 17.5618 35.1726C17.6501 35.2938 17.764 35.3939 17.8955 35.4659C18.6338 35.8591 19.4086 36.1793 20.209 36.4222C20.3531 36.4643 20.5048 36.4741 20.6531 36.451C20.8015 36.4279 20.943 36.3724 21.0675 36.2885L23 35.0001H25L26.9326 36.2886C27.0571 36.3725 27.1986 36.428 27.3469 36.4511C27.4953 36.4742 27.6469 36.4644 27.791 36.4224C28.5914 36.1793 29.3662 35.8591 30.1046 35.4661C30.236 35.394 30.3499 35.2939 30.4382 35.1728C30.5265 35.0517 30.5869 34.9126 30.6152 34.7654L31.0712 32.4855L32.4853 31.0712L34.7653 30.6152C34.9124 30.587 35.0516 30.5265 35.1727 30.4383C35.2938 30.35 35.394 30.2361 35.4659 30.1046C35.859 29.3663 36.1793 28.5915 36.4224 27.7911C36.4644 27.647 36.4743 27.4953 36.4512 27.347C36.428 27.1986 36.3725 27.0571 36.2886 26.9326L35.0001 25.0001ZM24.0001 31.0001C22.6156 31.0001 21.2623 30.5896 20.1111 29.8204C18.96 29.0512 18.0628 27.958 17.533 26.6789C17.0031 25.3998 16.8645 23.9924 17.1346 22.6345C17.4047 21.2766 18.0714 20.0293 19.0504 19.0504C20.0293 18.0714 21.2766 17.4047 22.6345 17.1346C23.9924 16.8645 25.3998 17.0032 26.6789 17.533C27.958 18.0628 29.0512 18.96 29.8204 20.1111C30.5896 21.2623 31.0001 22.6157 31.0001 24.0001C31.0001 25.8566 30.2626 27.6371 28.9499 28.9499C27.6371 30.2626 25.8566 31.0001 24.0001 31.0001Z" fill="white"/>
<path d="M24.0001 31.0001C27.8661 31.0001 31.0001 27.8661 31.0001 24.0001C31.0001 20.1341 27.8661 17.0001 24.0001 17.0001C20.1341 17.0001 17.0001 20.1341 17.0001 24.0001C17.0001 27.8661 20.1341 31.0001 24.0001 31.0001Z" stroke="white" stroke-width="2" stroke-linecap="round" stroke-linejoin="round"/>
<path d="M35.0002 23.0001L36.2885 21.0676C36.3725 20.9431 36.428 20.8016 36.4512 20.6533C36.4743 20.5049 36.4645 20.3532 36.4224 20.2091C36.1793 19.4087 35.859 18.6339 35.4659 17.8955C35.3939 17.7641 35.2938 17.6502 35.1726 17.5619C35.0515 17.4737 34.9124 17.4132 34.7652 17.3849L32.4855 16.929L31.0713 15.5148L30.6153 13.2349C30.587 13.0878 30.5266 12.9486 30.4383 12.8275C30.3501 12.7064 30.2361 12.6062 30.1047 12.5342C29.3663 12.1412 28.5915 11.8209 27.7911 11.5779C27.6469 11.5358 27.4953 11.526 27.3469 11.5491C27.1985 11.5723 27.0571 11.6278 26.9326 11.7117L25.0002 13H23.0002L21.0677 11.7117C20.9432 11.6278 20.8018 11.5723 20.6534 11.5491C20.505 11.526 20.3534 11.5358 20.2092 11.5779C19.4089 11.8209 18.634 12.1412 17.8956 12.5342C17.7642 12.6062 17.6503 12.7064 17.562 12.8275C17.4737 12.9486 17.4133 13.0878 17.385 13.235L16.9291 15.5146L15.5148 16.929L13.2351 17.3848C13.0879 17.4131 12.9488 17.4735 12.8277 17.5618C12.7065 17.6501 12.6064 17.764 12.5344 17.8954C12.1413 18.6338 11.8209 19.4087 11.5779 20.2091C11.5358 20.3532 11.526 20.5049 11.5491 20.6532C11.5723 20.8016 11.6278 20.9431 11.7117 21.0676L13 23V25L11.7117 26.9324C11.6278 27.0569 11.5723 27.1984 11.5491 27.3468C11.526 27.4951 11.5358 27.6468 11.5779 27.7909C11.8209 28.5913 12.1412 29.3662 12.5342 30.1046C12.6063 30.236 12.7064 30.3499 12.8275 30.4382C12.9486 30.5265 13.0878 30.5869 13.2349 30.6152L15.5148 31.0712L16.929 32.4854L17.3849 34.7652C17.4132 34.9124 17.4736 35.0515 17.5618 35.1726C17.6501 35.2938 17.764 35.3939 17.8955 35.4659C18.6338 35.859 19.4086 36.1793 20.209 36.4223C20.3532 36.4643 20.5048 36.4742 20.6532 36.451C20.8015 36.4279 20.943 36.3724 21.0675 36.2884L23 35.0001H25L26.9326 36.2885C27.0571 36.3725 27.1985 36.428 27.3469 36.4511C27.4953 36.4742 27.6469 36.4644 27.7911 36.4224C28.5914 36.1794 29.3662 35.8591 30.1046 35.466C30.236 35.394 30.3499 35.2939 30.4382 35.1728C30.5265 35.0516 30.5869 34.9125 30.6152 34.7653L31.0712 32.4855L32.4854 31.0712L34.7652 30.6153C34.9124 30.587 35.0515 30.5266 35.1726 30.4383C35.2938 30.35 35.3939 30.2361 35.4659 30.1047C35.859 29.3663 36.1793 28.5915 36.4224 27.7912C36.4645 27.647 36.4743 27.4954 36.4511 27.347C36.428 27.1986 36.3725 27.0572 36.2885 26.9327L35.0002 25.0001V23.0001Z" stroke="white" stroke-width="2" stroke-linecap="round" stroke-linejoin="round"/>
</svg>
