<?xml version="1.0" encoding="UTF-8"?>
<svg width="24px" height="24px" viewBox="0 0 24 24" version="1.1" xmlns="http://www.w3.org/2000/svg" xmlns:xlink="http://www.w3.org/1999/xlink">
    <title>Resellers</title>
    <g id="Resellers" stroke="none" stroke-width="1" fill="none" fill-rule="evenodd">
        <g>
            <rect id="Rectangle" x="0" y="0" width="24" height="24"></rect>
            <path d="M6.97837548,17 L6.17998596,18.3850138 C6.67713069,18.7488698 7,19.3367298 7,20 C7,21.1045695 6.1045695,22 5,22 C3.8954305,22 3,21.1045695 3,20 C3,18.8954305 3.8954305,18 5,18 C5.08081377,18 5.16050805,18.0047931 5.23881407,18.0141105 L5.82437548,17 L6.97837548,17 Z M12.4753755,17 L12.4768962,18.0572098 C13.3512083,18.2710923 14,19.0597795 14,20 C14,21.1045695 13.1045695,22 12,22 C10.8954305,22 10,21.1045695 10,20 C10,19.0767562 10.6255739,18.2996229 11.4759669,18.0693551 L11.4753755,17 L12.4753755,17 Z M18.1753755,17 L18.7611859,18.0141105 C18.8394919,18.0047931 18.9191862,18 19,18 C20.1045695,18 21,18.8954305 21,20 C21,21.1045695 20.1045695,22 19,22 C17.8954305,22 17,21.1045695 17,20 C17,19.3367298 17.3228693,18.7488698 17.820014,18.3850138 L17.0203755,17 L18.1753755,17 Z M5,19 C4.44771525,19 4,19.4477153 4,20 C4,20.5522847 4.44771525,21 5,21 C5.55228475,21 6,20.5522847 6,20 C6,19.4477153 5.55228475,19 5,19 Z M12,19 C11.4477153,19 11,19.4477153 11,20 C11,20.5522847 11.4477153,21 12,21 C12.5522847,21 13,20.5522847 13,20 C13,19.4477153 12.5522847,19 12,19 Z M19,19 C18.4477153,19 18,19.4477153 18,20 C18,20.5522847 18.4477153,21 19,21 C19.5522847,21 20,20.5522847 20,20 C20,19.4477153 19.5522847,19 19,19 Z M13,9 C15.7614237,9 18,11.2385763 18,14 L18,16 L6,16 L6,14 C6,11.2385763 8.23857625,9 11,9 L13,9 Z M13,10 L11,10 C8.85780461,10 7.10892112,11.6839685 7.00489531,13.8003597 L7,14 L7,15 L17,15 L17,14 C17,11.8578046 15.3160315,10.1089211 13.1996403,10.0048953 L13,10 Z M12,2 C13.6568542,2 15,3.34314575 15,5 C15,6.65685425 13.6568542,8 12,8 C10.3431458,8 9,6.65685425 9,5 C9,3.34314575 10.3431458,2 12,2 Z M12,3 C10.8954305,3 10,3.8954305 10,5 C10,6.1045695 10.8954305,7 12,7 C13.1045695,7 14,6.1045695 14,5 C14,3.8954305 13.1045695,3 12,3 Z" id="Combined-Shape" fill="#212121" fill-rule="nonzero"></path>
        </g>
    </g>
</svg>