<svg width="19" height="12" viewBox="0 0 19 12" fill="none" xmlns="http://www.w3.org/2000/svg">
<path d="M12.8572 12C12.3838 12 12 11.6162 12 11.1429C12 10.6695 12.3838 10.2857 12.8572 10.2857H15.9307L10.2857 4.64073L7.46325 7.46322C7.12851 7.79796 6.5858 7.79796 6.25106 7.46322L0.25105 1.46321C-0.0836832 1.12849 -0.0836832 0.585752 0.25105 0.251036C0.58579 -0.0836782 1.1285 -0.0836782 1.46324 0.251036L6.85716 5.64496L9.67965 2.82247C10.0144 2.48775 10.5571 2.48775 10.8918 2.82247L17.1429 9.07354V5.99999C17.1429 5.52659 17.5266 5.14285 18 5.14285C18.4734 5.14285 18.8572 5.52659 18.8572 5.99999V11.1429C18.8572 11.272 18.8286 11.3946 18.7774 11.5044C18.743 11.5784 18.6975 11.6485 18.6408 11.7122C18.6202 11.7354 18.5983 11.7575 18.5753 11.7783C18.5026 11.8442 18.4214 11.8954 18.3354 11.9319C18.2324 11.9758 18.119 12 18 12H12.8572Z" fill="#01D684"/>
</svg>
