<svg width="19" height="12" viewBox="0 0 19 12" fill="none" xmlns="http://www.w3.org/2000/svg">
<path d="M12.8572 0C12.3838 0 12 0.383761 12 0.857144C12 1.33053 12.3838 1.71429 12.8572 1.71429H15.9307L10.2857 7.35927L7.46325 4.53678C7.12851 4.20204 6.5858 4.20204 6.25106 4.53678L0.25105 10.5368C-0.0836832 10.8715 -0.0836832 11.4142 0.25105 11.749C0.58579 12.0837 1.1285 12.0837 1.46324 11.749L6.85716 6.35504L9.67965 9.17753C10.0144 9.51225 10.5571 9.51225 10.8918 9.17753L17.1429 2.92646V6.00001C17.1429 6.47341 17.5266 6.85715 18 6.85715C18.4734 6.85715 18.8572 6.47341 18.8572 6.00001V0.857144C18.8572 0.727955 18.8286 0.605441 18.7774 0.495581C18.743 0.421576 18.6975 0.351471 18.6408 0.28779C18.6202 0.264583 18.5983 0.242505 18.5753 0.22166C18.5026 0.155777 18.4214 0.104581 18.3354 0.0680711C18.2324 0.0242475 18.119 0 18 0H12.8572Z" fill="#01D684"/>
</svg>
