<svg width="24" height="24" viewBox="0 0 24 24" fill="none" xmlns="http://www.w3.org/2000/svg">
<rect opacity="0.1" width="24" height="24" rx="8" fill="#174CD6"/>
<path d="M18.0005 14.2297H17.1086L18.349 9.75013H19.2409L18.0005 14.2297Z" fill="#174CD6"/>
<path d="M17.5375 9.89159C17.4757 9.80635 17.3803 9.76334 17.2508 9.76334H12.3465L12.1036 10.6407H12.996V10.6402H16.5651L16.3055 11.5778H12.7362L12.7366 11.5759H11.8446L11.1042 14.2485H11.9967L12.4935 12.4547H16.5056C16.6309 12.4547 16.7488 12.4119 16.8597 12.3265C16.9704 12.2409 17.0432 12.1354 17.0782 12.0094L17.5749 10.2152C17.6112 10.085 17.5987 9.97692 17.5375 9.89159Z" fill="#174CD6"/>
<path d="M10.5847 13.9499C10.5355 14.1273 10.374 14.25 10.1898 14.25H5.58832C5.46293 14.25 5.36974 14.2073 5.30846 14.1219C5.24722 14.0364 5.23409 13.9307 5.2691 13.8047L6.39188 9.76304H7.28456L6.28171 13.3729H9.85253L10.8554 9.76304H11.7479L10.5847 13.9499Z" fill="#174CD6"/>
</svg>
