<svg width="32" height="32" viewBox="0 0 32 32" fill="none" xmlns="http://www.w3.org/2000/svg">
<rect x="0.5" y="0.5" width="31" height="31" rx="15.5" fill="white" stroke="#F3F4F4"/>
<path d="M24.0008 18.9729H22.8116L24.4654 13.0001H25.6546L24.0008 18.9729Z" fill="#3483E4"/>
<path d="M23.3835 13.1888C23.3011 13.0752 23.1739 13.0178 23.0012 13.0178H16.4622L16.1384 14.1877H17.3282V14.187H22.087L21.7408 15.4371H16.9818L16.9823 15.4345H15.793L14.8058 18.9981H15.9958L16.6582 16.6063H22.0076C22.1747 16.6063 22.3319 16.5493 22.4798 16.4353C22.6274 16.3212 22.7245 16.1806 22.7711 16.0126L23.4334 13.6203C23.4818 13.4467 23.4651 13.3026 23.3835 13.1888Z" fill="#3483E4"/>
<path d="M14.113 18.5999C14.0473 18.8364 13.8319 19 13.5864 19H7.45109C7.28391 19 7.15965 18.943 7.07794 18.8292C6.99629 18.7152 6.97878 18.5742 7.02546 18.4063L8.5225 13.0174H9.71275L8.37561 17.8305H13.1367L14.4738 13.0174H15.6638L14.113 18.5999Z" fill="#3483E4"/>
</svg>
