<svg width="20" height="14" viewBox="0 0 20 14" fill="none" xmlns="http://www.w3.org/2000/svg">
<rect width="20" height="14" rx="2" fill="#1A1F71"/>
<path d="M8.69462 9.42787H7.44312L8.2259 4.58774H9.47734L8.69462 9.42787Z" fill="white"/>
<path d="M13.2314 4.70606C12.9846 4.60813 12.5931 4.5 12.1089 4.5C10.873 4.5 10.0027 5.15905 9.99738 6.10129C9.98712 6.79647 10.6205 7.18259 11.0942 7.41439C11.5784 7.65125 11.743 7.80584 11.743 8.01697C11.7381 8.34123 11.3517 8.49069 10.9914 8.49069C10.4918 8.49069 10.224 8.41363 9.81719 8.23323L9.65239 8.1559L9.47726 9.2424C9.77079 9.37613 10.3116 9.4948 10.873 9.5C12.1862 9.5 13.0411 8.85115 13.0512 7.84704C13.0562 7.29606 12.7218 6.87387 12.0007 6.52888C11.563 6.30742 11.2949 6.15809 11.2949 5.93149C11.3001 5.7255 11.5217 5.51451 12.0158 5.51451C12.4226 5.50417 12.7216 5.60197 12.948 5.69984L13.0612 5.75123L13.2314 4.70606V4.70606Z" fill="white"/>
<path d="M14.895 7.71318C14.9981 7.43512 15.3947 6.35895 15.3947 6.35895C15.3895 6.36929 15.4975 6.07576 15.5593 5.89557L15.6468 6.31262C15.6468 6.31262 15.8838 7.47119 15.9352 7.71318C15.7396 7.71318 15.1422 7.71318 14.895 7.71318ZM16.4398 4.58774H15.4718C15.1733 4.58774 14.9465 4.6752 14.8177 4.98933L12.9587 9.4278H14.2719C14.2719 9.4278 14.4881 8.83042 14.5345 8.70175C14.6786 8.70175 15.956 8.70175 16.1414 8.70175C16.1773 8.87168 16.2907 9.4278 16.2907 9.4278H17.4495L16.4398 4.58774V4.58774Z" fill="white"/>
<path d="M6.39784 4.58774L5.1722 7.88824L5.03827 7.21886C4.81168 6.44648 4.10103 5.60731 3.30798 5.19005L4.43062 9.42274H5.75405L7.7212 4.58774H6.39784V4.58774Z" fill="white"/>
<path d="M4.03415 4.58774H2.0206L2 4.68553C3.5707 5.08719 4.61094 6.05537 5.03832 7.21907L4.6006 4.9946C4.52854 4.68547 4.30708 4.59794 4.03415 4.58774Z" fill="#FAA61A"/>
</svg>
