<svg width="48" height="48" viewBox="0 0 48 48" fill="none" xmlns="http://www.w3.org/2000/svg">
<rect width="48" height="48" rx="8" fill="#2E7BE6"/>
<path d="M23.2929 16.9289L25.7678 14.4541C26.2784 13.9429 26.8847 13.5374 27.5521 13.2607C28.2195 12.984 28.9349 12.8415 29.6574 12.8413C30.3799 12.8412 31.0953 12.9833 31.7628 13.2598C32.4304 13.5362 33.0369 13.9414 33.5478 14.4522C34.0586 14.9631 34.4638 15.5696 34.7403 16.2372C35.0167 16.9047 35.1588 17.6201 35.1587 18.3426C35.1585 19.0651 35.016 19.7805 34.7393 20.4479C34.4626 21.1153 34.0571 21.7216 33.5459 22.2322L30.0104 25.7678C29.4997 26.2785 28.8934 26.6836 28.2261 26.96C27.5588 27.2364 26.8436 27.3787 26.1213 27.3787C25.3991 27.3787 24.6839 27.2364 24.0166 26.96C23.3493 26.6836 22.743 26.2785 22.2322 25.7678" stroke="white" stroke-width="2" stroke-linecap="round" stroke-linejoin="round"/>
<path d="M24.7071 31.0711L22.2322 33.5459C21.7216 34.0571 21.1153 34.4626 20.4479 34.7393C19.7805 35.016 19.0651 35.1585 18.3426 35.1587C17.6201 35.1588 16.9047 35.0167 16.2372 34.7402C15.5696 34.4638 14.9631 34.0586 14.4523 33.5478C13.9414 33.0369 13.5362 32.4304 13.2598 31.7628C12.9834 31.0953 12.8412 30.3799 12.8413 29.6574C12.8415 28.9349 12.984 28.2195 13.2607 27.5521C13.5375 26.8847 13.943 26.2784 14.4541 25.7678L17.9896 22.2322C18.5003 21.7215 19.1066 21.3164 19.7739 21.04C20.4412 20.7636 21.1564 20.6213 21.8787 20.6213C22.601 20.6213 23.3162 20.7636 23.9834 21.04C24.6507 21.3164 25.2571 21.7215 25.7678 22.2322" stroke="white" stroke-width="2" stroke-linecap="round" stroke-linejoin="round"/>
</svg>
